<svg id="vuesax_linear_bag-2" data-name="vuesax/linear/bag-2" xmlns="http://www.w3.org/2000/svg" width="22.137" height="22.137" viewBox="0 0 22.137 22.137">
  <g id="bag-2">
    <path id="Vector" d="M0,5.222V4.327A4.4,4.4,0,0,1,3.745.02,4.151,4.151,0,0,1,8.3,4.152V5.425" transform="translate(6.918 1.852)" fill="none" stroke="#000" stroke-linecap="round" stroke-linejoin="round" stroke-width="1.2"/>
    <path id="Vector-2" data-name="Vector" d="M5.3,12.913h5.534c3.708,0,4.372-1.485,4.566-3.293L16.1,4.086C16.345,1.836,15.7,0,11.761,0H4.382C.443,0-.2,1.836.047,4.086L.739,9.62C.932,11.428,1.6,12.913,5.3,12.913Z" transform="translate(2.997 7.379)" fill="none" stroke="#000" stroke-linecap="round" stroke-linejoin="round" stroke-width="1.2"/>
    <path id="Vector-3" data-name="Vector" d="M.495.5H.5" transform="translate(13.798 10.568)" fill="none" stroke="#000" stroke-linecap="round" stroke-linejoin="round" stroke-width="1.2"/>
    <path id="Vector-4" data-name="Vector" d="M.495.5H.5" transform="translate(7.341 10.568)" fill="none" stroke="#000" stroke-linecap="round" stroke-linejoin="round" stroke-width="1.2"/>
    <path id="Vector-5" data-name="Vector" d="M0,0H22.137V22.137H0Z" fill="none" opacity="0"/>
  </g>
</svg>
