<svg xmlns="http://www.w3.org/2000/svg" width="20" height="20" viewBox="0 0 20 20">
  <g id="vuesax_linear_calendar" data-name="vuesax/linear/calendar" transform="translate(-492 -188)">
    <g id="calendar" transform="translate(492 188)">
      <path id="Vector" d="M0,0V2.5" transform="translate(6.667 1.667)" fill="none" stroke="#292d32" stroke-linecap="round" stroke-linejoin="round" stroke-width="1.3"/>
      <path id="Vector-2" data-name="Vector" d="M0,0V2.5" transform="translate(13.333 1.667)" fill="none" stroke="#292d32" stroke-linecap="round" stroke-linejoin="round" stroke-width="1.3"/>
      <path id="Vector-3" data-name="Vector" d="M0,0H14.167" transform="translate(2.917 7.575)" fill="none" stroke="#292d32" stroke-linecap="round" stroke-linejoin="round" stroke-width="1.3"/>
      <path id="Vector-4" data-name="Vector" d="M15,4.167V11.25c0,2.5-1.25,4.167-4.167,4.167H4.167C1.25,15.417,0,13.75,0,11.25V4.167C0,1.667,1.25,0,4.167,0h6.667C13.75,0,15,1.667,15,4.167Z" transform="translate(2.5 2.917)" fill="none" stroke="#292d32" stroke-linecap="round" stroke-linejoin="round" stroke-width="1.3"/>
      <path id="Vector-5" data-name="Vector" d="M0,0H20V20H0Z" fill="none" opacity="0"/>
      <path id="Vector-6" data-name="Vector" d="M.495.5H.5" transform="translate(12.584 10.917)" fill="none" stroke="#292d32" stroke-linecap="round" stroke-linejoin="round" stroke-width="1.3"/>
      <path id="Vector-7" data-name="Vector" d="M.495.5H.5" transform="translate(12.584 13.417)" fill="none" stroke="#292d32" stroke-linecap="round" stroke-linejoin="round" stroke-width="1.3"/>
      <path id="Vector-8" data-name="Vector" d="M.495.5H.5" transform="translate(9.502 10.917)" fill="none" stroke="#292d32" stroke-linecap="round" stroke-linejoin="round" stroke-width="1.3"/>
      <path id="Vector-9" data-name="Vector" d="M.495.5H.5" transform="translate(9.502 13.417)" fill="none" stroke="#292d32" stroke-linecap="round" stroke-linejoin="round" stroke-width="1.3"/>
      <path id="Vector-10" data-name="Vector" d="M.495.5H.5" transform="translate(6.417 10.917)" fill="none" stroke="#292d32" stroke-linecap="round" stroke-linejoin="round" stroke-width="1.3"/>
      <path id="Vector-11" data-name="Vector" d="M.495.5H.5" transform="translate(6.417 13.417)" fill="none" stroke="#292d32" stroke-linecap="round" stroke-linejoin="round" stroke-width="1.3"/>
    </g>
  </g>
</svg>
