<svg xmlns="http://www.w3.org/2000/svg" width="94" height="94" viewBox="0 0 94 94">
  <g id="Group_26741" data-name="Group 26741" transform="translate(19225.146 849.476)">
    <rect id="Rectangle_19614" data-name="Rectangle 19614" width="94" height="94" rx="47" transform="translate(-19225.146 -849.476)" fill="#0b8409"/>
    <g id="g4146" transform="translate(-19198.146 -822.476)">
      <path id="path4148" d="M20.354,28.558a21.069,21.069,0,0,1-9.264-3.227c-2.343-1.5-2.872-2.118-2.872-3.349,0-2.473,2.769-6.805,7.507-11.744,2.691-2.8,6.439-6.092,6.845-6,.788.173,7.088,6.208,9.447,9.049,3.73,4.492,5.444,8.17,4.573,9.81-.662,1.247-4.771,3.683-7.789,4.619a23.294,23.294,0,0,1-8.446.845Zm-15.3-9.148a21,21,0,0,1-3.405-10,15.734,15.734,0,0,1,.356-5A20.325,20.325,0,0,1,7.078-5.7c1.047-1.07,1.14-1.1,2.416-.674,1.55.513,3.2,1.635,5.771,3.914l1.5,1.33-.818.986c-3.8,4.579-7.8,11.07-9.313,15.086-.821,2.183-1.152,4.375-.8,5.287.238.616.019.386-.779-.817Zm34.17.5a9.785,9.785,0,0,0-.621-4.323c-1.235-3.7-5.361-10.578-9.15-15.256L28.26-1.141l1.291-1.164a27.184,27.184,0,0,1,4.117-3.2A8.017,8.017,0,0,1,36.7-6.656c.377,0,1.705,1.353,2.777,2.83a21.263,21.263,0,0,1,3.5,7.947,25.984,25.984,0,0,1,.064,7.719,24.013,24.013,0,0,1-1.565,4.851,25.872,25.872,0,0,1-2.138,3.6c-.262.327-.262.326-.115-.379ZM20.7-7.355a26.276,26.276,0,0,0-5.935-2.06,11.068,11.068,0,0,0-1.98-.109c-1.229.061-1.174,0,.8-.917a20.537,20.537,0,0,1,4.864-1.591,25.519,25.519,0,0,1,8.069-.01,22.775,22.775,0,0,1,6.306,2.3l.438.265-1-.05c-2-.1-4.9.693-8.027,2.185a16.786,16.786,0,0,1-1.821.8c-.06-.011-.827-.378-1.706-.816Z" transform="translate(-1.571 12.357)" fill="#fff"/>
    </g>
  </g>
</svg>
