<svg id="Group_25760" data-name="Group 25760" xmlns="http://www.w3.org/2000/svg" width="22.466" height="20" viewBox="0 0 22.466 20">
  <g id="Group_24290" data-name="Group 24290" transform="translate(0 0)">
    <path id="Path_39867" data-name="Path 39867" d="M120.648,64.2a2.168,2.168,0,0,1,.26-1.025q.489-.969.976-1.94.644-1.275,1.291-2.549c.343-.681.683-1.364,1.026-2.046q.651-1.289,1.305-2.576c.222-.438.435-.881.674-1.309a1.586,1.586,0,0,1,1.05-.785,1.527,1.527,0,0,1,1.232.26q1.333.885,2.669,1.765c.64.423,1.283.842,1.917,1.274a1.926,1.926,0,0,1,.84,1.586,2.214,2.214,0,0,1-.262,1.139c-.436.847-.859,1.7-1.287,2.551l-1.364,2.708-1.114,2.214-1.391,2.76a1.762,1.762,0,0,1-.926.879,1.4,1.4,0,0,1-1.3-.1c-.322-.192-.632-.407-.946-.614q-.81-.534-1.618-1.07c-.285-.189-.568-.382-.854-.57-.415-.273-.831-.543-1.246-.815a1.956,1.956,0,0,1-.886-1.345C120.67,64.457,120.662,64.325,120.648,64.2Zm6.364,3.236a2.263,2.263,0,0,0,.139-.206q.412-.8.817-1.613.439-.873.876-1.746c.181-.36.366-.719.547-1.08.24-.478.477-.958.717-1.435.256-.508.515-1.013.773-1.52q.458-.9.913-1.81c.162-.322.324-.643.483-.965.066-.134.048-.187-.072-.269-.164-.112-.326-.225-.491-.334l-3.007-1.99q-.5-.332-1-.664c-.158-.1-.2-.092-.291.078-.074.142-.141.289-.214.431-.4.78-.8,1.559-1.188,2.341-.378.751-.748,1.506-1.126,2.258-.394.786-.792,1.57-1.189,2.356q-.489.969-.978,1.94c-.136.269-.274.537-.409.806-.1.2-.085.26.088.376.116.078.235.152.351.23l1.325.881,2.512,1.663C126.716,67.246,126.852,67.329,127.012,67.431Z" transform="translate(-111.424 -49.661)"/>
    <path id="Path_39868" data-name="Path 39868" d="M28.314,81.972a.85.85,0,0,1-.408.8c-.447.322-.887.657-1.342.967a1.507,1.507,0,0,1-1.734-.024,1.742,1.742,0,0,1-.585-.678c-.294-.571-.584-1.144-.878-1.715-.193-.375-.391-.746-.584-1.122-.3-.592-.605-1.187-.908-1.78-.238-.465-.479-.928-.716-1.394l-1.82-3.558c-.107-.209-.221-.415-.317-.629a2.044,2.044,0,0,1,.232-2.171,2.281,2.281,0,0,1,.617-.514c.415-.276.828-.555,1.243-.833.562-.377,1.128-.749,1.687-1.129a.706.706,0,0,1,.771-.084.831.831,0,0,1,.462.729.9.9,0,0,1-.42.86q-.927.621-1.853,1.244-.639.431-1.273.867c-.1.07-.117.117-.061.229.2.4.4.8.606,1.192q.4.781.8,1.561c.253.49.509.978.761,1.468.193.375.38.753.572,1.128.253.495.509.988.762,1.483.312.61.62,1.222.934,1.83q.361.7.732,1.4c.078.147.118.157.255.058.366-.263.729-.53,1.093-.8.051-.037.1-.069.153-.108a.739.739,0,0,1,1.161.334.783.783,0,0,1,.058.178A1.5,1.5,0,0,1,28.314,81.972Z" transform="translate(-18.812 -64.005)"/>
    <path id="Path_39869" data-name="Path 39869" d="M89.978,34.594c0-1.984-.014-3.97.008-5.954a1.748,1.748,0,0,1,.824-1.458,1.692,1.692,0,0,1,.987-.258q2.568-.007,5.135-.005a.814.814,0,0,1,.771.725.941.941,0,0,1-.169.723.724.724,0,0,1-.546.305c-.12.007-.24,0-.36,0q-1.774,0-3.549,0c-.452,0-.9.005-1.356.009-.16,0-.185.021-.186.183-.006,1.04-.013,2.08-.013,3.12,0,1.874.007,3.749.008,5.623,0,1-.005,2-.009,3.005a.837.837,0,0,1-.51.754.736.736,0,0,1-.922-.348,1,1,0,0,1-.134-.507c.01-.45.012-.9.013-1.351,0-.839,0-1.677,0-2.516V34.593Z" transform="translate(-83.514 -26.917)"/>
  </g>
</svg>
