<svg xmlns="http://www.w3.org/2000/svg" xmlns:xlink="http://www.w3.org/1999/xlink" width="26.442" height="16.009" viewBox="0 0 26.442 16.009">
  <defs>
    <clipPath id="clip-path">
      <rect id="Rectangle_19986" data-name="Rectangle 19986" width="26.442" height="16.009" fill="none"/>
    </clipPath>
  </defs>
  <g id="Group_25762" data-name="Group 25762" transform="translate(0 0)">
    <g id="Group_25761" data-name="Group 25761" transform="translate(0 0)" clip-path="url(#clip-path)">
      <path id="Path_43657" data-name="Path 43657" d="M0,11.411c.289-.484.315-.5,1.034-.595v-.273c0-1.576.036-3.151-.012-4.724a3.584,3.584,0,0,1,1.4-2.988,9.763,9.763,0,0,1,3.363-1.75A24.683,24.683,0,0,1,14.52.03a22.99,22.99,0,0,1,5.666.9A10.781,10.781,0,0,1,23.858,2.7a3.792,3.792,0,0,1,1.456,2.041,3.16,3.16,0,0,1,.091.765c.008,1.679.005,3.356.005,5.035v.309c.11,0,.2-.005.293,0a.78.78,0,0,1,.738.782.763.763,0,0,1-.73.759q-1.071.022-2.143,0a.767.767,0,0,1-.741-.778.781.781,0,0,1,.754-.766c.083,0,.168,0,.265,0V8.172l-.352.244a12.938,12.938,0,0,1-4.268,1.756,25.247,25.247,0,0,1-4.953.655c-.083,0-.168.013-.264.021v3.612c.249,0,.488,0,.726,0a.775.775,0,1,1-.005,1.548q-1.511.006-3.021,0a.775.775,0,1,1,0-1.548c.232,0,.465,0,.717,0v-3.62c-.294-.015-.6-.028-.905-.048a20.322,20.322,0,0,1-6.945-1.5c-.68-.3-1.318-.693-1.972-1.042v2.593c.087,0,.172,0,.256,0a.781.781,0,0,1,.754.767.767.767,0,0,1-.741.776c-.714.013-1.43.012-2.143,0A.845.845,0,0,1,0,11.825ZM13.074,9.3a24.863,24.863,0,0,0,5.559-.576,11.307,11.307,0,0,0,3.91-1.544,4.806,4.806,0,0,0,.985-.9,1.27,1.27,0,0,0,0-1.725,3.422,3.422,0,0,0-.514-.541A8.161,8.161,0,0,0,20.266,2.58a20.987,20.987,0,0,0-5.749-1,24.842,24.842,0,0,0-6.693.538A12.12,12.12,0,0,0,4.057,3.551,3.709,3.709,0,0,0,2.813,4.693a1.233,1.233,0,0,0,.008,1.452,3.511,3.511,0,0,0,.6.672A8.29,8.29,0,0,0,6.336,8.312a22.444,22.444,0,0,0,6.738.985" transform="translate(0 0)"/>
      <path id="Path_43658" data-name="Path 43658" d="M11.619,6.988a18.447,18.447,0,0,1-5.014-.625,3.572,3.572,0,0,1-1.371-.688,1.25,1.25,0,0,1,.013-2.041,4.386,4.386,0,0,1,1.921-.829,21.587,21.587,0,0,1,6.591-.378,12.424,12.424,0,0,1,3.184.594,4.243,4.243,0,0,1,1.214.652,1.217,1.217,0,0,1,.015,1.98,4.358,4.358,0,0,1-1.96.865,20.282,20.282,0,0,1-4.593.47M6.572,4.66c1.871,1.023,8.307,1.036,10.245,0C14.88,3.627,8.46,3.637,6.572,4.66" transform="translate(1.532 0.76)"/>
    </g>
  </g>
</svg>
