<svg width="1440" height="674" viewBox="0 0 1440 674" fill="none" xmlns="http://www.w3.org/2000/svg">
<g clip-path="url(#clip0_190_13)" opacity="0.3">
<g filter="url(#filter0_f_190_13)">
<path d="M402.5 -126C402.5 -126 617.745 122.021 479.388 196.026C341.031 270.031 284.722 303.816 217.153 239.464C149.584 175.112 81.437 76.1086 38 74.4996C-5.437 72.8907 -83.6931 141.327 -93.3461 216.941C-102.999 292.555 -102.999 487.22 -102.999 487.22C-102.999 487.22 -64.388 551.572 -41.864 609.489C-19.34 667.406 33.7501 538.701 122.236 588.574C210.722 638.447 172.109 685.102 233.244 707.626C294.379 730.15 363.557 783.24 464.912 751.063C566.267 718.887 572.702 699.583 645.098 683.494C717.494 667.405 688.536 656.144 825.284 667.406C962.032 678.668 1092.35 697.973 1153.48 697.973C1214.62 697.973 1348.15 746.237 1348.15 659.362C1348.15 572.487 1970.5 -480.5 1384.5 436C1304.06 400.607 936.295 416.433 916.99 419.65C1119 318 804.374 353.689 849.42 273.25C894.466 192.811 900.902 236.25 1000.65 150.981C1100.39 65.7116 1111.46 -90.607 1082.5 -126C2057.5 38 931.47 -91.9494 888.032 -85.5134C844.594 -79.0774 402.5 -126 402.5 -126Z" fill="#FF1D48"/>
</g>
</g>
<defs>
<filter id="filter0_f_190_13" x="-403" y="-426" width="2338.84" height="1487.15" filterUnits="userSpaceOnUse" color-interpolation-filters="sRGB">
<feFlood flood-opacity="0" result="BackgroundImageFix"/>
<feBlend mode="normal" in="SourceGraphic" in2="BackgroundImageFix" result="shape"/>
<feGaussianBlur stdDeviation="150" result="effect1_foregroundBlur_190_13"/>
</filter>
<clipPath id="clip0_190_13">
<rect width="1440" height="674" fill="white"/>
</clipPath>
</defs>
</svg>
