<svg width="18" height="12" class="i-icon" viewBox="0 0 18 12" fill="none" xmlns="http://www.w3.org/2000/svg">
<g clip-path="url(#clip0_1500_1424)">
<path d="M17.7936 5.22913C17.499 4.84615 16.3943 3.46154 14.7593 2.23895C12.8149 0.751228 10.8853 0 8.98514 0C7.08497 0 5.15535 0.751228 3.211 2.25368C1.4434 3.62357 0.323927 5.08183 0.206087 5.22913C-0.0590521 5.56792 -0.0590521 6.02455 0.206087 6.37807C0.618526 6.89362 1.72327 8.18985 3.22573 9.36825C5.18481 10.856 7.12916 11.6219 8.99987 11.6219C10.8706 11.6219 12.8297 10.8707 14.774 9.36825C16.5563 7.98363 17.6758 6.5401 17.8084 6.37807C18.0735 6.03928 18.0735 5.58265 17.8084 5.22913H17.7936ZM16.8215 5.78887C16.1586 6.59902 12.8149 10.4583 8.99987 10.4583C5.18481 10.4583 1.84111 6.59902 1.17826 5.8036C2.19463 4.58102 5.3763 1.13421 8.99987 1.13421C12.8149 1.13421 16.1586 4.99345 16.8215 5.8036V5.78887Z" fill="#000"/>
<path d="M9 2.01758C6.90835 2.01758 5.2144 3.71152 5.2144 5.80318C5.2144 7.89483 6.90835 9.58877 9 9.58877C11.0917 9.58877 12.7856 7.89483 12.7856 5.80318C12.7856 3.71152 11.0917 2.01758 9 2.01758ZM9 8.45457C7.54173 8.45457 6.34861 7.26144 6.34861 5.80318C6.34861 4.34491 7.54173 3.15178 9 3.15178C10.4583 3.15178 11.6514 4.34491 11.6514 5.80318C11.6514 7.26144 10.4583 8.45457 9 8.45457Z" fill="#000"/>
</g>
</svg>