<svg xmlns="http://www.w3.org/2000/svg" width="24" height="24" viewBox="0 0 24 24">
  <g id="vuesax_linear_document-text" data-name="vuesax/linear/document-text" transform="translate(-492 -252)">
    <g id="document-text">
      <path id="Vector" d="M5-.75h8A5.686,5.686,0,0,1,17.362.865,5.869,5.869,0,0,1,18.75,5V15a5.869,5.869,0,0,1-1.388,4.135A5.686,5.686,0,0,1,13,20.75H5A5.686,5.686,0,0,1,.638,19.135,5.869,5.869,0,0,1-.75,15V5A5.869,5.869,0,0,1,.638.865,5.686,5.686,0,0,1,5-.75Zm8,20a4.271,4.271,0,0,0,3.263-1.135A4.442,4.442,0,0,0,17.25,15V5a4.442,4.442,0,0,0-.987-3.115A4.271,4.271,0,0,0,13,.75H5A4.271,4.271,0,0,0,1.737,1.885,4.442,4.442,0,0,0,.75,5V15a4.442,4.442,0,0,0,.987,3.115A4.271,4.271,0,0,0,5,19.25Z" transform="translate(495 254)"/>
      <path id="Vector-2" data-name="Vector" d="M4,4.75H2A2.753,2.753,0,0,1-.75,2V0A.75.75,0,0,1,0-.75.75.75,0,0,1,.75,0V2A1.251,1.251,0,0,0,2,3.25H4a.75.75,0,0,1,0,1.5Z" transform="translate(506.5 256.5)"/>
      <path id="Vector-3" data-name="Vector" d="M4,.75H0A.75.75,0,0,1-.75,0,.75.75,0,0,1,0-.75H4A.75.75,0,0,1,4.75,0,.75.75,0,0,1,4,.75Z" transform="translate(500 265)"/>
      <path id="Vector-4" data-name="Vector" d="M8,.75H0A.75.75,0,0,1-.75,0,.75.75,0,0,1,0-.75H8A.75.75,0,0,1,8.75,0,.75.75,0,0,1,8,.75Z" transform="translate(500 269)"/>
      <path id="Vector-5" data-name="Vector" d="M0,0H24V24H0Z" transform="translate(492 252)" fill="none" opacity="0"/>
    </g>
  </g>
</svg>
