<svg xmlns="http://www.w3.org/2000/svg" width="15.704" height="17.5" viewBox="0 0 15.704 17.5">
  <g id="Group_26031" data-name="Group 26031" opacity="0.8">
    <path id="Path_43706" data-name="Path 43706" d="M14.833,3.392A1.876,1.876,0,0,0,13.155,2.25a1.845,1.845,0,0,0-1.578.963l-.7,1.2-.7-1.2a1.847,1.847,0,0,0-1.586-.963A1.874,1.874,0,0,0,6.915,3.391a2.417,2.417,0,0,0,.094,2.219l.219.376a.573.573,0,0,0,.492.3.538.538,0,0,0,.326-.113A.732.732,0,0,0,8.21,5.24L7.99,4.863a.9.9,0,0,1-.035-.838.7.7,0,0,1,1.234-.067l1.086,1.859v13.93h1.18V5.845l1.1-1.885a.7.7,0,0,1,1.234.067.9.9,0,0,1-.035.839l-.219.376a.733.733,0,0,0,.164.933.538.538,0,0,0,.326.113.573.573,0,0,0,.492-.3l.219-.376a2.419,2.419,0,0,0,.094-2.22Z" transform="translate(-3.013 -2.249)"/>
    <path id="Path_43707" data-name="Path 43707" d="M17.384,5.25H4.82A1.546,1.546,0,0,0,3.25,6.766v2.6a1.511,1.511,0,0,0,.9,1.363V17.16a2.428,2.428,0,0,0,2.468,2.382h8.974a2.428,2.428,0,0,0,2.468-2.382V10.728a1.511,1.511,0,0,0,.9-1.363v-2.6a1.546,1.546,0,0,0-1.57-1.516ZM4.6,6.766a.221.221,0,0,1,.224-.217H17.384a.221.221,0,0,1,.224.217v2.6a.221.221,0,0,1-.224.217H4.82A.221.221,0,0,1,4.6,9.364ZM15.589,18.243H6.615A1.1,1.1,0,0,1,5.493,17.16V10.88H16.711v6.28A1.1,1.1,0,0,1,15.589,18.243Z" transform="translate(-3.25 -2.042)"/>
  </g>
</svg>
