<svg id="Component_86_11" data-name="Component 86 – 11" xmlns="http://www.w3.org/2000/svg" width="170" height="60" viewBox="0 0 170 60">
  <rect id="Rectangle_19532" data-name="Rectangle 19532" width="170" height="60" rx="16" fill="#9b32e0"/>
  <g id="Group_24534" data-name="Group 24534" transform="translate(19231 4797)">
    <rect id="Rectangle_19530" data-name="Rectangle 19530" width="170" height="60" rx="16" transform="translate(-19231 -4797)"/>
    <g id="Group_24536" data-name="Group 24536" transform="translate(-19219 -4783)">
      <g id="Group_24537" data-name="Group 24537" transform="translate(3)">
        <path id="Path_43147" data-name="Path 43147" d="M1.235,1.277c.546.547,1.087,1.1,1.638,1.64Q8.99,8.929,15.11,14.939c.056.056.108.116.15.16-.334.348-.65.692-.982,1.019Q7.835,22.456,1.389,28.788c-.056.056-.1.122-.154.182H1.127c-.014-.02-.022-.049-.041-.061A2.233,2.233,0,0,1,0,26.817Q.014,15.134,0,3.451A2.283,2.283,0,0,1,1.181,1.277Z" fill="#fff"/>
        <path id="Path_43148" data-name="Path 43148" d="M19.685,19.611,4.565,28.162l-.038-.047c3.982-3.933,7.964-7.867,11.991-11.847l3.167,3.343" fill="#fff"/>
        <path id="Path_43149" data-name="Path 43149" d="M19.691,10.646l-3.169,3.343L4.568,2.179l.042-.061,15.081,8.528" fill="#fff"/>
        <path id="Path_43150" data-name="Path 43150" d="M17.779,15.219c.418-.459.783-.894,1.183-1.294.719-.719,1.461-1.414,2.187-2.127a.252.252,0,0,1,.364-.055c.971.564,1.956,1.1,2.923,1.676a1.883,1.883,0,0,1,.909,1.761,1.844,1.844,0,0,1-.938,1.711c-.948.531-1.9,1.056-2.844,1.595a.3.3,0,0,1-.434-.048c-1.06-1.039-2.131-2.068-3.2-3.1a1.392,1.392,0,0,0-.15-.121" fill="#fff"/>
      </g>
      <path id="Path_43151" data-name="Path 43151" d="M43.815,2.393H42.573A2.534,2.534,0,0,0,40.157.934a2.884,2.884,0,0,0-2.928,3.122,2.88,2.88,0,0,0,2.928,3.111,2.678,2.678,0,0,0,2.792-2.575H39.781V3.749h4.274v.8a3.853,3.853,0,0,1-3.9,3.555,3.909,3.909,0,0,1-3.988-4.046A3.918,3.918,0,0,1,40.157,0a3.755,3.755,0,0,1,3.658,2.393" fill="#fff"/>
      <path id="Path_43152" data-name="Path 43152" d="M49.7.934H46.462V3.589h2.9v.855h-2.9V7.179H49.7v.854H45.425V.079H49.7Z" fill="#fff"/>
      <path id="Path_43153" data-name="Path 43153" d="M50.783.091h5.379V.934H54v7.1H52.959V.934H50.783Z" fill="#fff"/>
      <rect id="Rectangle_19525" data-name="Rectangle 19525" width="1.037" height="7.942" transform="translate(60.483 0.091)" fill="#fff"/>
      <path id="Path_43154" data-name="Path 43154" d="M62.8.091h5.378V.934H66.011v7.1H64.973V.934H62.8Z" fill="#fff"/>
      <path id="Path_43155" data-name="Path 43155" d="M76.1,8.113A3.918,3.918,0,0,1,72.11,4.056a3.989,3.989,0,1,1,7.977,0A3.911,3.911,0,0,1,76.1,8.113m0-.9a2.9,2.9,0,0,0,2.928-3.157,2.937,2.937,0,1,0-5.857,0A2.9,2.9,0,0,0,76.1,7.213" fill="#fff"/>
      <path id="Path_43156" data-name="Path 43156" d="M87.7.079V8.033H86.664l-4.17-6.324V8.033H81.458V.079h1.036l4.17,6.313V.079Z" fill="#fff"/>
      <path id="Path_43157" data-name="Path 43157" d="M49.678,16.564H47a3.869,3.869,0,0,0-3.642-2.056,4.552,4.552,0,0,0-4.66,4.914,4.569,4.569,0,0,0,4.66,4.934A4.121,4.121,0,0,0,47.7,20.577h-5.11V18.8h7.5v1.744a6.709,6.709,0,0,1-6.735,5.834,6.794,6.794,0,0,1-6.95-6.951,6.805,6.805,0,0,1,6.95-6.95,6.487,6.487,0,0,1,6.324,4.092" fill="#fff"/>
      <path id="Path_43158" data-name="Path 43158" d="M56.958,26.431a5.258,5.258,0,0,1-5.4-5.579,5.5,5.5,0,1,1,11,0,5.4,5.4,0,0,1-5.6,5.579m0-1.938a3.323,3.323,0,0,0,3.308-3.641c0-2.448-1.585-3.623-3.25-3.623-1.683,0-3.192,1.175-3.192,3.623s1.449,3.641,3.134,3.641" transform="translate(-1)" fill="#fff"/>
      <path id="Path_43159" data-name="Path 43159" d="M69.446,26.431a5.259,5.259,0,0,1-5.4-5.579,5.5,5.5,0,1,1,11,0,5.4,5.4,0,0,1-5.6,5.579m0-1.938a3.323,3.323,0,0,0,3.308-3.641c0-2.448-1.584-3.623-3.249-3.623-1.683,0-3.192,1.175-3.192,3.623s1.449,3.641,3.133,3.641" transform="translate(-2)" fill="#fff"/>
      <path id="Path_43160" data-name="Path 43160" d="M81.6,15.291a4.574,4.574,0,0,1,3.741,1.742V15.468h2.251V26.431a4.892,4.892,0,0,1-5.267,5.15c-2.878,0-5.012-1.429-5.286-3.818h2.213a3.006,3.006,0,0,0,3.073,1.88,2.875,2.875,0,0,0,3.016-3.212v-1.8a4.635,4.635,0,0,1-3.741,1.8c-2.839,0-5.09-2.291-5.09-5.619s2.251-5.521,5.09-5.521m.471,1.938a3.31,3.31,0,0,0-3.27,3.583,3.4,3.4,0,0,0,3.27,3.681,3.352,3.352,0,0,0,3.27-3.641,3.346,3.346,0,0,0-3.27-3.623" transform="translate(-3)" fill="#fff"/>
      <rect id="Rectangle_19526" data-name="Rectangle 19526" width="2.232" height="14.488" transform="translate(86.526 11.768)" fill="#fff"/>
      <path id="Path_43161" data-name="Path 43161" d="M100.334,26.431a5.234,5.234,0,0,1-5.385-5.579c0-3.388,2.193-5.561,5.385-5.561A5.031,5.031,0,0,1,105.58,20.6a6.988,6.988,0,0,1-.078,1.1H97.259a2.966,2.966,0,0,0,3.075,2.857,2.611,2.611,0,0,0,2.544-1.507h2.408a4.927,4.927,0,0,1-4.952,3.387m-3.055-6.539h5.972a2.8,2.8,0,0,0-3.016-2.722,2.938,2.938,0,0,0-2.956,2.722" transform="translate(-5)" fill="#fff"/>
      <path id="Path_43162" data-name="Path 43162" d="M117.558,20.734h-2.466v5.521h-2.233V12.648h4.7c3.23,0,4.816,1.84,4.816,4.054,0,1.937-1.272,4.032-4.816,4.032m0-1.821c1.742,0,2.526-.842,2.526-2.211,0-1.411-.784-2.233-2.526-2.233h-2.466v4.444Z" transform="translate(-7)" fill="#fff"/>
      <rect id="Rectangle_19527" data-name="Rectangle 19527" width="2.232" height="14.488" transform="translate(116.505 11.768)" fill="#fff"/>
      <path id="Path_43163" data-name="Path 43163" d="M134.019,15.291a4.593,4.593,0,0,1,3.74,1.742V15.468h2.252V26.255h-2.252V24.649a4.639,4.639,0,0,1-3.778,1.782c-2.8,0-5.052-2.291-5.052-5.619s2.253-5.521,5.09-5.521m.471,1.938a3.31,3.31,0,0,0-3.27,3.583,3.4,3.4,0,0,0,3.27,3.681,3.351,3.351,0,0,0,3.269-3.641,3.345,3.345,0,0,0-3.269-3.623" transform="translate(-9)" fill="#fff"/>
      <path id="Path_43164" data-name="Path 43164" d="M150.345,15.468h2.31l-6.618,15.858h-2.31l2.193-5.246-4.248-10.612h2.486l3.035,8.223Z" transform="translate(-9)" fill="#fff"/>
    </g>
  </g>
</svg>
