<svg id="headphone" xmlns="http://www.w3.org/2000/svg" width="22" height="22" viewBox="0 0 22 22">
  <path id="Vector" d="M3.174,15.07V12.393a1.687,1.687,0,1,1,3.373,0v2.576a3.3,3.3,0,0,1-3.272,3.273A3.3,3.3,0,0,1,0,14.969V9.323A9.086,9.086,0,0,1,9.123,0a9.2,9.2,0,0,1,9.212,9.222v5.647a3.272,3.272,0,1,1-6.545,0V12.293a1.687,1.687,0,1,1,3.373,0V15.07" transform="translate(1.831 1.879)" fill="none" stroke="#000" stroke-linecap="round" stroke-linejoin="round" stroke-width="1.3"/>
  <path id="Vector-2" data-name="Vector" d="M0,0H22V22H0Z" fill="none" opacity="0"/>
</svg>
