<svg id="heart" xmlns="http://www.w3.org/2000/svg" width="16" height="16" viewBox="0 0 16 16">
  <g id="Vector" transform="translate(1.333 2.067)" fill="none" stroke-linecap="round" stroke-linejoin="round">
    <path d="M7.08,11.807a1.454,1.454,0,0,1-.827,0C4.32,11.147,0,8.393,0,3.727A3.716,3.716,0,0,1,3.707,0a3.677,3.677,0,0,1,2.96,1.493,3.7,3.7,0,0,1,6.667,2.233C13.333,8.393,9.013,11.147,7.08,11.807Z" stroke="none"/>
    <path d="M 6.666665077209473 10.66666126251221 C 6.686051368713379 10.66666126251221 6.701574802398682 10.66551303863525 6.71136474609375 10.66445541381836 C 7.539669513702393 10.37737369537354 8.908645629882812 9.623880386352539 10.07289505004883 8.431001663208008 C 11.44010543823242 7.030181884765625 12.13333511352539 5.44741153717041 12.13333511352539 3.726661682128906 C 12.13333511352539 2.333451747894287 11.00884532928467 1.20000171661377 9.626665115356445 1.20000171661377 C 8.845564842224121 1.20000171661377 8.099164962768555 1.577121734619141 7.630054950714111 2.208791732788086 C 7.403665065765381 2.513621807098389 7.046365261077881 2.693331718444824 6.666665077209473 2.693331718444824 C 6.286964893341064 2.693331718444824 5.929665088653564 2.513621807098389 5.703275203704834 2.208791732788086 C 5.227165222167969 1.567691683769226 4.499424934387207 1.20000171661377 3.7066650390625 1.20000171661377 C 2.324485063552856 1.20000171661377 1.200005054473877 2.333451747894287 1.200005054473877 3.726661682128906 C 1.200005054473877 5.44741153717041 1.893235087394714 7.030181884765625 3.260445117950439 8.431001663208008 C 4.424694061279297 9.623880386352539 5.793661117553711 10.37737369537354 6.621965408325195 10.66445541381836 C 6.631755352020264 10.66551303863525 6.647278785705566 10.66666126251221 6.666665077209473 10.66666126251221 M 6.666665077209473 11.86666202545166 C 6.516664981842041 11.86666202545166 6.366664886474609 11.84666156768799 6.253334999084473 11.80666160583496 C 4.320004940032959 11.14666175842285 5.077209607406985e-06 8.393331527709961 5.077209607406985e-06 3.726661682128906 C 5.077209607406985e-06 1.666661739349365 1.659995079040527 1.718444877951697e-06 3.7066650390625 1.718444877951697e-06 C 4.919995307922363 1.718444877951697e-06 5.993335247039795 0.5866717100143433 6.666665077209473 1.493331670761108 C 7.33999490737915 0.5866717100143433 8.420004844665527 1.718444877951697e-06 9.626665115356445 1.718444877951697e-06 C 11.67333507537842 1.718444877951697e-06 13.33333492279053 1.666661739349365 13.33333492279053 3.726661682128906 C 13.33333492279053 8.393331527709961 9.013335227966309 11.14666175842285 7.079995155334473 11.80666160583496 C 6.966665267944336 11.84666156768799 6.816665172576904 11.86666202545166 6.666665077209473 11.86666202545166 Z" stroke="none" fill="#000"/>
  </g>
  <path id="Vector-2" data-name="Vector" d="M0,0H16V16H0Z" fill="none" opacity="0"/>
</svg>
