<svg id="Group_24291" data-name="Group 24291" xmlns="http://www.w3.org/2000/svg" width="50.57" height="45.021" viewBox="0 0 50.57 45.021">
  <g id="Group_24290" data-name="Group 24290" transform="translate(0 0)">
    <g id="Group_24444" data-name="Group 24444" transform="translate(0 0)">
      <path id="Path_39867" data-name="Path 39867" d="M120.648,79.544a4.88,4.88,0,0,1,.585-2.308q1.1-2.182,2.2-4.366,1.45-2.87,2.905-5.738c.773-1.534,1.537-3.071,2.31-4.605q1.465-2.9,2.938-5.8c.5-.986.979-1.984,1.517-2.947a3.57,3.57,0,0,1,2.363-1.768,3.438,3.438,0,0,1,2.773.585q3,1.992,6.008,3.972c1.441.953,2.889,1.895,4.316,2.868a4.336,4.336,0,0,1,1.89,3.569,4.984,4.984,0,0,1-.589,2.563c-.981,1.907-1.933,3.829-2.9,5.742l-3.07,6.1-2.508,4.983L138.255,88.6a3.966,3.966,0,0,1-2.084,1.978,3.149,3.149,0,0,1-2.928-.226c-.726-.432-1.423-.915-2.131-1.382q-1.823-1.2-3.641-2.409c-.642-.425-1.278-.859-1.923-1.283-.934-.614-1.87-1.222-2.805-1.835a4.4,4.4,0,0,1-1.994-3.028C120.7,80.134,120.681,79.837,120.648,79.544Zm14.326,7.284a5.087,5.087,0,0,0,.312-.463q.927-1.812,1.839-3.632.988-1.964,1.971-3.931c.408-.811.824-1.619,1.231-2.43.54-1.075,1.074-2.156,1.615-3.231.577-1.143,1.16-2.281,1.739-3.422q1.031-2.036,2.055-4.074c.365-.724.73-1.446,1.087-2.173.149-.3.108-.421-.163-.606-.369-.251-.734-.506-1.1-.751q-3.382-2.241-6.769-4.481-1.128-.747-2.257-1.494c-.357-.235-.453-.208-.654.176-.167.32-.318.65-.481.971-.891,1.756-1.79,3.509-2.675,5.269-.85,1.691-1.684,3.391-2.534,5.082-.887,1.77-1.784,3.534-2.677,5.3q-1.1,2.182-2.2,4.366c-.306.606-.616,1.208-.922,1.814-.224.446-.192.585.2.847.261.176.528.342.791.517q1.492.99,2.983,1.984,2.826,1.874,5.654,3.744C134.308,86.411,134.614,86.6,134.975,86.828Z" transform="translate(-99.887 -46.827)"/>
      <path id="Path_39868" data-name="Path 39868" d="M40.2,99.411a1.912,1.912,0,0,1-.919,1.806c-1.007.726-2,1.478-3.021,2.177a3.392,3.392,0,0,1-3.9-.053,3.921,3.921,0,0,1-1.317-1.527c-.663-1.284-1.315-2.575-1.976-3.859-.434-.844-.881-1.68-1.315-2.526-.685-1.333-1.362-2.673-2.045-4.006-.536-1.046-1.079-2.09-1.613-3.138q-2.049-4-4.1-8.008c-.241-.471-.5-.934-.714-1.415a4.6,4.6,0,0,1,.522-4.887,5.136,5.136,0,0,1,1.388-1.156c.934-.622,1.863-1.25,2.8-1.876,1.266-.848,2.538-1.686,3.8-2.542a1.59,1.59,0,0,1,1.735-.19,1.87,1.87,0,0,1,1.04,1.641,2.024,2.024,0,0,1-.946,1.935q-2.086,1.4-4.171,2.8-1.437.969-2.864,1.951c-.228.157-.263.263-.137.516.449.9.907,1.79,1.364,2.683q.9,1.758,1.8,3.513c.569,1.1,1.146,2.2,1.713,3.3.434.844.856,1.694,1.289,2.538.569,1.113,1.146,2.224,1.715,3.337.7,1.372,1.4,2.75,2.1,4.12q.813,1.584,1.647,3.156c.175.33.265.353.575.13.824-.591,1.641-1.193,2.461-1.79.114-.084.234-.155.345-.243a1.663,1.663,0,0,1,2.614.752,1.763,1.763,0,0,1,.13.4A3.386,3.386,0,0,1,40.2,99.411Z" transform="translate(-18.812 -58.966)"/>
      <path id="Path_39869" data-name="Path 39869" d="M90,44.2c0-4.467-.031-8.936.018-13.4a3.935,3.935,0,0,1,1.855-3.282A3.809,3.809,0,0,1,94.1,26.93q5.78-.015,11.56-.012a1.833,1.833,0,0,1,1.735,1.631,2.118,2.118,0,0,1-.381,1.627,1.629,1.629,0,0,1-1.229.687c-.269.016-.54.006-.811.006q-3.994.006-7.988.01c-1.017,0-2.035.012-3.052.02-.361,0-.416.047-.418.412-.014,2.341-.029,4.683-.029,7.024,0,4.218.016,8.438.018,12.657,0,2.255-.012,4.51-.02,6.765a1.883,1.883,0,0,1-1.148,1.7,1.656,1.656,0,0,1-2.075-.783,2.24,2.24,0,0,1-.3-1.142c.022-1.013.026-2.029.029-3.042,0-1.888,0-3.776,0-5.664V44.195A.04.04,0,0,0,90,44.2Z" transform="translate(-75.451 -26.917)"/>
    </g>
  </g>
</svg>
