<svg xmlns="http://www.w3.org/2000/svg" width="16" height="16" viewBox="0 0 16 16">
  <path id="Path_24110" data-name="Path 24110" d="M25,17c-2.173,0-2.445.009-3.3.048a5.871,5.871,0,0,0-1.942.372,4.092,4.092,0,0,0-2.341,2.34,5.844,5.844,0,0,0-.372,1.942C17.01,22.555,17,22.827,17,25s.01,2.445.048,3.3a5.879,5.879,0,0,0,.372,1.942,4.094,4.094,0,0,0,2.339,2.341,5.876,5.876,0,0,0,1.942.372c.853.039,1.126.048,3.3.048s2.445-.01,3.3-.048a5.879,5.879,0,0,0,1.943-.372,4.1,4.1,0,0,0,2.34-2.34,5.93,5.93,0,0,0,.372-1.942c.038-.853.048-1.125.048-3.3s-.01-2.445-.048-3.3a5.927,5.927,0,0,0-.372-1.942,4.093,4.093,0,0,0-2.34-2.34,5.889,5.889,0,0,0-1.943-.372C27.443,17.009,27.172,17,25,17Zm-.718,1.442H25c2.136,0,2.389.008,3.233.046a4.429,4.429,0,0,1,1.485.276,2.651,2.651,0,0,1,1.518,1.518,4.42,4.42,0,0,1,.276,1.485c.038.843.047,1.1.047,3.232s-.008,2.388-.047,3.232a4.425,4.425,0,0,1-.276,1.485,2.653,2.653,0,0,1-1.518,1.517,4.413,4.413,0,0,1-1.485.276c-.843.038-1.1.047-3.233.047s-2.389-.008-3.233-.047a4.438,4.438,0,0,1-1.486-.276,2.65,2.65,0,0,1-1.519-1.518,4.42,4.42,0,0,1-.276-1.485c-.038-.843-.046-1.1-.046-3.233s.008-2.388.046-3.232a4.429,4.429,0,0,1,.276-1.485,2.651,2.651,0,0,1,1.519-1.519,4.419,4.419,0,0,1,1.486-.276c.738-.033,1.024-.043,2.515-.045Zm4.988,1.328a.96.96,0,1,0,.96.96.96.96,0,0,0-.96-.96ZM25,20.892A4.108,4.108,0,1,0,29.108,25,4.109,4.109,0,0,0,25,20.892Zm0,1.442A2.667,2.667,0,1,1,22.334,25,2.667,2.667,0,0,1,25,22.333Z" transform="translate(-17 -17)" fill="#fff"/>
</svg>
