<svg xmlns="http://www.w3.org/2000/svg" width="212" height="132" viewBox="0 0 212 132">
  <g id="Group_28059" data-name="Group 28059" transform="translate(-130 -2130)">
    <rect id="Rectangle_19693" data-name="Rectangle 19693" width="212" height="132" rx="24" transform="translate(130 2130)" fill="#d81f26"/>
    <path id="Netflix_2015_logo" d="M21.413,39.373c-2.343.411-4.726.535-7.192.863L6.7,18.207V41.182c-2.343.247-4.48.575-6.7.9V0H6.247L14.8,23.879V0h6.617V39.373ZM34.359,15.412c2.548,0,6.453-.123,8.8-.123v6.576c-2.918,0-6.329,0-8.8.123V31.77c3.864-.247,7.727-.576,11.631-.7V37.4L27.783,38.839V0H45.99V6.576H34.359v8.836ZM70.445,6.576H63.622V36.825c-2.219,0-4.439,0-6.576.082V6.576H50.224V0H70.445V6.576ZM81.13,14.96h9v6.576h-9V36.455H74.677V0H93.049V6.576H81.13V14.96Zm22.6,15.741c3.74.082,7.521.37,11.179.575V37.77c-5.877-.37-11.754-.74-17.755-.863V0h6.576V30.7Zm16.728,7.521c2.1.123,4.315.247,6.453.493V0h-6.453ZM155.726,0l-8.343,20.016,8.343,22.07c-2.466-.329-4.932-.781-7.4-1.192L143.6,28.729l-4.808,11.179c-2.384-.411-4.686-.535-7.069-.863l8.466-19.276L132.546,0h7.069l4.315,11.056L148.534,0h7.192Z" transform="translate(158.148 2175.283)" fill="#fff"/>
  </g>
</svg>
