<svg xmlns="http://www.w3.org/2000/svg" xmlns:xlink="http://www.w3.org/1999/xlink" width="40" height="40" viewBox="0 0 40 40">
  <defs>
    <clipPath id="clip-path">
      <rect id="Rectangle_20864" data-name="Rectangle 20864" width="40" height="40" rx="20" fill="#fff"/>
    </clipPath>
  </defs>
  <g id="om" clip-path="url(#clip-path)">
    <g id="Group_28452" data-name="Group 28452">
      <path id="Path_44232" data-name="Path 44232" d="M-.273-1.8H57.886V44.283H-.273Z" fill="#ef2d29" fill-rule="evenodd"/>
      <path id="Path_44233" data-name="Path 44233" d="M14.459,26.441H58.822V43.75H14.459Z" fill="#009025" fill-rule="evenodd"/>
      <path id="Path_44234" data-name="Path 44234" d="M14.459-2.95H61.24V12.883H14.451Z" fill="#fff" fill-rule="evenodd"/>
      <path id="Path_44235" data-name="Path 44235" d="M11.594,5.8h-1.9a.18.18,0,0,0-.186.174v.908a.18.18,0,0,0,.186.174h1.9a.18.18,0,0,0,.186-.174V5.973A.18.18,0,0,0,11.594,5.8Z" fill="red" stroke="#fff" stroke-width="0.1"/>
      <path id="Path_44236" data-name="Path 44236" d="M11.546,5.852h-1.8a.169.169,0,0,0-.176.161v.831a.169.169,0,0,0,.176.161h1.8a.169.169,0,0,0,.176-.161V6.013A.169.169,0,0,0,11.546,5.852Z" fill="red" stroke="#fff" stroke-width="0.1"/>
      <path id="Path_44237" data-name="Path 44237" d="M10.569,6.165l.109,0,0,.05.09.046.069-.058.084.046-.078.05.019.069.1,0v.091l-.078,0-.04.057.09.065-.069.054-.075-.057-.109.022.005.084-.119.009-.016-.081-.1-.042-.055.057-.084-.042.049-.065-.059-.042h-.084l0-.119.084.008.059-.069-.069-.054.089-.061.064.049.109-.016Z" fill="red" stroke="#fff" stroke-width="0.1" fill-rule="evenodd"/>
      <path id="Path_44238" data-name="Path 44238" d="M10.6,6.517a.1.1,0,1,0-.12-.1A.112.112,0,0,0,10.6,6.517Z" fill="red" stroke="#fff" stroke-width="0.1"/>
      <path id="Path_44239" data-name="Path 44239" d="M9.858,5.9l-.176.157Zm.117,0L9.8,6.061Zm.115,0-.174.157Zm.117,0-.174.157Zm.117,0-.174.157Zm.117,0-.174.157Zm.117,0-.174.157Zm.117,0-.174.157Zm.117,0-.176.157Zm.117,0-.177.157Zm.113,0-.174.157Zm.117,0-.174.157Zm-.465,0-.173.157Zm.584,0-.174.157Zm.117,0-.174.157Zm.117,0-.174.157Zm.117,0-.174.157Zm-.174,0,.174.157Zm-.117,0,.174.157Zm-.117,0,.174.157Zm-.117,0,.174.157Zm-.117,0,.174.157Zm-.117,0,.174.157Zm-.117,0,.176.157Zm-.117,0,.174.157Zm-.118,0,.176.157Zm-.115,0,.174.157Zm-.117,0,.174.157Zm-.117,0,.174.157Zm.467,0,.174.157Zm-.582,0,.173.157Zm-.118,0,.176.157ZM9.8,5.9l.176.157Zm-.117,0,.178.157Zm.178.89-.174.158Zm.115,0L9.8,6.952Zm.118,0-.176.158Zm.115,0-.174.158Zm.117,0-.174.158Zm.117,0-.174.158Zm.117,0-.173.158Zm.117,0-.174.158Zm.117,0-.176.158Zm.115,0-.176.158Zm.12,0-.176.158Zm.115,0-.174.158Zm-.467,0-.174.158Zm.582,0-.174.158Zm.117,0-.174.158Zm.117,0-.174.158Zm.117,0-.174.158Zm-.174,0,.174.158Zm-.117,0,.174.158Zm-.117,0,.174.158Zm-.117,0,.174.158Zm-.117,0,.174.158Zm-.117,0,.176.158Zm-.118,0,.176.158Zm-.115,0,.174.158Zm-.115,0,.174.158Zm-.117,0,.174.158Zm-.117,0,.174.158Zm-.117,0,.174.158Zm.467,0,.174.158Zm-.582,0,.173.158Zm-.118,0,.176.158Zm-.117,0,.176.158Zm-.115,0,.174.158Z" fill="red" fill-rule="evenodd"/>
      <path id="Path_44240" data-name="Path 44240" d="M9.858,5.9l-.176.157M9.975,5.9,9.8,6.061M10.09,5.9l-.174.157m.291-.157-.174.157m.291-.157-.174.157M10.44,5.9l-.174.157m.291-.157-.174.157m.291-.157-.174.157.173-.157m.118,0-.176.157m.293-.157-.177.157M11.02,5.9l-.174.157m.291-.157-.174.157m.293-.157-.174.157m.291-.157-.174.157m.291-.157-.174.157m.291-.157-.174.157m0-.157.174.157M11.314,5.9l.174.157M11.2,5.9l.174.157M11.081,5.9l.174.157M10.964,5.9l.174.157M10.847,5.9l.174.157M10.731,5.9l.176.157M10.614,5.9l.174.157M10.5,5.9l.176.157M10.381,5.9l.174.157M10.264,5.9l.174.157M10.147,5.9l.174.157M10.032,5.9l.173.157M9.914,5.9l.176.157M9.8,5.9l.176.157M9.681,5.9l.178.157m0,.733-.174.158m.289-.158L9.8,6.952m.294-.158-.176.158m.291-.158-.174.158m.291-.158-.174.158m.291-.158-.174.158m.291-.158-.173.158m.289-.158-.174.158m.291-.158-.176.158m.291-.158-.176.158m.3-.158-.176.158m.291-.158-.174.158m.289-.158-.174.158m.291-.158-.174.158m.291-.158-.174.158m.291-.158-.174.158m0-.158.174.158m-.291-.158.174.158M11.2,6.794l.174.158m-.291-.158.174.158m-.291-.158.174.158m-.291-.158.176.158m-.294-.158.176.158m-.291-.158.174.158M10.5,6.794l.174.158m-.291-.158.174.158m-.291-.158.174.158m-.291-.158.174.158m.293-.158.174.158m-.756-.158.173.158m-.291-.158.176.158M9.8,6.794l.176.158m-.291-.158.174.158" fill="none" stroke="#fff" stroke-width="0.1"/>
      <path id="Path_44241" data-name="Path 44241" d="M3.958,5.749h-1.9a.18.18,0,0,0-.186.174v.908a.18.18,0,0,0,.186.174h1.9a.18.18,0,0,0,.186-.174V5.924A.18.18,0,0,0,3.958,5.749Z" fill="red" stroke="#fff" stroke-width="0.1"/>
      <path id="Path_44242" data-name="Path 44242" d="M3.911,5.8h-1.8a.169.169,0,0,0-.176.161v.831a.169.169,0,0,0,.176.161h1.8a.169.169,0,0,0,.176-.161V5.963A.169.169,0,0,0,3.911,5.8Z" fill="red" stroke="#fff" stroke-width="0.1"/>
      <path id="Path_44243" data-name="Path 44243" d="M2.934,6.115l.109,0,0,.05.09.046.069-.058L3.29,6.2l-.078.05.019.069.1,0v.091l-.078,0-.04.057.09.065-.069.054-.075-.057-.109.022.006.084-.119.009-.016-.081-.1-.042-.055.057-.084-.042.049-.065-.059-.042H2.587l0-.119.084.008.059-.069-.069-.054.09-.061.064.049.109-.016Z" fill="red" stroke="#fff" stroke-width="0.1" fill-rule="evenodd"/>
      <path id="Path_44244" data-name="Path 44244" d="M2.965,6.467a.1.1,0,1,0-.12-.1A.112.112,0,0,0,2.965,6.467Z" fill="red" stroke="#fff" stroke-width="0.1"/>
      <path id="Path_44245" data-name="Path 44245" d="M2.223,5.854l-.176.157Zm.117,0-.176.157Zm.115,0-.174.157Zm.117,0L2.4,6.011Zm.117,0-.174.157Zm.117,0-.174.157Zm.117,0-.174.157Zm.117,0-.174.157Zm.117,0-.176.157Zm.117,0-.178.157Zm.113,0-.174.157Zm.117,0-.174.157Zm-.465,0-.173.157Zm.583,0-.174.157Zm.117,0-.174.157Zm.117,0-.174.157Zm.117,0L3.8,6.011Zm-.174,0,.174.157Zm-.117,0,.174.157Zm-.117,0,.174.157Zm-.117,0,.174.157Zm-.117,0,.174.157Zm-.117,0,.174.157Zm-.117,0,.176.157Zm-.117,0,.174.157Zm-.118,0,.176.157Zm-.115,0,.174.157Zm-.117,0,.174.157Zm-.117,0,.174.157Zm.467,0,.174.157Zm-.582,0,.173.157Zm-.118,0,.176.157Zm-.117,0,.176.157Zm-.117,0,.178.157Zm.178.89L2.049,6.9Zm.115,0L2.162,6.9Zm.118,0L2.28,6.9Zm.115,0L2.4,6.9Zm.117,0L2.514,6.9Zm.117,0L2.63,6.9Zm.117,0L2.749,6.9Zm.117,0L2.864,6.9Zm.117,0L2.979,6.9Zm.115,0L3.094,6.9Zm.12,0L3.214,6.9Zm.115,0L3.331,6.9Zm-.467,0L2.864,6.9Zm.582,0L3.446,6.9Zm.117,0L3.562,6.9Zm.117,0L3.679,6.9Zm.117,0L3.8,6.9Zm-.174,0L3.97,6.9Zm-.117,0,.174.158Zm-.117,0,.174.158Zm-.117,0L3.62,6.9Zm-.117,0L3.5,6.9Zm-.117,0,.176.158Zm-.118,0L3.27,6.9Zm-.115,0,.174.158Zm-.115,0,.174.158Zm-.117,0,.174.158Zm-.117,0L2.8,6.9Zm-.117,0,.174.158Zm.467,0,.174.158Zm-.582,0,.173.158Zm-.118,0,.176.158Zm-.117,0,.176.158Zm-.115,0,.174.158Z" fill="red" fill-rule="evenodd"/>
      <path id="Path_44246" data-name="Path 44246" d="M2.223,5.854l-.176.157m.293-.157-.176.157m.291-.157-.174.157m.291-.157L2.4,6.011m.291-.157-.174.157M2.8,5.854l-.174.157m.291-.157-.174.157m.291-.157-.174.157.173-.157m.118,0-.176.157m.293-.157-.178.157m.291-.157-.174.157M3.5,5.854l-.174.157m.293-.157-.174.157m.291-.157-.174.157m.291-.157-.174.157m.291-.157L3.8,6.011m0-.157.174.157m-.291-.157.174.157m-.291-.157.174.157m-.291-.157.174.157m-.291-.157.174.157m-.291-.157.174.157M3.1,5.854l.176.157m-.293-.157.174.157m-.293-.157.176.157m-.291-.157.174.157m-.291-.157.174.157m-.291-.157.174.157M2.4,5.854l.173.157m-.291-.157.176.157m-.293-.157.176.157m-.293-.157.178.157m0,.733L2.049,6.9m.289-.158L2.162,6.9m.294-.158L2.28,6.9m.291-.158L2.4,6.9m.291-.158L2.514,6.9M2.8,6.744,2.63,6.9m.291-.158L2.749,6.9m.289-.158L2.864,6.9m.291-.158L2.979,6.9m.291-.158L3.094,6.9m.3-.158L3.214,6.9M3.5,6.744,3.331,6.9m.289-.158L3.446,6.9m.291-.158L3.562,6.9m.291-.158L3.679,6.9m.291-.158L3.8,6.9m0-.158L3.97,6.9m-.291-.158.174.158m-.291-.158.174.158m-.291-.158L3.62,6.9m-.291-.158L3.5,6.9m-.291-.158.176.158m-.294-.158L3.27,6.9m-.291-.158.174.158m-.289-.158.174.158m-.291-.158.174.158M2.63,6.744,2.8,6.9m-.291-.158.174.158m.293-.158.174.158M2.4,6.744l.173.158M2.28,6.744l.176.158m-.293-.158.176.158m-.291-.158.174.158" fill="none" stroke="#fff" stroke-width="0.1"/>
      <path id="Path_44247" data-name="Path 44247" d="M5.439,8.38c-2.826,2.789-4.032,3.142-3.465,3.367S4.36,10.532,6.253,8.621,9.306,5.008,8.739,4.783,8.446,5.416,5.439,8.38Z" fill="red" stroke="#fff" stroke-width="0.1" fill-rule="evenodd"/>
      <path id="Path_44248" data-name="Path 44248" d="M3.063,10.409l.991.262c-.932.892-1.981,1.257-2.272,1.1s.524-.523,1.282-1.36Z" fill="red" stroke="#fff" stroke-width="0.1" fill-rule="evenodd"/>
      <path id="Path_44249" data-name="Path 44249" d="M3.063,10.513l.817.209a2.8,2.8,0,0,1-2.038,1C1.607,11.614,2.326,11.319,3.063,10.513Z" fill="red" stroke="#fff" stroke-width="0.1" fill-rule="evenodd"/>
      <path id="Path_44250" data-name="Path 44250" d="M6.1,8.261c0,.013-.009.073-.015.1a.58.58,0,0,1-.007.084c-.009.023-.008.043-.036.052a.112.112,0,0,1-.058.046.33.33,0,0,1-.073.039.149.149,0,0,1-.087.006c-.025-.016-.044-.032-.065-.046,0-.021-.009-.051-.015-.071a.3.3,0,0,1,.015.085.15.15,0,0,1-.029.07" fill="none" stroke="#fff" stroke-width="0.1"/>
      <path id="Path_44251" data-name="Path 44251" d="M5.836,8.694l-.007-.006c.017.016.01.008-.029-.013a.389.389,0,0,0-.094-.025H5.6a.342.342,0,0,0-.094.012c-.021.019-.051.029-.073.046a.116.116,0,0,0-.043.052c-.02.018-.032.044-.051.058-.008.03-.024.029-.036.052a.111.111,0,0,1,.08.026c.03.013-.025-.013-.037-.026a.17.17,0,0,0-.065-.012c-.032-.01-.053.007-.087.012a.083.083,0,0,1-.051.013" fill="none" stroke="#fff" stroke-width="0.1"/>
      <path id="Path_44252" data-name="Path 44252" d="M5.446,9.016a.347.347,0,0,1-.109,0,.1.1,0,0,1-.065-.046c-.009-.018,0,.031,0,.052,0,.038-.016.038-.037.064s-.043.029-.065.039a.217.217,0,0,1-.065.032.326.326,0,0,0-.065.032c-.024.016-.023.034-.037.059a.08.08,0,0,0,.029.064.18.18,0,0,0,.044.058c.017.031.038.044-.007.052-.025.01-.039,0-.066,0" fill="none" stroke="#fff" stroke-width="0.1"/>
      <path id="Path_44253" data-name="Path 44253" d="M4.987,9.467c-.019,0-.081-.023-.109-.032h-.1A.217.217,0,0,0,4.7,9.46a.2.2,0,0,1-.066.046.474.474,0,0,0-.058.071.238.238,0,0,0-.014.083.666.666,0,0,0,.014.079.193.193,0,0,0,.044.078.016.016,0,0,0,.014.012" fill="none" stroke="#fff" stroke-width="0.1"/>
      <path id="Path_44254" data-name="Path 44254" d="M4.646,9.913s-.01.016-.021.03a.06.06,0,0,1-.062.026c-.033,0-.029-.013-.052-.02S4.488,9.92,4.476,9.9s-.016-.033-.025-.046-.021-.027-.031-.041A.1.1,0,0,0,4.393,9.8c.03,0,.033.016.052.031a.478.478,0,0,1,.025.046.466.466,0,0,1,.011.066.158.158,0,0,1-.011.072.251.251,0,0,1-.036.036.3.3,0,0,0-.035.041l-.047.03a.128.128,0,0,1-.056.02.147.147,0,0,1-.062-.02c-.02-.014-.035-.023-.052-.036a.172.172,0,0,1-.036-.041.061.061,0,0,0-.062.011.135.135,0,0,0-.035.036c-.008,0-.023.016-.031.02" fill="none" stroke="#fff" stroke-width="0.1"/>
      <path id="Path_44255" data-name="Path 44255" d="M4.078,10.129c.008,0,.039.025.051.032a.424.424,0,0,1,.026.071.193.193,0,0,1-.026.17.452.452,0,0,1-.057.039.5.5,0,0,1-.083.007.131.131,0,0,1-.077,0,.221.221,0,0,1-.07-.025c-.023-.013-.038-.027-.063-.039s-.033-.036-.051-.057a.294.294,0,0,1-.039-.057c.01.026.023.051.032.076a.127.127,0,0,1,.026.069.258.258,0,0,1,.007.09.307.307,0,0,1-.013.076V10.6" fill="none" stroke="#fff" stroke-width="0.1"/>
      <path id="Path_44256" data-name="Path 44256" d="M3.136,10.7v.01c0-.025,0-.013.011.037a.116.116,0,0,0,.1.018c.033-.025.033-.044.092-.055a.208.208,0,0,1,.115.037.152.152,0,0,1,.082.064c.011.031.018.053-.021.065a.269.269,0,0,1-.115.037c-.046,0-.081,0-.1.019s-.03.047-.03.1a.641.641,0,0,0-.021.084.191.191,0,0,1-.092.018c-.012-.03-.023-.08-.031-.111s-.01-.08-.031-.1a.259.259,0,0,0-.071-.065.134.134,0,0,0-.062-.035c.041.018.046.038.051.083a.2.2,0,0,1-.1.028.1.1,0,0,1-.092-.047.49.49,0,0,1-.033.1,1.033,1.033,0,0,0-.049.092c.008.044.028.046.03.1.013.037.013.071.041.093s.023.016.053.018a.264.264,0,0,1-.135-.027c-.03-.018-.053-.038-.082-.056a.414.414,0,0,0-.123-.056c-.048,0-.082,0-.1.019a.166.166,0,0,0-.062.093c-.008.047-.013.08.011.111a.081.081,0,0,1,0,.092c-.025.03-.059.034-.115.046a.389.389,0,0,1-.1-.018" fill="none" stroke="#fff" stroke-width="0.1"/>
      <path id="Path_44257" data-name="Path 44257" d="M8.667,5.864c1.253-2.183,2.085-4.044,1.858-4.149S9.093,3.3,7.84,5.48Z" fill="red" stroke="#fff" stroke-width="0.1" fill-rule="evenodd"/>
      <path id="Path_44258" data-name="Path 44258" d="M8.584,5.827c1.209-2.106,2.042-3.887,1.861-3.971S9.131,3.414,7.922,5.52" fill="red" fill-rule="evenodd"/>
      <path id="Path_44259" data-name="Path 44259" d="M8.584,5.827c1.209-2.106,2.042-3.887,1.861-3.971S9.131,3.414,7.922,5.52" fill="none" stroke="#fff" stroke-width="0.1"/>
      <path id="Path_44260" data-name="Path 44260" d="M8.376,4.729c-.147.246-.3.528-.454.791l.664.308c.151-.263.316-.54.454-.791Z" fill="red" stroke="#fff" stroke-width="0.1" fill-rule="evenodd"/>
      <path id="Path_44261" data-name="Path 44261" d="M8.434,4.814c-.148.247-.25.435-.4.7l.5.23c.151-.263.263-.448.4-.7Z" fill="red" stroke="#fff" stroke-width="0.1" fill-rule="evenodd"/>
      <path id="Path_44262" data-name="Path 44262" d="M8.794,5.1l-.332-.154-.294.512.332.154Zm0,0-.626.358ZM8.5,5.612l-.038-.667ZM10.29,2.493l-.332-.154Z" fill="red" fill-rule="evenodd"/>
      <path id="Path_44263" data-name="Path 44263" d="M8.794,5.1l-.332-.154m.332.154L8.5,5.612M8.794,5.1l-.626.358m.294-.512-.294.512m.294-.512.038.667m-.332-.154.332.154M10.29,2.493l-.332-.154" fill="none" stroke="#fff" stroke-width="0.1"/>
      <path id="Path_44264" data-name="Path 44264" d="M10.289,2.25a.085.085,0,1,1,.071-.105A.09.09,0,0,1,10.289,2.25Z" fill="red" stroke="#fff" stroke-width="0.1"/>
      <path id="Path_44265" data-name="Path 44265" d="M8.176,8.33C11,11.119,12.208,11.471,11.641,11.7S9.254,10.482,7.361,8.571,4.309,4.958,4.876,4.733,5.169,5.365,8.176,8.33Z" fill="red" stroke="#fff" stroke-width="0.1" fill-rule="evenodd"/>
      <path id="Path_44266" data-name="Path 44266" d="M10.551,10.359l-.991.262c.932.892,1.981,1.257,2.272,1.1s-.524-.523-1.282-1.36Z" fill="red" stroke="#fff" stroke-width="0.1" fill-rule="evenodd"/>
      <path id="Path_44267" data-name="Path 44267" d="M10.552,10.455l-.817.209a2.8,2.8,0,0,0,2.038,1C12.007,11.556,11.288,11.261,10.552,10.455Z" fill="red" stroke="#fff" stroke-width="0.1" fill-rule="evenodd"/>
      <path id="Path_44268" data-name="Path 44268" d="M7.516,8.2c0,.013.009.073.015.1a.58.58,0,0,0,.007.084c.009.023.008.043.036.052a.112.112,0,0,0,.058.046A.33.33,0,0,0,7.7,8.52a.149.149,0,0,0,.087.006c.025-.016.044-.032.065-.046,0-.021.009-.051.015-.071a.3.3,0,0,0-.015.085.15.15,0,0,0,.029.07" fill="none" stroke="#fff" stroke-width="0.1"/>
      <path id="Path_44269" data-name="Path 44269" d="M7.779,8.635l.007-.006c-.017.016-.01.008.029-.013a.389.389,0,0,1,.094-.025h.1A.342.342,0,0,1,8.1,8.6c.021.019.051.029.073.046A.116.116,0,0,1,8.22,8.7c.02.018.032.044.051.058.008.03.024.029.036.052a.111.111,0,0,0-.08.026c-.03.013.025-.013.037-.026A.17.17,0,0,1,8.328,8.8c.032-.01.053.007.087.012a.083.083,0,0,0,.051.013" fill="none" stroke="#fff" stroke-width="0.1"/>
      <path id="Path_44270" data-name="Path 44270" d="M8.168,8.966a.347.347,0,0,0,.109,0,.1.1,0,0,0,.065-.046c.009-.018,0,.031,0,.052,0,.038.016.038.037.064s.043.029.065.039a.216.216,0,0,0,.065.032.327.327,0,0,1,.065.032c.024.016.023.034.037.059a.08.08,0,0,1-.029.064.18.18,0,0,1-.044.058c-.017.031-.038.044.007.052.025.01.039,0,.066,0" fill="none" stroke="#fff" stroke-width="0.1"/>
      <path id="Path_44271" data-name="Path 44271" d="M8.627,9.416c.019,0,.081-.023.109-.032h.1a.217.217,0,0,1,.079.026.2.2,0,0,0,.066.046.474.474,0,0,1,.058.071.238.238,0,0,1,.014.083.668.668,0,0,1-.014.079A.193.193,0,0,1,9,9.766a.016.016,0,0,1-.014.012" fill="none" stroke="#fff" stroke-width="0.1"/>
      <path id="Path_44272" data-name="Path 44272" d="M8.977,9.863s.01.016.021.03a.06.06,0,0,0,.062.026c.033,0,.029-.013.052-.02s.024-.029.036-.051.016-.033.025-.046.021-.027.031-.041a.1.1,0,0,1,.026-.011c-.03,0-.033.016-.052.031a.48.48,0,0,0-.025.046.466.466,0,0,0-.011.066.158.158,0,0,0,.011.072A.25.25,0,0,0,9.188,10a.3.3,0,0,1,.035.041l.047.03a.128.128,0,0,0,.056.02.147.147,0,0,0,.062-.02c.02-.014.035-.023.052-.036a.172.172,0,0,0,.036-.041.061.061,0,0,1,.062.011.135.135,0,0,1,.035.036c.008,0,.023.016.031.02" fill="none" stroke="#fff" stroke-width="0.1"/>
      <path id="Path_44273" data-name="Path 44273" d="M9.537,10.07c-.008,0-.039.024-.051.032a.423.423,0,0,0-.026.071.351.351,0,0,0-.007.089.347.347,0,0,0,.033.082.462.462,0,0,0,.057.039.51.51,0,0,0,.083.007.131.131,0,0,0,.077,0,.221.221,0,0,0,.07-.026c.024-.013.038-.026.063-.039s.033-.036.051-.057a.3.3,0,0,0,.039-.057c-.01.026-.024.051-.032.076a.128.128,0,0,0-.026.069.259.259,0,0,0-.007.09.307.307,0,0,0,.013.076v.019" fill="none" stroke="#fff" stroke-width="0.1"/>
      <path id="Path_44274" data-name="Path 44274" d="M10.479,10.651v.01c0-.025,0-.013-.012.037a.116.116,0,0,1-.1.018c-.033-.025-.033-.044-.092-.055a.208.208,0,0,0-.115.037.153.153,0,0,0-.082.063c-.011.031-.018.053.021.065a.269.269,0,0,0,.115.037c.046,0,.08,0,.1.019s.03.047.03.1a.645.645,0,0,1,.021.084.191.191,0,0,0,.092.018c.012-.03.023-.08.031-.111s.01-.08.031-.1a.26.26,0,0,1,.071-.065.133.133,0,0,1,.063-.035c-.041.018-.046.038-.051.083a.2.2,0,0,0,.1.028.1.1,0,0,0,.092-.047.488.488,0,0,0,.033.1,1.023,1.023,0,0,1,.049.092c-.008.044-.028.046-.03.1-.013.037-.013.071-.041.093s-.023.016-.053.018a.263.263,0,0,0,.135-.027c.03-.018.053-.038.082-.056A.414.414,0,0,1,11.1,11.1c.048,0,.082,0,.1.019a.166.166,0,0,1,.063.093c.008.047.013.08-.011.111a.081.081,0,0,0,0,.092c.025.03.059.034.115.046a.389.389,0,0,0,.1-.018" fill="none" stroke="#fff" stroke-width="0.1"/>
      <path id="Path_44275" data-name="Path 44275" d="M4.948,5.815C3.694,3.631,2.863,1.771,3.089,1.666S4.521,3.247,5.775,5.43Z" fill="red" stroke="#fff" stroke-width="0.1" fill-rule="evenodd"/>
      <path id="Path_44276" data-name="Path 44276" d="M5.03,5.778C3.821,3.671,2.988,1.891,3.17,1.807S4.483,3.364,5.692,5.47" fill="red" fill-rule="evenodd"/>
      <path id="Path_44277" data-name="Path 44277" d="M5.03,5.778C3.821,3.671,2.988,1.891,3.17,1.807S4.483,3.364,5.692,5.47" fill="none" stroke="#fff" stroke-width="0.1"/>
      <path id="Path_44278" data-name="Path 44278" d="M5.238,4.679c.147.246.3.528.454.791l-.664.308c-.151-.263-.316-.54-.454-.791Z" fill="red" stroke="#fff" stroke-width="0.1" fill-rule="evenodd"/>
      <path id="Path_44279" data-name="Path 44279" d="M5.18,4.764c.148.247.25.435.4.7l-.5.23c-.151-.263-.263-.448-.4-.7Z" fill="red" stroke="#fff" stroke-width="0.1" fill-rule="evenodd"/>
      <path id="Path_44280" data-name="Path 44280" d="M4.82,5.049,5.152,4.9l.294.512-.332.154Zm0,0,.626.358Zm.294.512L5.152,4.9ZM3.324,2.443l.332-.154Z" fill="red" fill-rule="evenodd"/>
      <path id="Path_44281" data-name="Path 44281" d="M4.82,5.049,5.152,4.9m-.332.154.294.512M4.82,5.049l.626.358M5.152,4.9l.294.512M5.152,4.9l-.038.667m.332-.154-.332.154M3.324,2.443l.332-.154" fill="none" stroke="#fff" stroke-width="0.1"/>
      <path id="Path_44282" data-name="Path 44282" d="M3.326,2.2A.085.085,0,1,0,3.254,2.1.09.09,0,0,0,3.326,2.2Z" fill="red" stroke="#fff" stroke-width="0.1"/>
      <path id="Path_44283" data-name="Path 44283" d="M5.95,4.7c0,1.834.011,2.524-.123,2.619s-3.662,0-3.662.523,2.91,1.05,3.785,1.05Q7.7,8.894,7.7,7.321V4.7H5.95Z" fill="red" stroke="#fff" stroke-width="0.1" fill-rule="evenodd"/>
      <path id="Path_44284" data-name="Path 44284" d="M5.951,5.226v.262a5.859,5.859,0,0,0,1.746,0V5.226A5.859,5.859,0,0,1,5.951,5.226Z" fill="red" stroke="#fff" stroke-width="0.1" fill-rule="evenodd"/>
      <path id="Path_44285" data-name="Path 44285" d="M5.951,4.7v.262a5.859,5.859,0,0,0,1.746,0V4.7A5.859,5.859,0,0,1,5.951,4.7Z" fill="red" stroke="#fff" stroke-width="0.1" fill-rule="evenodd"/>
      <path id="Path_44286" data-name="Path 44286" d="M5.951,4.964v.262a5.859,5.859,0,0,0,1.746,0V4.964A5.859,5.859,0,0,1,5.951,4.964Z" fill="red" stroke="#fff" stroke-width="0.1" fill-rule="evenodd"/>
      <path id="Path_44287" data-name="Path 44287" d="M5.951,5.487v.262a5.859,5.859,0,0,0,1.746,0V5.487A5.858,5.858,0,0,1,5.951,5.487Z" fill="red" stroke="#fff" stroke-width="0.1" fill-rule="evenodd"/>
      <path id="Path_44288" data-name="Path 44288" d="M6.03,5.169c.044,0,.08-.025.08-.057s-.036-.057-.08-.057-.08.025-.08.057S5.986,5.169,6.03,5.169Z" fill="red" stroke="#fff" stroke-width="0.1"/>
      <path id="Path_44289" data-name="Path 44289" d="M6.347,5.2c.044,0,.08-.025.08-.057s-.036-.057-.08-.057-.08.025-.08.057S6.3,5.2,6.347,5.2Z" fill="red" stroke="#fff" stroke-width="0.1"/>
      <path id="Path_44290" data-name="Path 44290" d="M6.666,5.225c.044,0,.08-.025.08-.057s-.036-.057-.08-.057-.08.025-.08.057S6.622,5.225,6.666,5.225Z" fill="red" stroke="#fff" stroke-width="0.1"/>
      <path id="Path_44291" data-name="Path 44291" d="M6.983,5.225c.044,0,.08-.025.08-.057s-.036-.057-.08-.057-.08.025-.08.057S6.939,5.225,6.983,5.225Z" fill="red" stroke="#fff" stroke-width="0.1"/>
      <path id="Path_44292" data-name="Path 44292" d="M7.3,5.2c.044,0,.08-.025.08-.057s-.036-.057-.08-.057-.08.025-.08.057S7.256,5.2,7.3,5.2Z" fill="red" stroke="#fff" stroke-width="0.1"/>
      <path id="Path_44293" data-name="Path 44293" d="M7.619,5.169c.044,0,.08-.025.08-.057s-.036-.057-.08-.057-.08.025-.08.057S7.575,5.169,7.619,5.169Z" fill="red" stroke="#fff" stroke-width="0.1"/>
      <path id="Path_44294" data-name="Path 44294" d="M5.951,6.011,7.7,7.426Zm.174,0L7.7,7.268Zm.232.053L7.7,7.112Zm.174,0L7.7,6.954Zm.176,0L7.7,6.8Zm.174,0,.815.577Zm.174,0,.641.418Zm.178,0,.467.313Zm.173,0,.293.21Zm.176,0,.115.1Zm-1.631.1L7.7,7.584ZM7.7,6.012,5.773,7.583Zm-.176,0L5.832,7.374Zm-.232.053L5.949,7.111Zm-.176,0-1.164.89Zm-.173,0L5.951,6.8Zm-.174,0-.815.577Zm-.174,0-.641.418Zm-.178,0-.465.313Zm-.174,0-.291.21Zm-.176,0-.115.1Zm1.632.1L5.773,7.742Zm0,.16L5.773,7.9Zm0,.155L5.773,8.054Zm0,.157L5.773,8.214Zm0,.16L5.773,8.369Zm0,.155L5.773,8.526Zm0,.157L5.773,8.683Zm0,.158L5.773,8.841Zm0,.157L5.89,8.893Zm0,.157L6.066,8.893Zm-.059.21L6.355,8.841ZM7.581,8l-1.049.838Zm-.117.262-.526.418ZM5.951,6.324,7.639,7.686Zm0,.157L7.639,7.844Zm0,.16L7.581,7.949Zm0,.155L7.581,8.107Zm0,.158L7.522,8.211Zm-.059.1L7.464,8.316Zm0,.158L7.348,8.371Zm-.058.1L7.29,8.474Zm-.061.1,1.4,1.1Zm0,.157,1.34,1.048Zm0,.158,1.167.942Z" fill="red" fill-rule="evenodd"/>
      <path id="Path_44295" data-name="Path 44295" d="M5.951,6.011,7.7,7.426,5.89,8.893m.235-2.882L7.7,7.268m-1.341-1.2L7.7,7.112M6.531,6.063,7.7,6.954m-.991-.89L7.7,6.8m-.815-.733.815.577m-.641-.577.641.418L5.773,8.054m1.46-1.99.467.313m-.294-.313.293.21m-.117-.21.115.1L5.773,7.742m.178-1.575L7.7,7.584m0-1.572L5.773,7.583M7.52,6.011,5.832,7.374m1.456-1.31L5.949,7.111M7.113,6.064l-1.164.89m.991-.89L5.951,6.8m.815-.733-.815.577L7.581,7.949M6.592,6.064l-.641.418m.464-.418-.465.313m.291-.313-.291.21m.115-.21-.115.1m1.747.16L5.773,7.9M7.7,6.639,5.773,8.214M7.7,6.8,5.773,8.369M7.7,6.954,5.773,8.526M7.7,7.111,5.773,8.683M7.7,7.269,5.773,8.841M7.7,7.583,6.066,8.893m1.571-1.1L6.355,8.841M7.581,8l-1.049.838m.932-.577-.526.418M5.951,6.324,7.639,7.686M5.951,6.481,7.639,7.844M5.951,6.8,7.581,8.107M5.951,6.954,7.522,8.211M5.891,7.059,7.464,8.316m-1.573-1.1L7.348,8.371M5.834,7.321,7.29,8.474M5.773,7.424l1.4,1.1m-1.4-.943,1.34,1.048m-1.34-.89,1.167.942" fill="none" stroke="#fff" stroke-width="0.1"/>
      <path id="Path_44296" data-name="Path 44296" d="M5.951,5.75v.262a5.859,5.859,0,0,0,1.746,0V5.75A5.859,5.859,0,0,1,5.951,5.75Z" fill="red" stroke="#fff" stroke-width="0.1" fill-rule="evenodd"/>
      <path id="Path_44297" data-name="Path 44297" d="M5.775,7.9l1.049.838Zm0,.158.932.732Zm0,.155.815.63Zm0,.157.583.473Zm0,.158.467.367Zm0,.157.291.21Z" fill="red" fill-rule="evenodd"/>
      <path id="Path_44298" data-name="Path 44298" d="M5.775,7.9l1.049.838m-1.049-.68.932.732m-.932-.577.815.63m-.815-.473.583.473m-.585-.315.467.367m-.467-.21.291.21" fill="none" stroke="#fff" stroke-width="0.1"/>
      <path id="Path_44299" data-name="Path 44299" d="M6.03,5.955c.044,0,.08-.025.08-.057s-.036-.057-.08-.057-.08.025-.08.057S5.986,5.955,6.03,5.955Z" fill="red" stroke="#fff" stroke-width="0.1"/>
      <path id="Path_44300" data-name="Path 44300" d="M6.347,5.984c.044,0,.08-.025.08-.057s-.036-.057-.08-.057-.08.025-.08.057S6.3,5.984,6.347,5.984Z" fill="red" stroke="#fff" stroke-width="0.1"/>
      <path id="Path_44301" data-name="Path 44301" d="M6.666,6.011c.044,0,.08-.025.08-.057S6.71,5.9,6.666,5.9s-.08.025-.08.057S6.622,6.011,6.666,6.011Z" fill="red" stroke="#fff" stroke-width="0.1"/>
      <path id="Path_44302" data-name="Path 44302" d="M6.983,6.011c.044,0,.08-.025.08-.057S7.027,5.9,6.983,5.9s-.08.025-.08.057S6.939,6.011,6.983,6.011Z" fill="red" stroke="#fff" stroke-width="0.1"/>
      <path id="Path_44303" data-name="Path 44303" d="M7.3,5.984c.044,0,.08-.025.08-.057s-.036-.057-.08-.057-.08.025-.08.057S7.256,5.984,7.3,5.984Z" fill="red" stroke="#fff" stroke-width="0.1"/>
      <path id="Path_44304" data-name="Path 44304" d="M7.619,5.955c.044,0,.08-.025.08-.057s-.036-.057-.08-.057-.08.025-.08.057S7.575,5.955,7.619,5.955Z" fill="red" stroke="#fff" stroke-width="0.1"/>
      <path id="Path_44305" data-name="Path 44305" d="M3.446,8.474l2.1-1.1Zm-.117-.053L5.31,7.374Zm-.058-.1,1.8-.942Zm-.059-.1,1.573-.838Zm-.118-.1L4.55,7.374Zm.059-.157.989-.525Zm-.059-.106.756-.418Zm0-.157.526-.262Zm.526.838L5.6,7.478Zm.176.052,1.862-1Zm.174.053,1.747-.943Zm.174.052L5.6,7.9Zm.232,0L5.658,8Zm.174.053,1.106-.577Zm.174.052L5.6,8.316Zm.233,0,.7-.368Zm.233.052.467-.263Zm.237,0,.291-.157Z" fill="red" fill-rule="evenodd"/>
      <path id="Path_44306" data-name="Path 44306" d="M3.446,8.474l2.1-1.1M3.329,8.421,5.31,7.374m-2.038.942,1.8-.942m-1.864.838,1.573-.838m-1.691.733L4.55,7.374m-1.4.577.989-.525m-1.049.418.756-.418m-.756.262.526-.262m0,1.1L5.6,7.478m-1.8,1.1,1.862-1M3.97,8.631l1.747-.943m-1.573,1L5.6,7.9m-1.225.785L5.658,8M4.55,8.736l1.106-.577m-.932.628L5.6,8.316m-.641.473.7-.368m-.465.42.467-.263m-.23.263.291-.157" fill="none" stroke="#fff" stroke-width="0.1"/>
      <path id="Path_44307" data-name="Path 44307" d="M5.832,7.322H5.541a4.278,4.278,0,0,0,0,1.57h.291A4.278,4.278,0,0,1,5.832,7.322Z" fill="red" stroke="#fff" stroke-width="0.1" fill-rule="evenodd"/>
      <path id="Path_44308" data-name="Path 44308" d="M2.4,8.054l.7-.523Zm0-.367.7.628Z" fill="red" fill-rule="evenodd"/>
      <path id="Path_44309" data-name="Path 44309" d="M2.4,8.054l.7-.523m-.7.157.7.628" fill="none" stroke="#fff" stroke-width="0.1"/>
      <path id="Path_44310" data-name="Path 44310" d="M3.446,7.425l-.35.052a1.943,1.943,0,0,0,0,.944l.35.1A2.63,2.63,0,0,1,3.446,7.425Z" fill="red" stroke="#fff" stroke-width="0.1" fill-rule="evenodd"/>
      <path id="Path_44311" data-name="Path 44311" d="M7.7,4.806V4.541c-.264,0-.438-.155-.438-.313H6.386c0,.157-.172.315-.436.315v.262Z" fill="red" stroke="#fff" stroke-width="0.1" fill-rule="evenodd"/>
      <path id="Path_44312" data-name="Path 44312" d="M6.447,3.916H7.2v.315h-.75ZM6.511,3.6h.623v.315H6.509Zm0-.313h.623V3.6H6.509Zm.062-.42h.5v.42h-.5ZM6.552,2.5h.542v.367H6.552Z" fill="red" fill-rule="evenodd"/>
      <path id="Path_44313" data-name="Path 44313" d="M7.134,3.6H6.511l0,.315h.625Zm0,0V3.287H6.511l0,.313Zm-.687.315H7.2v.315h-.75Zm.127-1.048h.5v.42h-.5ZM6.552,2.5h.542v.367H6.552Z" fill="none" stroke="#fff" stroke-width="0.1"/>
      <path id="Path_44314" data-name="Path 44314" d="M6.851,2.659c.4,0,.722-.223.722-.5s-.323-.5-.722-.5-.722.223-.722.5S6.453,2.659,6.851,2.659Z" fill="red" stroke="#fff" stroke-width="0.1"/>
      <path id="Path_44315" data-name="Path 44315" d="M7.213,2.134a.883.883,0,0,0,.18.367,1.009,1.009,0,0,1-.542.158A.759.759,0,0,1,6.31,2.5a.875.875,0,0,0,.18-.365c0-.138-.18-.315-.18-.315a1.015,1.015,0,0,1,1.084,0s-.18.177-.18.315Z" fill="red" stroke="#fff" stroke-width="0.1" fill-rule="evenodd"/>
      <path id="Path_44316" data-name="Path 44316" d="M7.093,2.134a1.24,1.24,0,0,0,.18.42.626.626,0,0,1-.421.1c-.2,0-.326.016-.421-.1a1.226,1.226,0,0,0,.18-.42.873.873,0,0,0-.18-.367.626.626,0,0,1,.421-.1.628.628,0,0,1,.421.1A.883.883,0,0,0,7.093,2.134Z" fill="red" stroke="#fff" stroke-width="0.1" fill-rule="evenodd"/>
      <path id="Path_44317" data-name="Path 44317" d="M6.13,2.342a.17.17,0,0,0,.18-.157.182.182,0,0,0-.36,0A.17.17,0,0,0,6.13,2.342Z" fill="red" stroke="#fff" stroke-width="0.1"/>
      <path id="Path_44318" data-name="Path 44318" d="M7.574,2.342a.17.17,0,0,0,.18-.157.182.182,0,0,0-.36,0A.17.17,0,0,0,7.574,2.342Z" fill="red" stroke="#fff" stroke-width="0.1"/>
      <path id="Path_44319" data-name="Path 44319" d="M6.853,2.342a.17.17,0,0,0,.18-.157.182.182,0,0,0-.36,0A.17.17,0,0,0,6.853,2.342Z" fill="red" stroke="#fff" stroke-width="0.1"/>
      <path id="Path_44320" data-name="Path 44320" d="M6.853,1.819a.17.17,0,0,0,.18-.157.182.182,0,0,0-.36,0A.17.17,0,0,0,6.853,1.819Z" fill="red" stroke="#fff" stroke-width="0.1"/>
      <path id="Path_44321" data-name="Path 44321" d="M6.325,4.806a.159.159,0,1,0-.186-.157A.174.174,0,0,0,6.325,4.806Z" fill="red" stroke="#fff" stroke-width="0.1"/>
      <path id="Path_44322" data-name="Path 44322" d="M7.321,4.806a.159.159,0,1,0-.186-.157A.174.174,0,0,0,7.321,4.806Z" fill="red" stroke="#fff" stroke-width="0.1"/>
      <path id="Path_44323" data-name="Path 44323" d="M6.387,4.229h.872L6.823,4.7Z" fill="red" stroke="#fff" stroke-width="0.1" fill-rule="evenodd"/>
      <path id="Path_44324" data-name="Path 44324" d="M6.822,4.8A.212.212,0,1,0,6.573,4.6.231.231,0,0,0,6.822,4.8Z" fill="red" stroke="#fff" stroke-width="0.1"/>
      <path id="Path_44325" data-name="Path 44325" d="M7.135,6.163h-1.2a.064.064,0,0,0-.071.055v.206a.064.064,0,0,0,.071.055h1.2a.064.064,0,0,0,.071-.055V6.217A.064.064,0,0,0,7.135,6.163Z" fill="red" stroke="#fff" stroke-width="0.1"/>
      <path id="Path_44326" data-name="Path 44326" d="M7.614,5.9a.283.283,0,0,0-.291.274v.238a.242.242,0,0,0,.02.1A.264.264,0,0,0,7.4,6.6a.3.3,0,0,0,.1.06.3.3,0,0,0,.227,0,.3.3,0,0,0,.1-.06.264.264,0,0,0,.062-.088.242.242,0,0,0,.02-.1V6.175a.242.242,0,0,0-.019-.1.264.264,0,0,0-.062-.089.3.3,0,0,0-.1-.06A.324.324,0,0,0,7.614,5.9Zm0,.1a.2.2,0,0,0-.174.22v.138a.179.179,0,1,0,.348,0V6.224a.2.2,0,0,0-.174-.219ZM6.1,5.952a.2.2,0,0,0-.174.22v.243a.179.179,0,1,0,.348,0V6.171a.2.2,0,0,0-.174-.22Zm0-.1a.324.324,0,0,0-.114.022.3.3,0,0,0-.1.06.264.264,0,0,0-.062.088.242.242,0,0,0-.02.1v.343a.242.242,0,0,0,.02.1.264.264,0,0,0,.062.088.3.3,0,0,0,.1.06.324.324,0,0,0,.114.022.283.283,0,0,0,.291-.274V6.122a.242.242,0,0,0-.019-.1A.264.264,0,0,0,6.31,5.93a.3.3,0,0,0-.1-.06A.324.324,0,0,0,6.1,5.847Z" fill="red" stroke="#fff" stroke-width="0.1" fill-rule="evenodd"/>
      <path id="Path_44327" data-name="Path 44327" d="M5.633,6.058a.2.2,0,0,0-.174.219v.058a.179.179,0,1,0,.35,0V6.276A.2.2,0,0,0,5.633,6.058Zm0-.1a.324.324,0,0,0-.114.022.3.3,0,0,0-.1.06.264.264,0,0,0-.062.088.242.242,0,0,0-.02.1v.157a.242.242,0,0,0,.02.1.264.264,0,0,0,.062.088.3.3,0,0,0,.1.06.324.324,0,0,0,.114.022.284.284,0,0,0,.293-.274V6.228a.242.242,0,0,0-.019-.1.264.264,0,0,0-.063-.089.3.3,0,0,0-.1-.06.324.324,0,0,0-.115-.022Z" fill="red" stroke="#fff" stroke-width="0.1" fill-rule="evenodd"/>
      <path id="Path_44328" data-name="Path 44328" d="M4.937,5.913a.286.286,0,0,0-.317.245V6.43a.289.289,0,0,0,.317.245.286.286,0,0,0,.314-.246V6.157A.286.286,0,0,0,4.937,5.913Zm0-.116a.905.905,0,0,0-.2.024.65.65,0,0,0-.172.066.35.35,0,0,0-.113.1A.186.186,0,0,0,4.41,6.1v.383a.184.184,0,0,0,.035.116.344.344,0,0,0,.112.1.644.644,0,0,0,.172.067.9.9,0,0,0,.205.025c.293,0,.527-.137.527-.307V6.1a.185.185,0,0,0-.035-.115.346.346,0,0,0-.112-.1.646.646,0,0,0-.172-.067.9.9,0,0,0-.2-.025Z" fill="red" stroke="#fff" stroke-width="0.1" fill-rule="evenodd"/>
      <path id="Path_44329" data-name="Path 44329" d="M8.722,5.964a.286.286,0,0,0-.317.245v.273a.325.325,0,0,0,.63,0V6.209A.286.286,0,0,0,8.722,5.964Zm0-.116a.906.906,0,0,0-.2.024.65.65,0,0,0-.172.066.35.35,0,0,0-.113.1.186.186,0,0,0-.037.115v.383a.184.184,0,0,0,.035.116.344.344,0,0,0,.112.1.644.644,0,0,0,.172.067.9.9,0,0,0,.205.025c.293,0,.527-.137.527-.307V6.153a.185.185,0,0,0-.035-.115.346.346,0,0,0-.112-.1.646.646,0,0,0-.172-.067.9.9,0,0,0-.2-.025Z" fill="red" stroke="#fff" stroke-width="0.1" fill-rule="evenodd"/>
      <path id="Path_44330" data-name="Path 44330" d="M8.391,6.163H7.768c-.021,0-.038.024-.038.055v.206c0,.03.017.055.038.055h.623c.021,0,.038-.024.038-.055V6.217C8.429,6.187,8.412,6.163,8.391,6.163Z" fill="red" stroke="#fff" stroke-width="0.1"/>
      <path id="Path_44331" data-name="Path 44331" d="M7.476,6.111H7.111c-.012,0-.021.032-.021.072v.275c0,.04.01.072.021.072h.365c.012,0,.021-.032.021-.072V6.183C7.5,6.143,7.488,6.111,7.476,6.111Z" fill="red" stroke="#fff" stroke-width="0.1"/>
      <path id="Path_44332" data-name="Path 44332" d="M5.554,6.111H5.189c-.012,0-.021.032-.021.072v.275c0,.04.01.072.021.072h.365c.012,0,.021-.032.021-.072V6.183C5.576,6.143,5.566,6.111,5.554,6.111Z" fill="red" stroke="#fff" stroke-width="0.1"/>
      <path id="Path_44333" data-name="Path 44333" d="M4.659,6.058h-.73c-.024,0-.043.04-.043.09v.343c0,.05.019.09.043.09h.73c.024,0,.043-.04.043-.09V6.148C4.7,6.1,4.682,6.058,4.659,6.058Z" fill="red" stroke="#fff" stroke-width="0.1"/>
      <path id="Path_44334" data-name="Path 44334" d="M9.67,6.111H8.994c-.023,0-.041.04-.041.09v.343c0,.05.018.09.041.09H9.67c.023,0,.041-.04.041-.09V6.2C9.711,6.151,9.693,6.111,9.67,6.111Z" fill="red" stroke="#fff" stroke-width="0.1"/>
    </g>
  </g>
</svg>
