<svg xmlns="http://www.w3.org/2000/svg" width="212" height="132" viewBox="0 0 212 132">
  <g id="Group_28065" data-name="Group 28065" transform="translate(-614 -2292)">
    <rect id="Rectangle_19700" data-name="Rectangle 19700" width="212" height="132" rx="24" transform="translate(614 2292)" fill="#d12e2e"/>
    <g id="Space_toon_Logo_Vector" data-name="Space toon Logo Vector" transform="translate(627.672 2207.184)">
      <g id="Group_24912" data-name="Group 24912" transform="translate(25 106.084)">
        <path id="Path_43354" data-name="Path 43354" d="M62.7,205.789c2.825,1.591-2.029,4.178-2.029,4.178l-25.623.04-1.83,3.859H68.35c19.735-4.138,10.623-12.931,10.623-12.931H52.713c-1.353-1.552,1.751-2.785,1.751-2.785l110.65-.08c.995-.358,1.234-3.263,1.234-3.263H48.058a9.682,9.682,0,0,0-6.048,2.666l-4.854,8.3Z" transform="translate(-30.691 -167.527)" fill="#fff"/>
        <path id="Subtraction_4" data-name="Subtraction 4" d="M6.208,11.022H0L3.1,2.03v0a2.938,2.938,0,0,1,.525-.847A3.142,3.142,0,0,1,5.61.13C6.236.044,7.935,0,10.662,0c3.832,0,8.356.087,8.546.091a2.9,2.9,0,0,1,.6.546,2.679,2.679,0,0,1,.643,1.6,3.5,3.5,0,0,1-.608,1.989,10.26,10.26,0,0,1-2.55,2.59l-9.44-.09-1.641,4.3ZM5.342,2.488c-.73.685-.843,1.139-.808,1.4a.584.584,0,0,0,.27.421h7.014c.864-.321,1.333-.691,1.39-1.1a.873.873,0,0,0-.346-.722Z" transform="translate(53.325 34.779)" fill="#fff"/>
        <path id="Subtraction_3" data-name="Subtraction 3" d="M14.63,11.2H.88a3.611,3.611,0,0,1-.519-.791A3.351,3.351,0,0,1,.041,8.4C.279,6.953,1.5,5.632,3.676,4.47l9.51.02s.028,0,.074,0a1.774,1.774,0,0,0,1.312-.515A1.551,1.551,0,0,0,14.8,2.65L3.2,2.663a2.142,2.142,0,0,1,0-1.507,1.74,1.74,0,0,1,1.073-.9A18.272,18.272,0,0,1,8.38,0c4.681,0,11.563.371,11.632.375a1.136,1.136,0,0,1,.328.5,1.978,1.978,0,0,1-.209,1.572c-.148.3-.353.863-.592,1.517a32.876,32.876,0,0,1-1.958,4.6,8.03,8.03,0,0,1-1.358,1.875A2.333,2.333,0,0,1,14.63,11.2ZM9.285,6.872c-.013.007-.922.536-1.057,1.172a.714.714,0,0,0,.131.59h6.681c.014-.006,1.419-.662,1.388-1.229-.011-.216-.226-.4-.638-.533Z" transform="translate(73.284 34.603)" fill="#fff"/>
        <path id="Path_43359" data-name="Path 43359" d="M301.167,245.705" transform="translate(-216.255 -202.776)" fill="#fff"/>
        <path id="Path_43360" data-name="Path 43360" d="M352.1,219.4l-.8,2.069H340.641s-3.342,3.66-2.785,6.326H348.6l-.995,2.566H332.285s-1.154-.617-.637-2.566,1.591-5.729,4.735-8.4" transform="translate(-237.272 -184.556)" fill="#fff"/>
        <path id="Subtraction_5" data-name="Subtraction 5" d="M0,10.963H0A19.035,19.035,0,0,1,.641,7.09,18.28,18.28,0,0,1,1.989,3.522,13.7,13.7,0,0,1,4.51,0h14.6a3.356,3.356,0,0,1,.58.709,2.787,2.787,0,0,1,.43,1.83A3.414,3.414,0,0,1,19.144,4.4a10.183,10.183,0,0,1-3.031,2.049H5.945a2.064,2.064,0,0,0-.708,1.22,1.166,1.166,0,0,0,.338.889H17.59v0a3.885,3.885,0,0,1-.242.958,1.935,1.935,0,0,1-1.194,1.229L0,10.963ZM5.769,2.387h0c-.037.016-.917.4-1.08,1.048a1.041,1.041,0,0,0,.265.922h5.808c.017-.009,1.673-.949,1.68-1.6a.422.422,0,0,0-.246-.37Z" transform="translate(113.515 34.839)" fill="#fff"/>
        <path id="Path_43363" data-name="Path 43363" d="M26.313,264.467,25,267.272l50.193.109-1.85,5.56s.3,1.731,1.552,2.029H87.428l1.123-2.387-8.941.06,1.671-5.013,9.43-.239,1.432-2.924H82.533l.9-2.626H77.341l-.836,2.566Z" transform="translate(-25 -213.951)" fill="#fff"/>
        <path id="Subtraction_2" data-name="Subtraction 2" d="M5.882,10.258c-2.546,0-4.086-.018-4.58-.053a1.331,1.331,0,0,1-1.034-.5A1.964,1.964,0,0,1,.043,8.3c.021-.042,2.1-4.259,2.553-5.67A4.306,4.306,0,0,1,4.18.776,9.832,9.832,0,0,1,5.421,0h14.5a1.393,1.393,0,0,1,.988.7,2.406,2.406,0,0,1-.032,1.747v0l0,.008c-.167.427-1.659,4.227-2.459,6.08a2.924,2.924,0,0,1-1.131,1.41,1.888,1.888,0,0,1-.969.277A1.2,1.2,0,0,1,16.1,10.2h-.031C15.067,10.214,9.851,10.258,5.882,10.258Zm4.584-7.642c-.253,0-1.152.306-2.062,4.248a1.126,1.126,0,0,0,.238.744.782.782,0,0,0,.6.231,1.548,1.548,0,0,0,.23-.02L15,7.837s.516-.094.985-.974L17.236,4.3a1.487,1.487,0,0,0,0-1.681l-6.7.01A.2.2,0,0,0,10.466,2.616Z" transform="translate(66.497 50.815)" fill="#fff"/>
        <path id="Subtraction_1" data-name="Subtraction 1" d="M8.235,10.318a50.444,50.444,0,0,1-6.615-.234A2.315,2.315,0,0,1,.589,9.615a1.61,1.61,0,0,1-.467-.652A1.792,1.792,0,0,1,.01,8.134C.022,8.1,1.329,4.22,2.217,2.442A4.888,4.888,0,0,1,4.018.549,5.679,5.679,0,0,1,5.145,0H18.092a1.759,1.759,0,0,1,1.359.676,1.084,1.084,0,0,1,.195.55c0,.012-.318,1.365-.807,2.9A13.506,13.506,0,0,1,16.96,8.245a7.093,7.093,0,0,1-2.587,2.013C14.343,10.259,11.31,10.318,8.235,10.318Zm2.408-7.457A1.647,1.647,0,0,0,9.219,3.939,24.842,24.842,0,0,0,8.026,7.163a.766.766,0,0,0,.109.539.418.418,0,0,0,.336.138H8.5c.17-.008.757-.012,1.741-.012,1.684,0,3.971.012,3.989.012s.82-.416,1.014-.974c.166-.476,1.207-3.108,1.252-3.22v0s.234-.4.106-.627a.4.4,0,0,0-.378-.158c-.035,0-.073,0-.113.005l-5.4,0A.617.617,0,0,0,10.643,2.861Z" transform="translate(88.559 50.814)" fill="#fff"/>
        <path id="Path_43368" data-name="Path 43368" d="M378.3,271.293l-4.3,10.206h2.387l3.064-6.565,7.122.08s.995-.1.358,1.382-2.061,5.1-2.061,5.1h6.517l3.461-8.2s.557-1.95-1.194-2.009S378.3,271.293,378.3,271.293Z" transform="translate(-266.698 -220.478)" fill="#fff"/>
        <circle id="Ellipse_906" data-name="Ellipse 906" cx="4.894" cy="4.894" r="4.894" transform="translate(38.644)" fill="#fff"/>
        <path id="Path_43369" data-name="Path 43369" d="M243.372,162.845" transform="translate(-176.23 -145.393)" fill="#fff"/>
        <path id="Path_43370" data-name="Path 43370" d="M186.585,171.294c4.31,8.774,4.989,16.277,1.024,20.557-8.23,8.882-33.336.518-56.078-18.681S97.023,131.2,105.251,122.322c4.218-4.554,12.873-4.573,23.37-.926-13.836-6.094-25.42-7.13-30.529-1.615-8.77,9.466,4.853,34.644,30.428,56.236s53.416,31.421,62.187,21.954C195.532,192.763,193.577,182.8,186.585,171.294Z" transform="translate(-73.777 -113.075)" fill="#fff"/>
      </g>
    </g>
  </g>
</svg>
