<svg xmlns="http://www.w3.org/2000/svg" width="212" height="132" viewBox="0 0 212 132">
  <g id="Group_28062" data-name="Group 28062" transform="translate(-1098 -2130)">
    <rect id="Rectangle_19697" data-name="Rectangle 19697" width="212" height="132" rx="24" transform="translate(1098 2130)" fill="#1ed760"/>
    <path id="Spotify_logo_with_text" d="M22.962.277a22.709,22.709,0,1,0,22.71,22.709A22.709,22.709,0,0,0,22.962.277h0ZM33.377,33.03a1.415,1.415,0,0,1-1.947.469C26.1,30.242,19.385,29.5,11.481,31.311a1.416,1.416,0,0,1-.63-2.761c8.651-1.976,16.071-1.125,22.057,2.533A1.415,1.415,0,0,1,33.377,33.03Zm2.78-6.183a1.771,1.771,0,0,1-2.435.584c-6.1-3.752-15.409-4.839-22.629-2.647A1.77,1.77,0,1,1,10.063,21.4c8.247-2.5,18.5-1.29,25.51,3.017a1.77,1.77,0,0,1,.583,2.434Zm.239-6.439C29.076,16.06,17,15.661,10.012,17.782a2.124,2.124,0,1,1-1.233-4.065c8.022-2.435,21.357-1.965,29.784,3.038A2.124,2.124,0,1,1,36.4,20.408Zm25.643.833c-3.921-.935-4.618-1.591-4.618-2.97,0-1.3,1.226-2.179,3.051-2.179a8.912,8.912,0,0,1,5.358,2.036.259.259,0,0,0,.363-.057l1.915-2.7a.258.258,0,0,0-.049-.349,11.585,11.585,0,0,0-7.531-2.609c-4.233,0-7.192,2.541-7.192,6.176,0,3.9,2.552,5.278,6.961,6.344,3.75.864,4.385,1.588,4.385,2.882,0,1.435-1.28,2.327-3.341,2.327A9.018,9.018,0,0,1,55.1,27.563a.266.266,0,0,0-.187-.062.254.254,0,0,0-.176.089l-2.148,2.555a.258.258,0,0,0,.024.358,12.8,12.8,0,0,0,8.645,3.314c4.561,0,7.509-2.492,7.509-6.351.008-3.256-1.942-5.059-6.717-6.221l-.008,0Zm17.046-3.867a6.158,6.158,0,0,0-4.938,2.375v-1.8a.256.256,0,0,0-.255-.257H70.379a.256.256,0,0,0-.255.257V37.911a.257.257,0,0,0,.255.258h3.512a.257.257,0,0,0,.255-.258v-6.3a6.317,6.317,0,0,0,4.938,2.235c3.674,0,7.4-2.828,7.4-8.235s-3.715-8.237-7.392-8.237h0Zm3.311,8.237c0,2.752-1.695,4.675-4.125,4.675a4.363,4.363,0,0,1-4.211-4.675,4.363,4.363,0,0,1,4.211-4.675c2.389,0,4.125,1.965,4.125,4.674Zm13.616-8.237a8.253,8.253,0,1,0,8.409,8.237,8.279,8.279,0,0,0-8.409-8.237Zm0,12.939a4.466,4.466,0,0,1-4.415-4.7,4.361,4.361,0,0,1,4.358-4.646,4.478,4.478,0,0,1,4.442,4.705,4.371,4.371,0,0,1-4.385,4.644Zm18.513-12.618H110.66v-3.95a.256.256,0,0,0-.255-.257h-3.512a.258.258,0,0,0-.258.257v3.95h-1.687a.256.256,0,0,0-.255.257V20.97a.256.256,0,0,0,.255.257h1.687v7.809c0,3.154,1.57,4.754,4.67,4.754a6.4,6.4,0,0,0,3.287-.819.251.251,0,0,0,.13-.222V29.873a.256.256,0,0,0-.122-.217.249.249,0,0,0-.249-.011,4.433,4.433,0,0,1-2.061.5c-1.125,0-1.63-.513-1.63-1.657V21.228h3.864a.256.256,0,0,0,.255-.257V17.954a.249.249,0,0,0-.252-.257l0,0Zm13.461.015v-.485c0-1.427.548-2.064,1.774-2.064a5.933,5.933,0,0,1,1.98.365.256.256,0,0,0,.336-.245V12.323a.254.254,0,0,0-.182-.247,9.619,9.619,0,0,0-2.918-.419c-3.241,0-4.957,1.826-4.957,5.279v.743h-1.687a.258.258,0,0,0-.258.257V20.97a.259.259,0,0,0,.258.257h1.687V33.269a.257.257,0,0,0,.258.258h3.509a.256.256,0,0,0,.258-.258V21.228h3.279l5.022,12.041c-.569,1.264-1.131,1.516-1.9,1.516a4.031,4.031,0,0,1-1.936-.55.279.279,0,0,0-.2-.019.255.255,0,0,0-.152.138l-1.19,2.611a.256.256,0,0,0,.111.334,7.389,7.389,0,0,0,3.748.96c2.592,0,4.027-1.209,5.288-4.458L146.2,18.062a.257.257,0,0,0-.236-.351h-3.655a.257.257,0,0,0-.244.172l-3.745,10.694-4.1-10.7a.256.256,0,0,0-.239-.165h-6Zm-7.8-.015h-3.512a.258.258,0,0,0-.258.257V33.269a.258.258,0,0,0,.258.258h3.512a.258.258,0,0,0,.258-.258V17.953a.257.257,0,0,0-.258-.257h0Zm-1.736-6.974a2.518,2.518,0,1,0,2.517,2.517A2.518,2.518,0,0,0,118.445,10.72ZM149.2,22.62a2.477,2.477,0,1,1,2.484-2.485A2.461,2.461,0,0,1,149.2,22.62Zm.014-4.709a2.231,2.231,0,1,0,2.21,2.224,2.209,2.209,0,0,0-2.21-2.224Zm.548,2.478.7.978h-.591l-.629-.9h-.54v.9h-.494V18.774h1.155c.6,0,1,.308,1,.827a.77.77,0,0,1-.6.788Zm-.418-1.17H148.7v.82h.643c.32,0,.513-.157.513-.411S149.666,19.219,149.346,19.219Z" transform="translate(1127.624 2172.684)" fill="#fff"/>
  </g>
</svg>
