<svg xmlns="http://www.w3.org/2000/svg" xmlns:xlink="http://www.w3.org/1999/xlink" width="212" height="132" viewBox="0 0 212 132">
  <defs>
    <linearGradient id="linear-gradient" x1="0.957" y1="0.046" x2="0.043" y2="0.959" gradientUnits="objectBoundingBox">
      <stop offset="0" stop-color="#fdf271"/>
      <stop offset="1" stop-color="#89e7f2"/>
    </linearGradient>
    <clipPath id="clip-path">
      <rect id="Rectangle_19709" data-name="Rectangle 19709" width="162.242" height="23.282" fill="none"/>
    </clipPath>
  </defs>
  <g id="Group_28057" data-name="Group 28057" transform="translate(-372 -2292)">
    <rect id="Rectangle_19701" data-name="Rectangle 19701" width="212" height="132" rx="24" transform="translate(372 2292)" fill="url(#linear-gradient)"/>
    <g id="Group_24848" data-name="Group 24848" transform="translate(396.947 2346.275)">
      <g id="Group_24847" data-name="Group 24847" clip-path="url(#clip-path)">
        <path id="Path_43279" data-name="Path 43279" d="M7.953,23.282a16.024,16.024,0,0,1-5.432-1.729C1.678,21.048.868,20.49,0,19.928l1.917-4.056a11.178,11.178,0,0,0,4.84,2.942,17.27,17.27,0,0,0,3.644.3,3.211,3.211,0,0,0,1.579-.573A2.05,2.05,0,0,0,12,14.985a16.221,16.221,0,0,0-3.089-1.17c-1.338-.433-2.729-.721-4.041-1.218C1.706,11.4.5,9.512.6,6.4A6.453,6.453,0,0,1,5.837.347,12.477,12.477,0,0,1,16.238,2.5a.907.907,0,0,1,.251.832c-.49,1.113-1.064,2.19-1.623,3.308-.823-.508-1.584-1.022-2.386-1.464A7.7,7.7,0,0,0,7.729,4.126a4.157,4.157,0,0,0-1.45.426,2.031,2.031,0,0,0-.066,3.676,18.9,18.9,0,0,0,3.02,1.11c1.639.559,3.343.973,4.915,1.678a5.407,5.407,0,0,1,3.346,5.613,6.089,6.089,0,0,1-3.54,5.6,24.031,24.031,0,0,1-3.3,1.056Z" transform="translate(0 0)"/>
        <path id="Path_43280" data-name="Path 43280" d="M316.94,16.365V24.5h-4.568V2.036c.339,0,.658,0,.976,0,2.943.03,5.889-.026,8.826.115a6.63,6.63,0,0,1,6.433,5.4c.493,3.059-.414,5.927-3.41,7.525-.1.052-.187.123-.312.207l5.361,9.29c-1.747,0-3.326.035-4.9-.033-.277-.012-.611-.415-.788-.714q-2.006-3.39-3.945-6.819a1.061,1.061,0,0,0-1.12-.655c-.8.049-1.614.012-2.554.012m.037-10.257v5.939c1.681-.1,3.33-.077,4.94-.318A2.585,2.585,0,0,0,324.142,9a2.528,2.528,0,0,0-2.315-2.638c-1.582-.213-3.2-.177-4.85-.253" transform="translate(-255.986 -1.667)"/>
        <path id="Path_43281" data-name="Path 43281" d="M417.721,24.794,429.3,6.494h-10.63v-4.1H437.28L425.689,20.726h11.358v4.068Z" transform="translate(-342.318 -1.961)"/>
        <path id="Path_43282" data-name="Path 43282" d="M190.475,1.678l11.5,22.6c-1.586,0-3.039.019-4.49-.023-.191-.005-.435-.282-.549-.491-.431-.784-.853-1.576-1.211-2.394a1,1,0,0,0-1.108-.65q-4.143.041-8.286,0a1.032,1.032,0,0,0-1.113.66c-.369.814-.764,1.62-1.21,2.394a1.057,1.057,0,0,1-.724.486c-1.348.048-2.7.022-4.233.022l11.427-22.6m-2.786,14.879h5.571l-2.784-5.46-2.786,5.46" transform="translate(-146.728 -1.375)"/>
        <path id="Path_43283" data-name="Path 43283" d="M101.513,6.461V2.351h17.936V6.405h-6.619V24.776h-4.583V6.461Z" transform="translate(-83.189 -1.926)"/>
        <path id="Path_43284" data-name="Path 43284" d="M734.737,24.239c-.976.279-1.466-.048-1.788-1.011-.687-2.06-1.536-4.067-2.275-6.111a.8.8,0,0,0-.9-.636q-4.143.031-8.286,0a.862.862,0,0,0-.978.667c-.727,2.048-1.514,4.075-2.276,6.111-.432,1.155-.429,1.156-1.815.964q1.342-3.567,2.673-7.1c1.851-4.9,3.712-9.8,5.545-14.711.183-.491.394-.715.951-.694.506.019.8.115,1,.644q4.053,10.837,8.149,21.658a.81.81,0,0,1,0,.223M729.9,15.166,725.617,3.573,721.3,15.166Z" transform="translate(-587.099 -1.404)"/>
        <path id="Path_43285" data-name="Path 43285" d="M545.76,2.226c2.922,0,5.81-.175,8.666.049S560.189,4.658,560,9.248a6.212,6.212,0,0,1-5.745,5.951c-1.969.157-3.957.082-5.937.109-.386.005-.773,0-1.262,0v9.3H545.76Zm1.3,11.782c2.357,0,4.642.118,6.909-.032A4.769,4.769,0,0,0,558.5,9.849c.413-2.839-.6-5.024-2.856-5.947a6.344,6.344,0,0,0-2.176-.462c-2.121-.06-4.245-.021-6.411-.021Z" transform="translate(-447.245 -1.771)"/>
        <path id="Path_43286" data-name="Path 43286" d="M806.284,1.874a1.653,1.653,0,0,1,2.132.881c2.013,3.481,4.127,6.905,6.232,10.4.9-1.509,1.8-3.029,2.7-4.542Q819.1,5.7,820.868,2.788c.651-1.077.652-1.077,2.116-.926-.86,1.439-1.689,2.836-2.528,4.228-1.6,2.659-3.216,5.308-4.793,7.979a2.619,2.619,0,0,0-.333,1.251c-.029,2.655-.015,5.31-.015,7.965v1.023H814v-.956c0-2.625.024-5.251-.02-7.875a3.32,3.32,0,0,0-.437-1.576c-2.378-4-4.8-7.967-7.254-12.028" transform="translate(-660.742 -1.459)"/>
        <path id="Path_43287" data-name="Path 43287" d="M638.9,23.4h10.8v1.237H637.615V2.161H638.9Z" transform="translate(-522.52 -1.771)"/>
      </g>
    </g>
  </g>
</svg>
