<svg xmlns="http://www.w3.org/2000/svg" xmlns:xlink="http://www.w3.org/1999/xlink" width="40" height="40" viewBox="0 0 40 40">
  <defs>
    <clipPath id="clip-path">
      <circle id="Ellipse_1004" data-name="Ellipse 1004" cx="20" cy="20" r="20" transform="translate(-5443 -13241)" fill="#fff" stroke="#707070" stroke-width="1"/>
    </clipPath>
  </defs>
  <g id="Mask_Group_3533" data-name="Mask Group 3533" transform="translate(5443 13241)" clip-path="url(#clip-path)">
    <g id="gb" transform="translate(-5443 -13236)">
      <path id="Path_44169" data-name="Path 44169" d="M0,0H40V39.338H0Z" transform="translate(0 -4.669)" fill="#012169"/>
      <path id="Path_44170" data-name="Path 44170" d="M4.688,0l15.25,11.313L35.126,0H40V3.875L25,15.063,40,26.188V30H35L20,18.813,5.063,30H0V26.25L14.938,15.125,0,4V0Z" fill="#fff"/>
      <path id="Path_44171" data-name="Path 44171" d="M26.5,17.563,40,27.5V30L23.063,17.563ZM15,18.813,15.375,21l-12,9H0ZM40,0V.188L24.438,11.938l.125-2.75L36.876,0ZM0,0,14.938,11h-3.75L0,2.625Z" fill="#c8102e"/>
      <path id="Path_44172" data-name="Path 44172" d="M15.063-5V35h10V-5ZM0,10V20H40V10Z" fill="#fff"/>
      <path id="Path_44173" data-name="Path 44173" d="M0,12.063v6H40v-6ZM17.063-5V35h6V-5Z" fill="#c8102e"/>
    </g>
  </g>
</svg>
