<svg xmlns="http://www.w3.org/2000/svg" width="212" height="132" viewBox="0 0 212 132">
  <g id="Group_28060" data-name="Group 28060" transform="translate(-372 -2130)">
    <rect id="Rectangle_19694" data-name="Rectangle 19694" width="212" height="132" rx="24" transform="translate(372 2130)" fill="#fff0d9"/>
    <g id="Amazon_icon" transform="translate(438.512 2159.563)">
      <path id="Path_43274" data-name="Path 43274" d="M66.027,195.951c-29.841,14.2-48.361,2.32-60.217-4.9-.734-.455-1.98.106-.9,1.349,3.95,4.789,16.893,16.332,33.788,16.332s26.965-9.225,28.223-10.834.367-2.476-.9-1.949Zm8.381-4.628c-.8-1.044-4.873-1.238-7.435-.923s-6.418,1.874-6.083,2.816c.172.353.523.195,2.286.036,1.768-.176,6.72-.8,7.752.548s-1.579,7.829-2.057,8.872c-.462,1.044.176,1.313,1.044.618a13.535,13.535,0,0,0,3.443-5.04c1.032-2.56,1.661-6.131,1.052-6.926Z" transform="translate(0 -135.996)" fill="#f90"/>
      <path id="Path_43275" data-name="Path 43275" d="M79.538,30.976c0,3.726.094,6.834-1.789,10.143-1.52,2.691-3.928,4.345-6.619,4.345-3.673,0-5.812-2.8-5.812-6.928,0-8.153,7.3-9.632,14.22-9.632ZM89.184,54.29a2,2,0,0,1-2.26.229c-3.175-2.637-3.74-3.861-5.489-6.377C76.188,53.5,72.475,55.1,65.668,55.1c-8.045,0-14.314-4.964-14.314-14.906a16.252,16.252,0,0,1,10.2-15.632C66.744,22.272,74,21.868,79.538,21.236V20c0-2.274.175-4.964-1.157-6.928a6.4,6.4,0,0,0-5.368-2.489c-3.646,0-6.9,1.87-7.695,5.744a2,2,0,0,1-1.655,1.749l-9.283-1a1.694,1.694,0,0,1-1.426-2C55.094,3.828,65.251.438,74.345.438,79,.438,85.08,1.676,88.753,5.2c4.655,4.345,4.211,10.143,4.211,16.453V36.559c0,4.48,1.857,6.444,3.605,8.866a1.8,1.8,0,0,1-.027,2.542c-1.951,1.628-5.422,4.655-7.332,6.35l-.027-.027" transform="translate(-33.576)" fill-rule="evenodd"/>
      <path id="Path_43276" data-name="Path 43276" d="M66.027,195.951c-29.841,14.2-48.361,2.32-60.217-4.9-.734-.455-1.98.106-.9,1.349,3.95,4.789,16.893,16.332,33.788,16.332s26.965-9.225,28.223-10.834.367-2.476-.9-1.949Zm8.381-4.628c-.8-1.044-4.873-1.238-7.435-.923s-6.418,1.874-6.083,2.816c.172.353.523.195,2.286.036,1.768-.176,6.72-.8,7.752.548s-1.579,7.829-2.057,8.872c-.462,1.044.176,1.313,1.044.618a13.535,13.535,0,0,0,3.443-5.04c1.032-2.56,1.661-6.131,1.052-6.926Z" transform="translate(0 -135.996)" fill="#f90"/>
      <path id="Path_43277" data-name="Path 43277" d="M79.538,30.976c0,3.726.094,6.834-1.789,10.143-1.52,2.691-3.928,4.345-6.619,4.345-3.673,0-5.812-2.8-5.812-6.928,0-8.153,7.3-9.632,14.22-9.632ZM89.184,54.29a2,2,0,0,1-2.26.229c-3.175-2.637-3.74-3.861-5.489-6.377C76.188,53.5,72.475,55.1,65.668,55.1c-8.045,0-14.314-4.964-14.314-14.906a16.252,16.252,0,0,1,10.2-15.632C66.744,22.272,74,21.868,79.538,21.236V20c0-2.274.175-4.964-1.157-6.928a6.4,6.4,0,0,0-5.368-2.489c-3.646,0-6.9,1.87-7.695,5.744a2,2,0,0,1-1.655,1.749l-9.283-1a1.694,1.694,0,0,1-1.426-2C55.094,3.828,65.251.438,74.345.438,79,.438,85.08,1.676,88.753,5.2c4.655,4.345,4.211,10.143,4.211,16.453V36.559c0,4.48,1.857,6.444,3.605,8.866a1.8,1.8,0,0,1-.027,2.542c-1.951,1.628-5.422,4.655-7.332,6.35l-.027-.027" transform="translate(-33.576)" fill-rule="evenodd"/>
    </g>
  </g>
</svg>
