<svg id="Component_87_11" data-name="Component 87 – 11" xmlns="http://www.w3.org/2000/svg" xmlns:xlink="http://www.w3.org/1999/xlink" width="170" height="60" viewBox="0 0 170 60">
  <defs>
    <clipPath id="clip-path">
      <rect id="Rectangle_19524" data-name="Rectangle 19524" width="121.249" height="33.288" transform="translate(0 0)" fill="#fff"/>
    </clipPath>
  </defs>
  <rect id="Rectangle_19533" data-name="Rectangle 19533" width="170" height="60" rx="16" fill="#9b32e0"/>
  <g id="Group_24535" data-name="Group 24535" transform="translate(19231 4697)">
    <rect id="Rectangle_19531" data-name="Rectangle 19531" width="170" height="60" rx="16" transform="translate(-19231 -4697)"/>
    <g id="Group_24531" data-name="Group 24531" transform="translate(-19207 -4684)">
      <g id="Group_24530" data-name="Group 24530" clip-path="url(#clip-path)">
        <g id="Group_26752" data-name="Group 26752">
          <path id="Path_43125" data-name="Path 43125" d="M7.816,28.746H6.984A4.725,4.725,0,0,1,4.733,27.36a17.931,17.931,0,0,1-4.6-9.846,11.389,11.389,0,0,1,.152-4.291A7.656,7.656,0,0,1,3.976,8.1a5.616,5.616,0,0,1,4.188-.679,20.113,20.113,0,0,1,2.431.827,2.682,2.682,0,0,0,2.171.016c.48-.213.984-.369,1.478-.549a7.091,7.091,0,0,1,6.726.807A4.912,4.912,0,0,1,22.4,10.054a5.951,5.951,0,0,0-3.024,5.8A6.114,6.114,0,0,0,23.163,21.2c-.024.091-.036.145-.053.2a18.19,18.19,0,0,1-3.462,5.882,3.576,3.576,0,0,1-3.886,1.293A16.918,16.918,0,0,1,14.116,28a5.139,5.139,0,0,0-3.495-.174c-.938.3-1.87.611-2.805.918" fill="#fff"/>
          <path id="Path_43126" data-name="Path 43126" d="M17.235.367A5.581,5.581,0,0,1,16.711,3.4a6.445,6.445,0,0,1-3,3.137,4.117,4.117,0,0,1-2.129.352C11.2,3.906,13.8.67,17.235.367" fill="#fff"/>
        </g>
        <path id="Path_43127" data-name="Path 43127" d="M36.942,25.2l-1.205,3.969H33.1l4.489-14h3.262l4.55,14H42.655L41.387,25.2Zm4.009-1.932-1.1-3.449c-.271-.852-.5-1.807-.707-2.618H39.1c-.208.811-.416,1.788-.664,2.618l-1.082,3.449Z" fill="#fff"/>
        <path id="Path_43128" data-name="Path 43128" d="M47.148,22.422c0-1.33-.042-2.412-.083-3.367h2.243l.125,1.558h.042a3.941,3.941,0,0,1,3.47-1.786c2.326,0,4.259,1.994,4.259,5.153,0,3.656-2.306,5.422-4.612,5.422a3.319,3.319,0,0,1-2.846-1.35H49.7v5.236H47.148ZM49.7,24.935a2.65,2.65,0,0,0,.082.707,2.312,2.312,0,0,0,2.245,1.786c1.621,0,2.576-1.35,2.576-3.345,0-1.786-.872-3.241-2.514-3.241A2.638,2.638,0,0,0,49.7,23.377Z" fill="#fff"/>
        <path id="Path_43129" data-name="Path 43129" d="M59.309,22.422c0-1.33-.042-2.412-.083-3.367h2.243l.125,1.558h.042a3.941,3.941,0,0,1,3.47-1.786c2.326,0,4.259,1.994,4.259,5.153,0,3.656-2.306,5.422-4.612,5.422a3.319,3.319,0,0,1-2.846-1.35h-.042v5.236H59.309Zm2.556,2.513a2.65,2.65,0,0,0,.082.707,2.311,2.311,0,0,0,2.245,1.786c1.621,0,2.576-1.35,2.576-3.345,0-1.786-.872-3.241-2.514-3.241a2.638,2.638,0,0,0-2.389,2.535Z" fill="#fff"/>
        <path id="Path_43130" data-name="Path 43130" d="M75.813,26.39a7.072,7.072,0,0,0,3.387.894c1.641,0,2.555-.769,2.555-1.912,0-1.059-.706-1.683-2.493-2.327-2.306-.831-3.782-2.057-3.782-4.073,0-2.285,1.912-4.03,4.945-4.03a7.414,7.414,0,0,1,3.367.706L83.168,17.7a5.938,5.938,0,0,0-2.783-.665c-1.621,0-2.328.873-2.328,1.683,0,1.081.81,1.579,2.681,2.306,2.43.914,3.615,2.141,3.615,4.156,0,2.244-1.7,4.2-5.32,4.2a8.322,8.322,0,0,1-3.781-.873Z" fill="#fff"/>
        <path id="Path_43131" data-name="Path 43131" d="M89.406,16.168v2.887h2.431v1.912H89.406v4.467c0,1.225.333,1.869,1.31,1.869a3.8,3.8,0,0,0,1-.123l.041,1.952a5.619,5.619,0,0,1-1.849.25,2.952,2.952,0,0,1-2.2-.832,4.024,4.024,0,0,1-.79-2.825V20.967H85.458V19.055h1.455V16.77Z" fill="#fff"/>
        <path id="Path_43132" data-name="Path 43132" d="M103.268,24.022A5.013,5.013,0,0,1,98.073,29.4,4.892,4.892,0,0,1,93,24.188a5,5,0,0,1,5.236-5.361,4.855,4.855,0,0,1,5.028,5.195m-7.626.1c0,1.954.957,3.428,2.515,3.428,1.454,0,2.473-1.433,2.473-3.47,0-1.578-.707-3.386-2.452-3.386-1.809,0-2.536,1.745-2.536,3.428" fill="#fff"/>
        <path id="Path_43133" data-name="Path 43133" d="M105.372,22.317c0-1.371-.021-2.348-.083-3.262h2.223l.083,1.932h.084a3.016,3.016,0,0,1,2.763-2.16,2.658,2.658,0,0,1,.6.062V21.3a3.514,3.514,0,0,0-.747-.084,2.256,2.256,0,0,0-2.287,1.934,4.525,4.525,0,0,0-.082.789v5.236h-2.556Z" fill="#fff"/>
        <path id="Path_43134" data-name="Path 43134" d="M114.392,24.832c.063,1.828,1.5,2.618,3.117,2.618a7.6,7.6,0,0,0,2.805-.457l.374,1.766a9.509,9.509,0,0,1-3.532.624c-3.283,0-5.215-2.016-5.215-5.112,0-2.805,1.7-5.443,4.944-5.443,3.284,0,4.364,2.7,4.364,4.924a6.347,6.347,0,0,1-.083,1.08Zm4.447-1.787a2.176,2.176,0,0,0-2.1-2.473,2.5,2.5,0,0,0-2.348,2.473Z" fill="#fff"/>
        <path id="Path_43135" data-name="Path 43135" d="M33.1.53A14.5,14.5,0,0,1,35.272.364a4.528,4.528,0,0,1,3.209.989A3.645,3.645,0,0,1,39.6,4.2a4.194,4.194,0,0,1-1.139,3.081,4.882,4.882,0,0,1-3.5,1.141A16.688,16.688,0,0,1,33.1,8.325Zm1.022,7.007a6.473,6.473,0,0,0,1.035.059,3.047,3.047,0,0,0,3.375-3.363c.012-1.87-1.047-3.057-3.21-3.057a5.808,5.808,0,0,0-1.2.106Z" fill="#fff"/>
        <path id="Path_43136" data-name="Path 43136" d="M46.085,5.456a2.781,2.781,0,0,1-2.834,3.022A2.706,2.706,0,0,1,40.523,5.55a2.779,2.779,0,0,1,2.822-3.022,2.7,2.7,0,0,1,2.74,2.928m-4.515.059c0,1.246.717,2.187,1.728,2.187.987,0,1.728-.929,1.728-2.21,0-.965-.481-2.188-1.7-2.188S41.57,4.433,41.57,5.515" fill="#fff"/>
        <path id="Path_43137" data-name="Path 43137" d="M47.714,2.657l.752,2.893c.166.634.318,1.222.424,1.81h.035c.13-.576.318-1.187.506-1.81l.929-2.893h.871L52.112,5.5c.211.682.377,1.282.505,1.858h.035a17.613,17.613,0,0,1,.435-1.846L53.9,2.657h1.024L53.087,8.348h-.94l-.87-2.716a18.936,18.936,0,0,1-.505-1.87h-.024a17.058,17.058,0,0,1-.517,1.882l-.917,2.7h-.941L46.656,2.657Z" fill="#fff"/>
        <path id="Path_43138" data-name="Path 43138" d="M55.951,4.2c0-.587-.011-1.07-.047-1.54h.917l.059.941H56.9a2.09,2.09,0,0,1,1.88-1.07c.788,0,2.011.47,2.011,2.421v3.4H59.76V5.067c0-.917-.34-1.681-1.316-1.681a1.47,1.47,0,0,0-1.388,1.058,1.489,1.489,0,0,0-.07.482V8.348H55.951Z" fill="#fff"/>
        <rect id="Rectangle_19523" data-name="Rectangle 19523" width="1.035" height="8.348" transform="translate(62.473 0)" fill="#fff"/>
        <path id="Path_43139" data-name="Path 43139" d="M70.4,5.456a2.781,2.781,0,0,1-2.834,3.022A2.706,2.706,0,0,1,64.834,5.55a2.779,2.779,0,0,1,2.822-3.022A2.7,2.7,0,0,1,70.4,5.456m-4.515.059c0,1.246.717,2.187,1.728,2.187.987,0,1.728-.929,1.728-2.21,0-.965-.481-2.188-1.7-2.188s-1.752,1.129-1.752,2.211" fill="#fff"/>
        <path id="Path_43140" data-name="Path 43140" d="M75.7,6.984a7.98,7.98,0,0,0,.092,1.364h-.939l-.082-.717H74.73a2.118,2.118,0,0,1-1.739.846,1.623,1.623,0,0,1-1.742-1.634c0-1.376,1.225-2.128,3.423-2.116V4.609a1.174,1.174,0,0,0-1.293-1.317,2.841,2.841,0,0,0-1.482.423l-.236-.682a3.54,3.54,0,0,1,1.87-.5c1.74,0,2.165,1.187,2.165,2.328Zm-1-1.54c-1.13-.023-2.411.176-2.411,1.281a.915.915,0,0,0,.976.988,1.417,1.417,0,0,0,1.375-.952,1.064,1.064,0,0,0,.06-.329Z" fill="#fff"/>
        <path id="Path_43141" data-name="Path 43141" d="M82.275,0V6.879c0,.5.011,1.081.046,1.469h-.928l-.047-.987h-.023a2.107,2.107,0,0,1-1.941,1.116c-1.375,0-2.434-1.164-2.434-2.892-.011-1.893,1.165-3.057,2.553-3.057a1.9,1.9,0,0,1,1.716.87h.023V0ZM81.24,4.974a1.784,1.784,0,0,0-.047-.435,1.522,1.522,0,0,0-1.493-1.2c-1.07,0-1.7.941-1.7,2.2,0,1.152.563,2.105,1.681,2.105a1.555,1.555,0,0,0,1.516-1.235,1.76,1.76,0,0,0,.047-.446Z" fill="#fff"/>
        <path id="Path_43142" data-name="Path 43142" d="M91.629,5.456a2.781,2.781,0,0,1-2.834,3.022A2.707,2.707,0,0,1,86.066,5.55a2.779,2.779,0,0,1,2.822-3.022,2.7,2.7,0,0,1,2.741,2.928m-4.515.059c0,1.246.716,2.187,1.727,2.187.987,0,1.728-.929,1.728-2.21,0-.965-.48-2.188-1.7-2.188s-1.752,1.129-1.752,2.211" fill="#fff"/>
        <path id="Path_43143" data-name="Path 43143" d="M92.929,4.2c0-.587-.011-1.07-.047-1.54H93.8l.059.941h.024a2.09,2.09,0,0,1,1.88-1.07c.788,0,2.011.47,2.011,2.421v3.4H96.738V5.067c0-.917-.34-1.681-1.316-1.681a1.47,1.47,0,0,0-1.388,1.058,1.489,1.489,0,0,0-.07.482V8.348H92.929Z" fill="#fff"/>
        <path id="Path_43144" data-name="Path 43144" d="M103.188,1.293V2.657h1.481v.788h-1.481V6.514c0,.7.2,1.105.775,1.105a1.926,1.926,0,0,0,.6-.071l.047.776a2.494,2.494,0,0,1-.917.153,1.439,1.439,0,0,1-1.116-.447,2.1,2.1,0,0,1-.4-1.481v-3.1h-.882V2.657h.882V1.611Z" fill="#fff"/>
        <path id="Path_43145" data-name="Path 43145" d="M105.831,0h1.035V3.551h.023a1.917,1.917,0,0,1,.741-.729,2.134,2.134,0,0,1,1.058-.294c.764,0,1.987.47,1.987,2.434V8.348H109.64V5.08c0-.918-.34-1.694-1.316-1.694a1.487,1.487,0,0,0-1.388,1.035,1.25,1.25,0,0,0-.07.494V8.348h-1.035Z" fill="#fff"/>
        <path id="Path_43146" data-name="Path 43146" d="M112.927,5.691a1.824,1.824,0,0,0,1.953,1.975,3.748,3.748,0,0,0,1.574-.293l.176.74a4.559,4.559,0,0,1-1.892.364,2.652,2.652,0,0,1-2.8-2.88c0-1.716,1.012-3.069,2.67-3.069a2.412,2.412,0,0,1,2.352,2.681,3.822,3.822,0,0,1-.036.482Zm3.034-.741a1.474,1.474,0,0,0-1.434-1.681,1.716,1.716,0,0,0-1.589,1.681Z" fill="#fff"/>
      </g>
    </g>
  </g>
</svg>
