<svg xmlns="http://www.w3.org/2000/svg" xmlns:xlink="http://www.w3.org/1999/xlink" width="1440" height="719" viewBox="0 0 1440 719">
  <defs>
    <clipPath id="clip-path">
      <rect id="Rectangle_19959" data-name="Rectangle 19959" width="1440" height="719" transform="translate(-12399 4759)" fill="#eee"/>
    </clipPath>
    <clipPath id="clip-path-2">
      <rect id="Rectangle_19961" data-name="Rectangle 19961" width="1440" height="719" transform="translate(0 395)" fill="#eee"/>
    </clipPath>
    <clipPath id="clip-path-3">
      <rect id="Rectangle_19960" data-name="Rectangle 19960" width="1440" height="758.831" transform="translate(0 0)" fill="none"/>
    </clipPath>
  </defs>
  <g id="Group_26688" data-name="Group 26688" transform="translate(0 -163)">
    <rect id="Rectangle_19959-2" data-name="Rectangle 19959" width="1440" height="719" transform="translate(0 163)" fill="#eee"/>
    <g id="Mask_Group_3493" data-name="Mask Group 3493" transform="translate(12399 -4596)" clip-path="url(#clip-path)">
      <g id="Mask_Group_3491" data-name="Mask Group 3491" transform="translate(-12399 4364)" opacity="0.14" clip-path="url(#clip-path-2)">
        <g id="Group_25647" data-name="Group 25647" transform="translate(0 441.673)">
          <g id="Group_25646" data-name="Group 25646" transform="translate(0 0)" clip-path="url(#clip-path-3)">
            <path id="Path_43654" data-name="Path 43654" d="M1364.434,758.83h-.5c-20.046-25.46-39.7-51.521-59.293-77.5-64.656-85.729-128.6-170.519-203.492-229.541C928.474,315.7,697.5,316.655,265.254,758.83h-.546C697.338,316.181,928.532,315.25,1101.4,451.492c74.928,59.053,138.891,143.863,203.563,229.613,19.649,26.053,39.365,52.194,59.472,77.724m17.029,0h-.519c-25.577-29.773-50.641-60.685-75.677-91.562-69.486-85.7-138.749-171.129-218.139-231.106C900.94,295.5,658.923,294.879,227.394,758.83h-.535C658.747,294.4,900.988,295.052,1087.373,435.859c79.432,60.008,148.708,145.45,218.209,231.169,25.1,30.96,50.232,61.956,75.882,91.8m20.052,0h-.536c-31.5-33.707-62.411-69.342-93.4-105.057-74.723-86.135-149.852-172.736-234.49-233.836C872.8,275.347,619.135,273.655,191.272,758.83h-.526c428.2-485.651,682.091-483.938,882.586-339.2,84.674,61.125,159.818,147.744,234.559,233.9,31.059,35.8,62.05,71.527,93.625,105.3m23.105,0h-.556c-37.686-37.18-74.847-77.389-112.271-117.883-80.523-87.13-162.271-175.586-253.105-238.025C843.8,255.213,577.96,253.226,156.951,758.83h-.51c421.318-506.077,687.389-504.07,902.479-356.222,90.867,62.461,172.631,150.934,253.171,238.082,37.51,40.59,74.756,80.889,112.531,118.14M1440,748.919v.534c-40.561-37.619-80.953-78.817-121.859-120.54-87.056-88.793-176.433-179.957-274.664-243.993C813.647,235.1,535.247,233.87,124.51,758.83h-.5C535.035,233.4,813.663,234.643,1043.7,384.6c98.27,64.061,187.663,155.24,274.731,244.047,40.81,41.625,81.109,82.727,121.571,120.272m0-24.943v.526c-37.285-33.514-74.866-69.79-113.074-106.672-94.5-91.224-192.836-186.148-299.982-252.085C781.987,215,490.887,215.88,94.024,758.83h-.488c397.125-543.416,688.455-544.281,933.62-393.411,107.182,65.957,205.532,160.9,300.051,252.137,38.112,36.79,75.6,72.976,112.793,106.42m0-25.01v.52c-33.236-28.99-67.026-59.983-101.479-91.587-103.053-94.526-212.063-194.515-330.01-262.665-260.07-150.27-563.677-145.672-942.93,413.6h-.475C444.6,199.1,748.434,194.511,1008.716,344.9,1126.7,413.076,1235.728,513.08,1338.795,607.62c34.361,31.517,68.058,62.426,101.206,91.346m0-25.069v.511c-28.255-23.944-57.123-49.208-86.605-75.01-112.866-98.779-234.751-205.451-365.839-276.124C712.611,175.048,397.121,185.214,39.275,758.83h-.463C396.868,184.761,712.59,174.6,987.748,322.938c131.127,70.693,253.031,177.381,365.914,276.175,29.39,25.721,58.168,50.908,86.339,74.784m0-25.127v.506c-22.128-18.236-44.751-37.211-67.843-56.577C1248.116,488.662,1110.533,373.268,963.422,299.82,674.116,155.381,347.916,173.239,15.279,758.83h-.455C347.646,172.789,674.082,154.93,963.6,299.479c147.151,73.467,284.755,188.878,408.814,292.929,23,19.291,45.536,38.191,67.582,56.362m0-25.177v.5q-21.8-17.491-44.369-35.759C1259.083,478.04,1102.152,351.283,935.463,274.908,634.687,137.1,302.09,163.412,0,746.49v-.865C302.135,162.943,634.785,136.714,935.633,274.559c166.736,76.4,323.688,203.172,460.255,313.48q22.43,18.115,44.113,35.553m0-25.224v.5q-7.463-5.835-15.034-11.759c-150.089-117.434-331.187-259.129-521.913-338.441C597.484,121.594,267.177,154.763,0,704.4v-.905C267.241,154.3,597.586,121.216,903.21,248.31c190.774,79.333,371.9,221.046,522.007,338.495q7.444,5.824,14.784,11.564m0-25.268v.491c-160.565-122.445-363.536-273.8-574.375-352.272C558.12,106.874,233.868,147.578,0,659.229v-.942C233.958,147.12,558.229,106.5,865.768,220.959,1076.556,299.409,1279.454,450.674,1440,573.1m0-25.31v.487c-169.352-126.062-391.14-281.093-617.289-355.066C516.82,93.155,202.943,141.5,0,610.444v-.994C203.06,141.035,516.937,92.786,822.837,192.845c226.1,73.958,447.82,228.9,617.163,354.945m0-25.343v.481C1243.964,380.38,971.081,203.027,706.307,148.24,429.727,91.011,162.014,167.608,0,557.362v-1.025c162.14-389.216,429.832-465.7,706.39-408.474C971.132,202.642,1243.95,379.905,1440,522.448m0-25.38v.478C1240.212,355.527,954.186,181.272,681.674,128.539,406.31,75.254,144.765,146.1,0,499.735V498.7C144.922,145.614,406.432,74.884,681.752,128.16,954.227,180.887,1240.19,355.057,1440,497.067m0-25.413v.476C1237,330.967,938.724,160.324,659.048,109.2c-109.04-19.931-215.25-21.691-311.873,3.551s-183.65,77.48-254.354,165.553C57.534,322.261,26.316,375.148,0,438.055v-1.023c26.252-62.554,57.361-115.186,92.506-158.964,70.761-88.143,157.87-140.426,254.564-165.688s202.955-23.5,312.05-3.556C938.759,159.937,1236.968,330.5,1440,471.654m0-25.446v.47C1223.508,299.32,891.979,122.508,593.559,83.3,491.2,69.849,392.74,72.589,304.16,98.263S136.9,172.536,74.059,250.81C46.045,285.706,21.184,326.5,0,373.793v-.974c21.116-46.973,45.873-87.526,73.746-122.247,62.891-78.341,141.654-126.985,230.3-152.679S491.2,69.46,593.612,82.915C892,122.123,1223.464,298.853,1440,446.208m0-25.478v.469C1282.675,316.313,1061.275,197.91,836.091,125.272,667.834,71,497.473,42.277,350.172,63.847,202.9,85.411,78.678,157.254,2.662,304.1Q1.32,306.7,0,309.322v-.878q1.147-2.266,2.306-4.513C78.39,156.953,202.718,85.049,350.114,63.466c147.366-21.579,317.791,7.15,486.1,61.443C1061.331,197.523,1282.662,315.866,1440,420.73m0-25.5v.464C1271.835,285.825,1026.867,162.705,782.512,93.32c-166.37-47.24-332.448-69.568-473.784-45.838C178.385,69.366,69.084,130.429,0,247.257v-.774C69.167,129.923,178.419,68.968,308.661,47.1,450.062,23.362,616.2,45.7,782.623,92.951,1026.912,162.316,1271.81,285.379,1440,395.231m0-25.528v.463C1260.667,255.28,990.125,127.693,726.38,62.577c-163.635-40.4-324.642-56.75-459.6-31.092C155.968,52.551,62.723,101.953,0,189.611v-.678C62.781,101.471,155.982,52.156,266.705,31.105,401.725,5.437,562.792,21.79,726.479,62.2,990.156,127.3,1260.631,254.835,1440,369.7m0-25.547v.458C1249.375,224.812,951.551,93.19,668.7,33.31,508.507-.6,353.128-11.5,224.768,15.79,133.537,35.187,55.962,73.887,0,137.327v-.6C56,73.428,133.532,34.792,224.684,15.413,353.1-11.892,508.54-.99,668.779,32.932,951.573,92.8,1249.327,224.366,1440,344.156M304.229,758.83C734.906,338.295,955.67,335.5,1115.686,466.7c71.01,58.225,130.05,142.82,190.176,228.973,14.711,21.079,29.49,42.252,44.522,63.156h-.486c-14.981-20.833-29.707-41.933-44.367-62.941-60.112-86.131-119.135-170.7-190.1-228.894C955.6,335.948,735.061,338.768,304.787,758.83Z" transform="translate(0 0.002)"/>
          </g>
        </g>
      </g>
    </g>
  </g>
</svg>
