<svg xmlns="http://www.w3.org/2000/svg" width="212" height="132" viewBox="0 0 212 132">
  <g id="Group_28064" data-name="Group 28064" transform="translate(-856 -2292)">
    <rect id="Rectangle_19699" data-name="Rectangle 19699" width="212" height="132" rx="24" transform="translate(856 2292)" fill="#133560"/>
    <g id="Layer_2" data-name="Layer 2" transform="translate(890.873 2334.191)">
      <g id="Layer_1" data-name="Layer 1" transform="translate(0 0.006)">
        <path id="Path_43371" data-name="Path 43371" d="M0,.15H9.308V12.343A18.138,18.138,0,1,1,24.051,45.31a18.41,18.41,0,0,1-11.672,0,18.206,18.206,0,0,1-9.792-8.06A17.964,17.964,0,0,1,0,28.3Q0,14.2,0,.169ZM17.089,19.212A9.066,9.066,0,0,0,9.2,28.129a8.8,8.8,0,0,0,1.862,5.585,9,9,0,1,0,11.69-13.291,9.308,9.308,0,0,0-5.659-1.21ZM40.078.15H49.2V24.48c0,1.768,0,3.574.093,5.343a7.446,7.446,0,0,0,6.106,6.85V45.85a16.754,16.754,0,0,1-9.2-3.723,14.892,14.892,0,0,1-4.877-6.5,25.2,25.2,0,0,1-1.247-8.9ZM58.061,9.7h9.121V27.533a15.377,15.377,0,0,0,.372,3.723,7.837,7.837,0,0,0,3.984,4.784,6.739,6.739,0,0,0,6.106-.2,7.278,7.278,0,0,0,3.351-3.723,14.092,14.092,0,0,0,.614-4.97V9.755h8.861V21.576a86.987,86.987,0,0,1-.242,9.605,18.317,18.317,0,0,1-.931,4.486,15.06,15.06,0,0,1-4.579,6.292,15.786,15.786,0,0,1-13.328,3.723,16.1,16.1,0,0,1-6.832-3.109,15.32,15.32,0,0,1-5.138-6.366,25.8,25.8,0,0,1-1.452-9.829V9.774Z" transform="translate(0 0.117)" fill="#0075fc"/>
        <path id="Path_43372" data-name="Path 43372" d="M56.643,1.707A2.83,2.83,0,0,1,60.161.162a2.774,2.774,0,0,1,1.862,2.513v7.446h7.446a2.383,2.383,0,0,1,1.862.54,2.867,2.867,0,0,1,.838,1.284q5.585,13.961,11.355,27.923,5.454-13.515,10.871-27.011A4.375,4.375,0,0,1,95.418,11a3.016,3.016,0,0,1,3.76.168,2.532,2.532,0,0,1,.6,2.736Q93.519,29.015,87.246,44.112a4.393,4.393,0,0,1-5.156,2.42,4.244,4.244,0,0,1-2.439-1.75,12.68,12.68,0,0,1-.726-1.526Q73.08,29.109,67.253,15H61.985V37.225a4.151,4.151,0,0,0,2.439,4.133v5.175a7.911,7.911,0,0,1-5.733-1.955A7.446,7.446,0,0,1,56.7,40.594a21.426,21.426,0,0,1-.2-4.1V15H52.566a2.4,2.4,0,0,1-1.6-.6,2.569,2.569,0,0,1-.149-3.593,2.234,2.234,0,0,1,1.75-.689h3.928V3.271a3.388,3.388,0,0,1,.149-1.564Z" transform="translate(43.209 -0.006)" fill="#fff"/>
      </g>
    </g>
  </g>
</svg>
