<svg xmlns="http://www.w3.org/2000/svg" width="14.118" height="14" viewBox="0 0 14.118 14">
  <path id="Path_43708" data-name="Path 43708" d="M21.811,9.57H14.752a1.747,1.747,0,0,0-1.747,1.747v1.7H11.191A1.747,1.747,0,0,0,9.44,14.755v7.068a1.751,1.751,0,0,0,1.747,1.747h7.059a1.747,1.747,0,0,0,1.747-1.747v-1.7h1.815a1.747,1.747,0,0,0,1.751-1.738V11.317A1.751,1.751,0,0,0,21.811,9.57ZM18.595,21.819a.349.349,0,0,1-.349.349H11.187a.354.354,0,0,1-.349-.349V14.755a.349.349,0,0,1,.349-.349h7.059a.345.345,0,0,1,.349.349v7.068Zm3.566-3.434a.349.349,0,0,1-.349.349H20V14.755a1.747,1.747,0,0,0-1.747-1.747H14.4V11.317a.349.349,0,0,1,.349-.349h7.059a.354.354,0,0,1,.349.349Z" transform="translate(-9.44 -9.57)" fill="#fff"/>
</svg>
