<svg xmlns="http://www.w3.org/2000/svg" xmlns:xlink="http://www.w3.org/1999/xlink" width="22" height="22" viewBox="0 0 22 22">
  <defs>
    <clipPath id="clip-path">
      <rect id="Rectangle_20820" data-name="Rectangle 20820" width="22" height="22" rx="11" transform="translate(-15739 -20798)" fill="#fffcee" stroke="#c4d6b0" stroke-miterlimit="10" stroke-width="1"/>
    </clipPath>
    <clipPath id="clip-path-2">
      <path id="Path_44156" data-name="Path 44156" d="M-79.969,0h29.482V22.113H-79.969Z" fill="rgba(0,0,0,0.7)"/>
    </clipPath>
  </defs>
  <g id="Saudi_Arabia" data-name="Saudi Arabia" transform="translate(15739 20798)" clip-path="url(#clip-path)">
    <g id="sa" transform="translate(-15662.032 -20798)" clip-path="url(#clip-path-2)">
      <path id="Path_44140" data-name="Path 44140" d="M-120,0h33.17V22.113H-120Z" transform="translate(38.187)" fill="#165d31" fill-rule="evenodd"/>
      <path id="Path_44141" data-name="Path 44141" d="M60.953,119.29c-.035.518-.086,1.425.358,1.52.531.052.238-.9.432-1.071.035-.086.1-.086.1.022v.808a.391.391,0,0,0,.3.389c.138-.009.233,0,.285.13l.069,1.4s.32.1.337-.782a7.848,7.848,0,0,1-.035-1.045c0-.1.13-.1.216-.056.138.1.2.216.415.173.328-.1.527-.255.531-.505a2.03,2.03,0,0,0-.151-.717c.017-.043-.06-.16-.043-.2.056.1.147.086.164,0a.714.714,0,0,0-.281-.432c-.117-.1-.289-.086-.346.13a1.147,1.147,0,0,0,.263.777.758.758,0,0,1,.069.384.211.211,0,0,1-.272-.052s-.259-.194-.259-.242a.933.933,0,0,0-.026-.618.8.8,0,0,0-.173-.337c-.065-.069-.151-.069-.194,0a1.168,1.168,0,0,0,.022.821c.06.177.151.289.108.289-.035.1-.108.073-.164-.043a2.876,2.876,0,0,1-.091-.752c-.022-.2-.048-.622-.181-.734-.078-.1-.194-.052-.238.043a3.559,3.559,0,0,0,.013.579,6.843,6.843,0,0,1,.16.929c.013.436-.251.19-.238-.03a1.943,1.943,0,0,0-.013-.838c-.043-.112-.091-.138-.2-.121-.082,0-.294.229-.354.618a3.366,3.366,0,0,0-.073.376c-.03.2-.16.346-.255-.026-.078-.272-.13-.933-.259-.777Z" transform="translate(-134.409 -113.023)" fill="#fff" fill-rule="evenodd"/>
      <path id="Path_44142" data-name="Path 44142" d="M64.195,177.5l-1.382.665a1.381,1.381,0,0,1,1.093-.885c.281,0,.212.108.285.22Z" transform="translate(-136.203 -169.114)" fill="#fff" fill-rule="evenodd"/>
      <path id="Path_44143" data-name="Path 44143" d="M77.787,121.9c-.726,1.879,1.706,2.142,1.978.078.026-.086.13-.168.147-.03-.056,1.87-1.883,2-2.194,1.408a1.81,1.81,0,0,1-.108-.631c-.043-.367-.238-.225-.268.138a2.312,2.312,0,0,0-.022.453c.1,1.477,2.449.842,2.833-.376.2-.674-.035-1.17.073-1.17.233.251.561.035.635-.052a.1.1,0,0,1,.16-.017.382.382,0,0,0,.57-.16,5.335,5.335,0,0,0,.078-.7c-.151.043-.259.073-.272.138l-.03.2c-.013.065-.138.065-.147-.017-.056-.259-.289-.289-.432.108-.091.078-.263.1-.281-.022.022-.268-.086-.3-.3-.177L80,119.507c.086,0,.173.065.255-.039a2.717,2.717,0,0,0-.389-.894c-.048-.06-.091-.022-.16,0a.256.256,0,0,0-.181.32c.13.812.216,1.43.35,2.246.022.091-.056.216-.16.2-.173-.117-.216-.354-.518-.346a.572.572,0,0,0-.488.462,1.053,1.053,0,0,0,0,.531.438.438,0,0,0,.492.125c.13-.056.238-.186.285-.155.03.039,0,.471-.618.8-.376.173-.678.207-.838-.1-.1-.194.009-.924-.242-.756" transform="translate(-150.042 -113.081)" fill="#fff" fill-rule="evenodd"/>
      <path id="Path_44144" data-name="Path 44144" d="M63.265,116.653a7.176,7.176,0,0,0,.834-.847l-.1-.086c-.039-.03-.035-.065,0-.1a.281.281,0,0,0,.03-.423.419.419,0,0,0-.376,0,.312.312,0,0,0-.052.415c.091.043.181.138.121.19-.285.3-1.058.825-.967.842a1.68,1.68,0,0,0,.51,0Zm-4.189,2.807a1.378,1.378,0,0,0-.138,1.218.3.3,0,0,0,.294.1c.164-.069.238-.4.2-.518-.056-.086-.1-.1-.155-.03-.112.233-.16.073-.173-.056a3.023,3.023,0,0,1,.035-.656c.03-.181,0-.13-.06-.052m11.1-.661c-.25-.544-.6-1.08-.708-1.283q-.5-.8-1.071-1.555c-.268-.32.441.134-.086-.505l-.384-.324c-.086-.06-.294-.173-.328.009a1.114,1.114,0,0,0,.017.384,1.41,1.41,0,0,0,.216.324,24.4,24.4,0,0,1,2.324,3.736c.112-.056.086-.7.022-.786" transform="translate(-132.423 -109.742)" fill="#fff" fill-rule="evenodd"/>
      <path id="Path_44145" data-name="Path 44145" d="M280.683,123.123c-.052.056.121.294.346.294a1.3,1.3,0,0,0,1-.8,1.425,1.425,0,0,0,.229-.613,13.69,13.69,0,0,0-.25-3.127.626.626,0,0,1,.009-.216c.026-.03.108,0,.151-.073.065-.065-.173-.6-.3-.808-.043-.1-.065-.155-.143.009a1.166,1.166,0,0,0-.13.587c.177,1.231.233,2.306.346,3.537a.462.462,0,0,1-.086.363,3.464,3.464,0,0,1-1.17.851m5.032,0c-.268.155-.268.333-.052.337a1.328,1.328,0,0,0,1.114-.531,1.771,1.771,0,0,0,.181-.691,13.087,13.087,0,0,0-.2-3.084,2.205,2.205,0,0,1-.035-.315c.026-.06.147,0,.19-.065.06-.065-.315-.549-.449-.756-.043-.1-.06-.155-.143.009a.963.963,0,0,0-.078.587,27.718,27.718,0,0,1,.376,3.524,1.3,1.3,0,0,1-.073.315,2.656,2.656,0,0,1-.367.428c-.121.086-.38.173-.462.242" transform="translate(-344.028 -112.261)" fill="#fff" fill-rule="evenodd"/>
      <path id="Path_44146" data-name="Path 44146" d="M272.5,122.8c0-.315,0-.583,0-.821a1.468,1.468,0,0,0-.13-.583,2.2,2.2,0,0,1-.069-.51c-.035-.19-.026-.475-.078-.7a2.264,2.264,0,0,1-.048-.4c.022-.06.1,0,.147-.069a2.564,2.564,0,0,0-.354-.98c-.048-.091-.142-.06-.251.086-.108.1-.069.32-.026.531a18.05,18.05,0,0,1,.423,3.986c-.017.112.389-.337.389-.549m-1.974-1.728a1.26,1.26,0,0,1-.622-.518.346.346,0,0,1,.017-.281.233.233,0,0,1,.233-.043s.073.1.06.117c.086.043.13.022.138-.017,0-.065-.026-.1-.026-.173a.194.194,0,0,1,.346-.1.7.7,0,0,1,.091.346c0,.056-.086-.009-.143,0s-.06.078-.065.13c-.009.143-.026.371-.03.54Zm-3.1,2.073a13.494,13.494,0,0,0-.022-1.43q-.035-.966-.16-1.926c-.052-.363.147.039.121-.173a2.232,2.232,0,0,0-.5-.929c-.073-.108-.073-.13-.19.026a1.076,1.076,0,0,0,.017.721,13.717,13.717,0,0,1,.315,2.1,16.992,16.992,0,0,1,.017,2.116c.13,0,.328-.2.4-.51" transform="translate(-330.618 -113.141)" fill="#fff" fill-rule="evenodd"/>
      <path id="Path_44147" data-name="Path 44147" d="M348.564,124.863c-.3-.5-.743-1.037-.864-1.24q-.6-.839-1.261-1.633c-.367-.389.173-.065-.069-.367a2.838,2.838,0,0,0-.436-.428c-.086-.056-.138-.164-.173.022a3.584,3.584,0,0,0-.009.484.671.671,0,0,0,.147.3,25.022,25.022,0,0,1,2.661,3.637c.112-.056.073-.691,0-.777Z" transform="translate(-406.104 -115.534)" fill="#fff" fill-rule="evenodd"/>
      <path id="Path_44148" data-name="Path 44148" d="M113.788,181.544c-.022.039-.069.086-.052.134a.118.118,0,0,0,.112.056c.048,0,.117.013.13-.013a.156.156,0,0,0,.026-.143.125.125,0,0,0-.216-.035" transform="translate(-184.777 -173.135)" fill="#165d31" fill-rule="evenodd"/>
      <path id="Path_44149" data-name="Path 44149" d="M118.5,123.949c.4.017.656.022,1.006.06l.415-.043c.458-.043.475.652.475.652,0,.41-.16.432-.363.475-.117.017-.173-.069-.238-.155a.6.6,0,0,1-.3.017c-.168-.009-.333-.009-.5-.022s-.268.022-.445,0c-.035.056-.086.134-.19.112-.086-.013-.194-.259-.164-.453.065-.138.043-.091.043-.151-1.624-.043-3.261-.117-4.85-.1-1.244,0-2.47.056-3.7.108a1.629,1.629,0,0,1-1.5-.618c.035,0,1.676.091,2.155.06.885-.009,1.7-.082,2.6-.108,1.779.03,3.546.03,5.325.155a.248.248,0,0,1,.086-.458c.022-.017.035.134.073.13.212-.013.117.272.073.328m-7.152-9.813c-.268.769.155,1.615.449,1.533.216.086.346-.32.432-.76.065-.125.108-.138.138-.073-.009.587.043.721.194.9a.493.493,0,0,0,.639.013l.259-.263a.16.16,0,0,1,.22-.013c.082.073.069.2.242.285a.526.526,0,0,0,.527-.108c.1-.168.121-.225.164-.285.069-.091.186-.052.186-.022-.013.052-.082.1-.035.194.086.06.1.022.151.009.173-.086.3-.458.3-.458,0-.138-.073-.13-.125-.1l-.134.091c-.086.013-.246.069-.328-.056a4.256,4.256,0,0,1-.143-.51c0-.009-.112-.238-.009-.251.052.009.16.039.177-.052.052-.091-.112-.346-.229-.475a.249.249,0,0,0-.371-.009c-.1.086-.082.181-.1.272a.423.423,0,0,0,.086.376,1.119,1.119,0,0,1,.207.756.3.3,0,0,1-.272.134c-.073-.013-.19-.043-.251-.51a3.4,3.4,0,0,0-.138-1.067c-.056-.143-.1-.276-.225-.039a.561.561,0,0,0-.078.527,1.555,1.555,0,0,1,.086.821,1.464,1.464,0,0,1-.16.216.249.249,0,0,1-.333.048.353.353,0,0,1-.2-.281,3.721,3.721,0,0,0-.03-.9.16.16,0,0,0-.272-.052,2.06,2.06,0,0,0-.5,1.015c-.078.251-.16.177-.216.078-.138-.13-.151-1.153-.32-.985" transform="translate(-179.488 -108.292)" fill="#fff" fill-rule="evenodd"/>
      <path id="Path_44150" data-name="Path 44150" d="M106.183,119.69c.125-.086.069-.147.251.035a3.11,3.11,0,0,1,.4,1.352c-.009.112.069.181.108.155.017-.259.652-.622,1.235-.674.086-.022.043-.19.056-.276a.559.559,0,0,1,.484-.639.566.566,0,0,1,.561.613c-.048.648-.721.756-1.1.808-.056.022-.082.048,0,.078l1.581.009.082.043c.009.043-.026.009-.086.112a1.274,1.274,0,0,0-.16.5,7.835,7.835,0,0,1-1.451.281c-.173.086-.259.2-.225.333.06.143.441.289.441.294.073.043.156.151-.022.371a1.748,1.748,0,0,1-1.576-.825c-.06-.048-.13,0-.173.06a2.467,2.467,0,0,1-1.11.924.748.748,0,0,1-.764-.246c-.1-.117-.1-.242-.13-.268-.168.073-1.594.678-1.412.393a10.055,10.055,0,0,1,1.477-1.006c.039-.125.108-.54.315-.674.013,0-.03.242-.026.346,0,.086-.009.117.009.1a3.873,3.873,0,0,0,.734-.682c.06-.086.013-.311.013-.32-.121-.311-.289-.337-.35-.492-.056-.2-.03-.436.086-.505a.238.238,0,0,1,.341.022,1.069,1.069,0,0,1,.276.514c-.022.065-.173-.043-.216-.013a.691.691,0,0,1,.16.337,1,1,0,0,1-.026.721,2.278,2.278,0,0,1-.967,1,.251.251,0,0,0,.1.233.493.493,0,0,0,.406,0,2.354,2.354,0,0,0,.963-1.006,2.2,2.2,0,0,0-.1-.959c-.125-.289-.272-.7-.272-.708,0-.181.009-.242.086-.333m-4.138-1.667c.181.086.527.048.51-.246l-.009-.134c-.035-.086-.138-.065-.16.022-.009.03.013.078-.013.091s-.073.009-.073-.073a.127.127,0,0,0-.03-.069c-.009-.009-.017-.009-.039-.009s-.026,0-.039.026a.327.327,0,0,0-.013.069.04.04,0,0,1-.035.043.071.071,0,0,1-.043-.009c-.009-.013-.022-.017-.022-.043l-.013-.069a.073.073,0,0,0-.043-.026c-.1,0-.108.117-.1.16-.009.009-.013.212.121.268" transform="translate(-173.51 -112.17)" fill="#fff" fill-rule="evenodd"/>
      <path id="Path_44151" data-name="Path 44151" d="M217.782,121.238c.181.086.618.039.51-.242l-.009-.138c-.039-.086-.138-.065-.16.026-.009.026.013.073-.017.086-.013.017-.073.009-.069-.069a.14.14,0,0,0-.03-.073.093.093,0,0,0-.043-.009c-.022,0-.022.009-.035.03a.179.179,0,0,0-.013.069.051.051,0,0,1-.039.043c-.022,0-.017,0-.035-.013s-.026-.017-.026-.039l-.013-.069a.073.073,0,0,0-.043-.026c-.1,0-.108.112-.1.155,0,.009-.009.216.13.268Zm3.11-.933c.181.086.523.048.51-.242l-.009-.138c-.039-.086-.138-.065-.16.022-.009.03.013.078-.017.1-.013.013-.073,0-.069-.078a.126.126,0,0,0-.03-.069c-.013-.009-.017-.009-.043-.009s-.022.009-.035.03l-.013.065c0,.03-.017.043-.039.043a.047.047,0,0,1-.035-.009c-.013-.013-.026-.017-.026-.039a.2.2,0,0,0-.013-.073.069.069,0,0,0-.043-.022c-.1,0-.108.112-.1.155,0,.009-.009.212.13.268Zm1.611,2.345a1.111,1.111,0,0,0-.1,1.08.84.84,0,0,0,.389.445.279.279,0,0,0,.41-.043c.186-.194.19-.691.276-.786a.162.162,0,0,1,.289-.069.713.713,0,0,0,.268.229.452.452,0,0,0,.587.043.7.7,0,0,0,.311-.384,11.939,11.939,0,0,0,.022-2.03l-.181-.929c0-.009-.022-.441-.043-.54,0-.043-.013-.056.03-.052a.189.189,0,0,0,.086.056c.043.009.086-.073.056-.143l-.432-.8c-.035-.035-.082-.069-.138.009a.315.315,0,0,0-.1.238c.013.19.043.384.056.574l.173.976c.056.691.069,1.261.125,1.957-.009.294-.1.549-.186.587,0,0-.13.073-.216-.009a2.6,2.6,0,0,1-.32-.428.192.192,0,0,0-.307,0,4.331,4.331,0,0,0-.549,1.028c-.043.073-.173.13-.311,0a1.446,1.446,0,0,1-.19-1m-1.529-4.047a.6.6,0,0,1,.242.561c-.035.194-.121.41-.181.384s.043-.2-.022-.38c-.035-.121-.259-.337-.233-.4-.043-.134.1-.194.194-.173Z" transform="translate(-283.912 -113.131)" fill="#fff" fill-rule="evenodd"/>
      <path id="Path_44152" data-name="Path 44152" d="M159.618,123.642a5.5,5.5,0,0,0-.035-.872c-.009-.233-.263-2.013-.315-2.185-.065-.337.246-.043.212-.242-.108-.242-.371-.6-.453-.812-.052-.086-.03-.173-.143-.022a1.827,1.827,0,0,0-.1.829,17.055,17.055,0,0,1,.5,3.878c.13,0,.272-.289.337-.574m2.781-3.684c.151.073.238.488.22.6-.03.216-.108.449-.164.419s.013-.32-.017-.41c-.035-.13-.238-.363-.216-.432a.139.139,0,0,1,.177-.181m-11.044,2.933c.143.056.229.358.216.445-.035.16-.108.333-.164.307s.013-.233-.013-.3c-.013-.16-.212-.246-.207-.315-.035-.13.086-.151.173-.134Z" transform="translate(-220.501 -113.924)" fill="#fff" fill-rule="evenodd"/>
      <path id="Path_44153" data-name="Path 44153" d="M212.062,202.953c.181.009.272.155.1.216s-.333.1-.337.346c.065.346-.086.225-.173.181a.914.914,0,0,1-.441-.648.171.171,0,0,1,.186-.173,5.259,5.259,0,0,0,.661.078" transform="translate(-277.769 -193.529)" fill="#165d31" fill-rule="evenodd"/>
      <path id="Path_44154" data-name="Path 44154" d="M68.924,113.539c.207.06.22.371.207.462-.03.164-.1.341-.155.32s0-.246-.03-.315c-.03-.1-.207-.276-.19-.328-.039-.108.086-.16.168-.138m4.142,1.451a.377.377,0,0,0-.125.5.245.245,0,0,0,.259.082c.16.017.255-.3.255-.3s0-.086-.181.082c-.082.013-.086-.017-.108-.06a.389.389,0,0,1,.022-.246c.03-.078-.03-.112-.121-.06m1.209-1.572a.581.581,0,0,0-.251.415c0,.108-.026.108.043.173s.1.073.207.017a.22.22,0,0,0,.1-.147c.026-.121-.13.06-.147-.078-.035-.13.065-.181.16-.3,0-.086,0-.143-.117-.078Zm.967.173a2.569,2.569,0,0,0-.069.479c-.026.121.13.173.194.017a1.52,1.52,0,0,0,.112-.518c-.03-.186-.155-.181-.238.022m6.133,3.123c.017-.022.864-.622.864-.622.086-.03.065.311.026.307a3.36,3.36,0,0,1-.894.618c-.043.03-.082-.229,0-.3Zm.764-.009c.151.073.212.51.194.626,0,.233-.143.415-.2.389s.009-.289-.022-.38c-.035-.13-.16-.367-.138-.436a.146.146,0,0,1,.173-.2Zm-5.01,1.874a1.123,1.123,0,0,1,.242-.212.151.151,0,0,1,.16.03c.013.086-.052.16-.03.272.017.043.03.1.112.078a.582.582,0,0,1,.389-.121c.108,0,.112.181.043.181a3,3,0,0,0-.531.186.123.123,0,0,1-.155-.017.17.17,0,0,1-.017-.16c.009-.086-.026-.138-.1-.13-.052.035-.1.052-.13-.013-.013-.043-.017-.069.022-.1m5.9.233a.108.108,0,0,1,0,.164l-.16.138c-.026.043-.043.121.043.143.155.043.518-.194.518-.2a.109.109,0,0,0,.035-.13c-.035-.039-.112-.013-.164-.022-.026,0-.108-.009-.069-.086a.492.492,0,0,0,.069-.125c.022-.052,0-.086-.086-.117a.678.678,0,0,0-.229,0c-.052.009-.069.035-.082.1,0,.1.065.1.13.13Z" transform="translate(-141.865 -108.166)" fill="#fff" fill-rule="evenodd"/>
      <path id="Path_44155" data-name="Path 44155" d="M168.792,125.479c-.022.043-.1.043-.173,0s-.117-.112-.091-.151.1-.039.173,0,.112.112.091.151m-3.844-2.315c-.043.013-.1-.026-.13-.086s-.013-.112.03-.125.1.03.13.086.013.117-.035.13Zm7.606,10.318c.406.017.786,0,1.188.022.073.065.022.216-.026.207l-.337-.013c0-.13-.333-.108-.324,0a2.98,2.98,0,0,1-.518-.013c-.052-.065-.043-.181.017-.207" transform="translate(-233.497 -117.286)" fill="#165d31" fill-rule="evenodd"/>
    </g>
  </g>
</svg>
