<svg xmlns="http://www.w3.org/2000/svg" xmlns:xlink="http://www.w3.org/1999/xlink" width="212" height="132" viewBox="0 0 212 132">
  <defs>
    <linearGradient id="linear-gradient" x1="0.957" y1="0.046" x2="0.043" y2="0.959" gradientUnits="objectBoundingBox">
      <stop offset="0" stop-color="#f7b018"/>
      <stop offset="1" stop-color="#f47622"/>
    </linearGradient>
  </defs>
  <g id="Group_28063" data-name="Group 28063" transform="translate(-1098 -2292)">
    <rect id="Rectangle_19698" data-name="Rectangle 19698" width="212" height="132" rx="24" transform="translate(1098 2292)" fill="url(#linear-gradient)"/>
    <g id="Crunchyroll" transform="translate(1117.6 2340.801)">
      <path id="Path_43373" data-name="Path 43373" d="M601.3,40.915V21.7h3.379V40.943H601.3Z" transform="translate(-432.354 -14.775)" fill="#fff"/>
      <path id="Path_43374" data-name="Path 43374" d="M575.2,40.915V21.7h3.379V40.943H575.2Z" transform="translate(-413.543 -14.775)" fill="#fff"/>
      <path id="Path_43375" data-name="Path 43375" d="M530.983,47.322c0,4.636-2.318,7.122-6.591,7.122s-6.591-2.486-6.591-7.122,2.318-7.122,6.591-7.122S530.983,42.686,530.983,47.322Zm-3.212,0c0-3.742-1.257-4.441-3.212-4.441s-3.212.7-3.212,4.441,1.257,4.441,3.212,4.441C526.346,51.763,527.771,51.064,527.771,47.322Z" transform="translate(-372.175 -28.108)" fill="#fff"/>
      <path id="Path_43376" data-name="Path 43376" d="M493.889,40.14v2.849c-1.787,0-3.91,0-3.91.894V54.217H486.6V41.928C486.768,39.777,493.889,40.14,493.889,40.14Z" transform="translate(-349.688 -28.048)" fill="#fff"/>
      <path id="Path_43377" data-name="Path 43377" d="M433.586,60.211c2.514-6.228,2.318-5.7,2.514-6.228l-5-13.182h3.575l3.212,9.608L440.9,40.8h3.575l-5.334,14.244-1.955,5.167Z" transform="translate(-309.689 -28.54)" fill="#fff"/>
      <path id="Path_43378" data-name="Path 43378" d="M391.956,32.564v8.379h-3.379V32.369c0-1.257-.363-2.486-3.379-2.486a9.33,9.33,0,0,0-2.318.363v10.7H379.5V21.7h3.379v5.53a6.632,6.632,0,0,1,2.849-.531C389.806,26.867,391.956,28.989,391.956,32.564Z" transform="translate(-272.5 -14.775)" fill="#fff"/>
      <path id="Path_43379" data-name="Path 43379" d="M338.822,51.091a11.168,11.168,0,0,0,3.575-.726v2.849a9.8,9.8,0,0,1-4.106.7c-4.273,0-6.591-2.486-6.591-7.122s2.318-7.289,6.591-7.289a14.752,14.752,0,0,1,4.106.726v2.849a10.432,10.432,0,0,0-3.575-.7c-2.318,0-3.742.7-3.742,4.273C335.079,50.364,336.5,51.091,338.822,51.091Z" transform="translate(-238.05 -27.603)" fill="#fff"/>
      <path id="Path_43380" data-name="Path 43380" d="M293.154,45.03v8.714h-3.212V45.03c0-1.257,0-2.486-2.849-2.486-.894,0-2.681.168-2.681.7v10.5H281.2V42.181c0-2.318,2.849-2.681,6.4-2.681C291.2,39.7,293.154,41.12,293.154,45.03Z" transform="translate(-201.655 -27.603)" fill="#fff"/>
      <path id="Path_43381" data-name="Path 43381" d="M238.089,40.8v7.653c0,4.106-1.424,6.591-6.228,6.591s-6.061-2.486-6.061-6.591V40.8h3.212v8.016c0,2.318.894,3.016,2.849,3.016s2.849-.7,2.849-3.016V40.8Z" transform="translate(-161.727 -28.54)" fill="#fff"/>
      <path id="Path_43382" data-name="Path 43382" d="M197.489,40.14v2.849c-1.787,0-3.91,0-3.91.894V54.217H190.2V41.928C190.368,39.777,197.489,40.14,197.489,40.14Z" transform="translate(-136.07 -28.048)" fill="#fff"/>
      <path id="Path_43383" data-name="Path 43383" d="M147.617,51.091A9.277,9.277,0,0,0,151,50.364v2.849a9.8,9.8,0,0,1-4.106.7c-4.273,0-6.591-2.486-6.591-7.122s2.318-7.289,6.591-7.289a14.752,14.752,0,0,1,4.106.726v2.849a10.142,10.142,0,0,0-3.379-.7c-2.318,0-3.742.7-3.742,4.273C143.707,50.364,145.327,51.091,147.617,51.091Z" transform="translate(-100.107 -27.603)" fill="#fff"/>
      <path id="Path_43384" data-name="Path 43384" d="M5.338,19.214a14.084,14.084,0,0,1,28.125-1.089v-.894A16.031,16.031,0,1,0,17.431,33.262h1.061A14.142,14.142,0,0,1,5.338,19.214Z" transform="translate(0)" fill="#fff"/>
      <path id="Path_43385" data-name="Path 43385" d="M46.282,39.224a5.141,5.141,0,0,1-1.787-9.971A10.71,10.71,0,0,0,39.327,28,11.227,11.227,0,1,0,50.555,39.224h0a9.315,9.315,0,0,0-.168-2.151A4.533,4.533,0,0,1,46.282,39.224Z" transform="translate(-19.243 -19.312)" fill="#fff"/>
    </g>
  </g>
</svg>
