<svg id="cup" xmlns="http://www.w3.org/2000/svg" width="22" height="22" viewBox="0 0 22 22">
  <path id="Vector" d="M0,0V1.925" transform="translate(11.137 15.125)" fill="none" stroke="#292d32" stroke-linecap="round" stroke-linejoin="round" stroke-width="1.3"/>
  <path id="Vector-2" data-name="Vector" d="M0,2.75H9.167V1.833A1.839,1.839,0,0,0,7.333,0h-5.5A1.839,1.839,0,0,0,0,1.833V2.75Z" transform="translate(6.554 17.417)" fill="none" stroke="#292d32" stroke-width="1.3"/>
  <path id="Vector-3" data-name="Vector" d="M0,0H11" transform="translate(5.637 20.167)" fill="none" stroke="#292d32" stroke-linecap="round" stroke-linejoin="round" stroke-width="1.3"/>
  <path id="Vector-4" data-name="Vector" d="M6.417,12.833A6.412,6.412,0,0,1,0,6.417V3.667A3.666,3.666,0,0,1,3.667,0h5.5a3.666,3.666,0,0,1,3.667,3.667v2.75A6.412,6.412,0,0,1,6.417,12.833Z" transform="translate(4.583 1.833)" fill="none" stroke="#292d32" stroke-linecap="round" stroke-linejoin="round" stroke-width="1.3"/>
  <path id="Vector-5" data-name="Vector" d="M3.144,6.692a4.454,4.454,0,0,1-1.769-1.1A4.889,4.889,0,0,1,0,2.292,2.269,2.269,0,0,1,2.292,0h.6a3.443,3.443,0,0,0-.275,1.375v2.75A6.46,6.46,0,0,0,3.144,6.692Z" transform="translate(1.87 3.988)" fill="none" stroke="#292d32" stroke-linecap="round" stroke-linejoin="round" stroke-width="1.3"/>
  <path id="Vector-6" data-name="Vector" d="M0,6.692a4.454,4.454,0,0,0,1.769-1.1,4.889,4.889,0,0,0,1.375-3.3A2.269,2.269,0,0,0,.852,0h-.6A3.443,3.443,0,0,1,.532,1.375v2.75A6.46,6.46,0,0,1,0,6.692Z" transform="translate(16.986 3.988)" fill="none" stroke="#292d32" stroke-linecap="round" stroke-linejoin="round" stroke-width="1.3"/>
  <path id="Vector-7" data-name="Vector" d="M0,0H22V22H0Z" fill="none" opacity="0"/>
</svg>
