<svg xmlns="http://www.w3.org/2000/svg" width="16" height="16" viewBox="0 0 16 16">
  <g id="Group_26580" data-name="Group 26580" transform="translate(0)">
    <g id="Group_26001" data-name="Group 26001" transform="translate(0 0)">
      <g id="Group_26000" data-name="Group 26000" transform="translate(0)">
        <path id="Path_43697" data-name="Path 43697" d="M6.57,8.667a2.334,2.334,0,0,1-4.473,0H.667a.667.667,0,1,1,0-1.333H2.1a2.334,2.334,0,0,1,4.473,0h8.763a.667.667,0,1,1,0,1.333ZM9.43,13A2.334,2.334,0,0,1,13.9,13h1.43a.667.667,0,1,1,0,1.333H13.9a2.334,2.334,0,0,1-4.473,0H.667A.667.667,0,1,1,.667,13Zm0-11.333a2.334,2.334,0,0,1,4.473,0h1.43a.667.667,0,1,1,0,1.333H13.9A2.334,2.334,0,0,1,9.43,3H.667a.667.667,0,1,1,0-1.333Zm2.237,1.667a1,1,0,1,0-1-1A1,1,0,0,0,11.667,3.333Zm0,11.333a1,1,0,1,0-1-1A1,1,0,0,0,11.667,14.667ZM4.333,7a1,1,0,1,0,1,1A1,1,0,0,0,4.333,7Z" transform="translate(0 0)" fill-rule="evenodd"/>
      </g>
    </g>
  </g>
</svg>
