<svg xmlns="http://www.w3.org/2000/svg" width="298" height="214" viewBox="0 0 298 214">
  <g id="Group_24524" data-name="Group 24524" transform="translate(-100 -2571)">
    <rect id="Rectangle_19512" data-name="Rectangle 19512" width="298" height="214" rx="24" transform="translate(100 2571)" fill="#007e00"/>
    <g id="g4146" transform="translate(208.43 2633.357)">
      <path id="path4148" d="M37.13,66.521A39.419,39.419,0,0,1,19.592,60.3c-4.435-2.893-5.436-4.083-5.436-6.457,0-4.768,5.243-13.119,14.212-22.64,5.094-5.407,12.19-11.745,12.957-11.573,1.492.334,13.418,11.967,17.883,17.444,7.06,8.66,10.306,15.751,8.657,18.912-1.254,2.4-9.032,7.1-14.746,8.9a43.342,43.342,0,0,1-15.99,1.63ZM8.166,48.886c-3.685-5.654-5.547-11.22-6.446-19.27-.3-2.658-.19-4.179.674-9.635A39.455,39.455,0,0,1,12,.472c1.982-2.062,2.159-2.112,4.575-1.3C19.506.162,22.639,2.326,27.5,6.719l2.835,2.563-1.548,1.9C21.6,20.012,14.012,32.526,11.154,40.268,9.6,44.477,8.973,48.7,9.641,50.46c.451,1.188.037.745-1.475-1.574Zm64.687.962c.364-1.777-.1-5.041-1.176-8.333C69.341,34.385,61.529,21.121,54.355,12.1L52.1,9.265,54.54,7.022A51.588,51.588,0,0,1,62.335.849a15.007,15.007,0,0,1,5.739-2.216c.714,0,3.228,2.609,5.258,5.457a41.368,41.368,0,0,1,6.628,15.321,51,51,0,0,1,.122,14.88,46.9,46.9,0,0,1-2.963,9.352,50.076,50.076,0,0,1-4.047,6.935c-.5.63-.5.629-.217-.731ZM37.782-2.713a49.142,49.142,0,0,0-11.236-3.97A20.582,20.582,0,0,0,22.8-6.894c-2.327.118-2.223,0,1.51-1.768a38.39,38.39,0,0,1,9.207-3.067,47.452,47.452,0,0,1,15.276-.02A42.628,42.628,0,0,1,60.729-7.306l.829.51-1.9-.1c-3.778-.191-9.285,1.336-15.2,4.213a31.479,31.479,0,0,1-3.447,1.54c-.113-.021-1.567-.729-3.23-1.574Z" fill="#fff"/>
    </g>
    <g id="Group_24522" data-name="Group 24522" transform="translate(3 -16)">
      <text id="Xbox_Gift_Card" data-name="Xbox Gift Card" transform="translate(165 2753)" fill="#fff" font-size="26" font-family="SFProDisplay-Regular, SF Pro Display" letter-spacing="0.014em"><tspan x="0" y="0">Xbox Gift Card</tspan></text>
      <text id="Buy_games_add-ons_devices_and_more" data-name="Buy games, add-ons, devices, and more" transform="translate(161 2769)" fill="#fff" font-size="10" font-family="SFProDisplay-Regular, SF Pro Display" letter-spacing="0.014em"><tspan x="0" y="0">Buy games, add-ons, devices, and more</tspan></text>
    </g>
    <g id="Group_24523" data-name="Group 24523" transform="translate(22 -5)">
      <text id="_10" data-name="10" transform="translate(333 2611)" fill="#fff" font-size="26" font-family="SFProDisplay-Regular, SF Pro Display" letter-spacing="0.014em"><tspan x="0" y="0">10</tspan></text>
      <text id="_" data-name="$" transform="translate(318 2605)" fill="#fff" font-size="16" font-family="SFProDisplay-Regular, SF Pro Display" letter-spacing="0.014em"><tspan x="0" y="0">$</tspan></text>
    </g>
    <g id="microsoft-logo-svgrepo-com" transform="translate(117.789 2590.033)">
      <path id="Path_43120" data-name="Path 43120" d="M330.582,38.331V37.265h-1.323V35.609l-.045.014-1.243.38-.025.007v1.255h-1.961v-.7a1.111,1.111,0,0,1,.216-.741.763.763,0,0,1,.606-.248,1.412,1.412,0,0,1,.575.131l.049.022V34.609l-.023-.008a2.241,2.241,0,0,0-.735-.1,2.154,2.154,0,0,0-1.042.25,1.782,1.782,0,0,0-.715.707,2.108,2.108,0,0,0-.253,1.037v.769h-.921v1.065h.921v4.488h1.322V38.331h1.961v2.852c0,1.175.554,1.77,1.647,1.77a2.7,2.7,0,0,0,.562-.062,1.551,1.551,0,0,0,.409-.13l.017-.01V41.676l-.054.036a.926.926,0,0,1-.266.116,1.01,1.01,0,0,1-.261.044.708.708,0,0,1-.563-.205,1.1,1.1,0,0,1-.179-.714V38.331Zm-9.793,3.541a1.4,1.4,0,0,1-1.125-.473,2.007,2.007,0,0,1-.4-1.335,2.086,2.086,0,0,1,.4-1.37,1.381,1.381,0,0,1,1.114-.48,1.36,1.36,0,0,1,1.085.459,2.046,2.046,0,0,1,.4,1.359,2.181,2.181,0,0,1-.373,1.376,1.326,1.326,0,0,1-1.1.464m.059-4.74a2.9,2.9,0,0,0-2.162.8,2.991,2.991,0,0,0-.781,2.177,2.832,2.832,0,0,0,.762,2.079,2.766,2.766,0,0,0,2.046.768,2.821,2.821,0,0,0,2.119-.809,2.982,2.982,0,0,0,.781-2.156,2.91,2.91,0,0,0-.733-2.094,2.7,2.7,0,0,0-2.033-.763m-5.075,0a2.391,2.391,0,0,0-1.532.474,1.511,1.511,0,0,0-.6,1.232,1.724,1.724,0,0,0,.129.689,1.383,1.383,0,0,0,.4.516,3.44,3.44,0,0,0,.8.45,5.99,5.99,0,0,1,.669.311.929.929,0,0,1,.294.242.543.543,0,0,1,.082.315c0,.373-.279.555-.854.555a2.349,2.349,0,0,1-.723-.132,2.717,2.717,0,0,1-.74-.375l-.055-.039v1.273l.02.009a3.275,3.275,0,0,0,.7.217,3.76,3.76,0,0,0,.749.087,2.539,2.539,0,0,0,1.618-.476,1.54,1.54,0,0,0,.6-1.261,1.451,1.451,0,0,0-.324-.954,2.777,2.777,0,0,0-1.1-.7,2.838,2.838,0,0,1-.784-.408.571.571,0,0,1-.158-.428.477.477,0,0,1,.2-.4.9.9,0,0,1,.563-.159,2.3,2.3,0,0,1,.67.1,2.153,2.153,0,0,1,.585.271l.054.037V37.374l-.021-.009a2.885,2.885,0,0,0-.594-.166,3.626,3.626,0,0,0-.651-.067m-5.576,4.74a1.4,1.4,0,0,1-1.125-.473,2.007,2.007,0,0,1-.4-1.335,2.086,2.086,0,0,1,.4-1.37,1.38,1.38,0,0,1,1.114-.48,1.36,1.36,0,0,1,1.085.459,2.045,2.045,0,0,1,.4,1.359,2.181,2.181,0,0,1-.373,1.376,1.326,1.326,0,0,1-1.1.464m.059-4.74a2.9,2.9,0,0,0-2.162.8,2.991,2.991,0,0,0-.781,2.177,2.832,2.832,0,0,0,.763,2.078,2.766,2.766,0,0,0,2.046.768,2.821,2.821,0,0,0,2.119-.809,2.983,2.983,0,0,0,.781-2.156,2.909,2.909,0,0,0-.733-2.094,2.7,2.7,0,0,0-2.033-.763m-4.95,1.1v-.962H304v5.554H305.3V39.978a1.98,1.98,0,0,1,.326-1.18,1,1,0,0,1,.845-.446,1.534,1.534,0,0,1,.393.058.994.994,0,0,1,.3.123l.055.04V37.256l-.021-.009a1.352,1.352,0,0,0-.512-.078,1.339,1.339,0,0,0-.874.313,1.77,1.77,0,0,0-.5.745Zm-3.646-1.1a3.225,3.225,0,0,0-1.589.382,2.573,2.573,0,0,0-1.048,1.077,3.432,3.432,0,0,0-.36,1.6,2.944,2.944,0,0,0,.35,1.431,2.458,2.458,0,0,0,.978.988,2.91,2.91,0,0,0,1.428.347,3.127,3.127,0,0,0,1.576-.369l.017-.01v-1.2l-.055.04a2.456,2.456,0,0,1-.639.333,1.932,1.932,0,0,1-.626.121,1.609,1.609,0,0,1-1.223-.477,1.854,1.854,0,0,1-.451-1.321,1.923,1.923,0,0,1,.47-1.356,1.6,1.6,0,0,1,1.225-.506,2.1,2.1,0,0,1,1.244.433l.055.04V37.424l-.018-.01a2.156,2.156,0,0,0-.6-.2,3.61,3.61,0,0,0-.73-.078m-3.9.134h-1.306v5.553h1.306Zm-.64-2.366a.787.787,0,0,0-.557.218.72.72,0,0,0-.233.545.7.7,0,0,0,.231.534.8.8,0,0,0,.559.213.806.806,0,0,0,.562-.212.7.7,0,0,0,.234-.534.734.734,0,0,0-.227-.539.779.779,0,0,0-.568-.224m-3.259,1.956v5.963H295.2V35.07h-1.845l-2.345,5.756L288.73,35.07h-1.92v7.749h1.253V36.855h.043l2.4,5.964h.945l2.366-5.963Z" transform="translate(-270.002 -32.48)" fill="#fff"/>
      <path id="Path_43121" data-name="Path 43121" d="M6.145,6.145H0V0H6.145Z" fill="#fff"/>
      <path id="Path_43122" data-name="Path 43122" d="M121.933,6.145h-6.145V0h6.145Z" transform="translate(-109.003)" fill="#fff"/>
      <path id="Path_43123" data-name="Path 43123" d="M6.145,121.973H0v-6.145H6.145Z" transform="translate(0 -109.04)" fill="#fff"/>
      <path id="Path_43124" data-name="Path 43124" d="M121.933,121.973h-6.145v-6.145h6.145Z" transform="translate(-109.003 -109.04)" fill="#fff"/>
    </g>
  </g>
</svg>
