<svg xmlns="http://www.w3.org/2000/svg" xmlns:xlink="http://www.w3.org/1999/xlink" width="212" height="132" viewBox="0 0 212 132">
  <defs>
    <linearGradient id="linear-gradient" x1="0.957" y1="0.046" x2="0.043" y2="0.959" gradientUnits="objectBoundingBox">
      <stop offset="0" stop-color="#44f96e"/>
      <stop offset="1" stop-color="#01d587"/>
    </linearGradient>
  </defs>
  <g id="Group_28058" data-name="Group 28058" transform="translate(-130 -2292)">
    <rect id="Rectangle_19702" data-name="Rectangle 19702" width="212" height="132" rx="24" transform="translate(130 2292)" fill="url(#linear-gradient)"/>
    <g id="layer1" transform="translate(632.152 2266.037)">
      <path id="path4" d="M-433.345,86.125q3.353,2.726,3.355,8.513v19.375h-10.652V96.064a2.817,2.817,0,0,0-.881-2.055,2.817,2.817,0,0,0-2.055-.881h-6.207a2.679,2.679,0,0,0-2.013.881,2.885,2.885,0,0,0-.839,2.055v17.949h-10.736V69.476h10.736v14.51c.168-.055.558-.168,1.174-.336a9.542,9.542,0,0,1,2.432-.251h6.878A13.536,13.536,0,0,1-433.345,86.125Zm33.8-2.726h10.736v18.788a12.435,12.435,0,0,1-2.894,8.555,9.94,9.94,0,0,1-7.842,3.271h-10.568a12.518,12.518,0,0,1-8.849-3.061q-3.315-3.061-3.313-8.765V83.4h10.736v17.949a2.742,2.742,0,0,0,.839,2.013,2.741,2.741,0,0,0,2.013.839h6.207a2.885,2.885,0,0,0,2.055-.839,2.679,2.679,0,0,0,.881-2.013Zm18.871-13.923h10.736v44.537h-10.736ZM-328.336,83.4v18.788a12.435,12.435,0,0,1-2.894,8.555,9.939,9.939,0,0,1-7.842,3.271h-10.484q-5.62,0-8.932-3.061t-3.313-8.765V83.4h10.736v17.949a2.74,2.74,0,0,0,.839,2.013,2.741,2.741,0,0,0,2.013.839h6.291a2.745,2.745,0,0,0,2.013-.839,2.746,2.746,0,0,0,.839-2.013V83.4Z" fill="#fff"/>
    </g>
  </g>
</svg>
