<?xml version="1.0" encoding="utf-8"?>
<!-- Generator: Adobe Illustrator 24.3.0, SVG Export Plug-In . SVG Version: 6.00 Build 0)  -->
<svg version="1.1" id="Layer_1" xmlns="http://www.w3.org/2000/svg" xmlns:xlink="http://www.w3.org/1999/xlink" x="0px" y="0px"
	 viewBox="0 0 1080 277.75" style="enable-background:new 0 0 1080 277.75;" xml:space="preserve" fill="white">
<g>
	<g>
		<g>
			<g>
				<path d="M515.26,83.36c-5.16-3.84-9.76-7.9-14.93-11.02c-25.92-15.64-57.68-9.76-75.02,14.87
					c-20.05,28.49-21.11,58.91-4.21,89.22c8.45,15.16,21.82,25.5,39.35,28.52c16.11,2.77,31.29-0.5,44.61-10.54
					c2.28-1.72,4.59-3.4,6.78-5.23c2.98-2.49,5.54-1.99,7.94,0.8c4.65,5.41,9.34,10.78,13.95,16.22c3.39,4,3.42,6.06-0.23,10.11
					c-8.46,9.37-18.49,16.66-30.31,21.17c-22.18,8.46-44.5,8.8-66.72,0.1c-14.54-5.69-26.78-14.77-36.77-26.62
					c-12.57-14.92-21.16-32.02-24.47-51.24c-7.51-43.6,2.93-81.86,37.12-111.4c23.51-20.31,51.56-25.57,81.55-18.31
					C509.7,33.84,522.8,43,534.11,54.6c2.26,2.31,3.12,5,0.93,7.65c-5.33,6.42-10.83,12.71-16.37,18.96
					C517.79,82.19,516.36,82.68,515.26,83.36z"/>
				<path d="M884.69,107.3c0.12-2.75,0.29-4.7,0.29-6.65c0.01-19.56-0.03-39.13,0-58.69c0.02-10.01,2.28-12.22,12.28-12.22
					c3.47,0,6.96-0.1,10.42,0.08c6.95,0.36,9.57,2.91,10.11,9.69c0.16,2.03,0.12,4.07,0.12,6.11
					c-0.09,60.32-0.18,120.65-0.28,180.97c0,1.43,0,2.85-0.06,4.28c-0.37,7.99-1.89,9.42-10.07,9.45c-4.5,0.02-8.99,0.02-13.49,0
					c-6.73-0.03-8.61-1.85-8.82-8.7c-0.11-3.67-0.07-7.34-0.07-11c-0.02-18.75-0.03-37.5-0.05-56.25
					c-0.02-15.05-10.62-27.57-25.48-30.93c-18.47-4.17-33.72,7.83-39.17,21.63c-6.67,16.87,0.33,38.53,12.25,47
					c7.89,5.61,16.31,8.33,25.89,5.43c3.94-1.19,7.35-0.37,8.69,3.39c2.97,8.38,5.32,16.98,8.21,26.42
					c-3.71,1.29-6.42,2.35-9.2,3.17c-24.31,7.16-44.32-0.64-60.41-18.76c-18.64-21-22.81-45.81-16.13-72.61
					c5.75-23.06,19.46-39.66,41.83-48.36c16.07-6.25,31.91-5.05,47.05,3.49C880.32,105.23,882.14,106.03,884.69,107.3z"/>
				<path d="M636.34,236.83c-5.88,5.06-12.57,5.88-18.89,6.39c-20.42,1.62-37.72-5.49-51.47-20.57
					c-12.72-13.96-18.85-30.57-19.48-49.47c-0.51-15.07,2.59-29.18,9.91-42.25c9.69-17.29,24.39-28.66,43.89-32.27
					c13.02-2.41,26.13-1.02,37.45,7.37c1.6,1.18,3.36,2.16,4.84,3.1c0.78-0.47,1.32-0.61,1.41-0.89
					c3.03-9.62,3.74-10.15,13.68-10.14c3.88,0,7.77-0.04,11.65,0.05c6.86,0.16,9.55,2.83,9.57,9.77
					c0.04,21.19-0.02,42.38-0.04,63.57c-0.02,19.56,0,39.12-0.07,58.68c-0.03,8.58-1.81,10.22-10.57,10.18
					c-4.5-0.02-8.99,0.05-13.49-0.02c-6.14-0.11-8.12-1.96-8.21-8.02c-0.13-8.76-0.04-17.52-0.06-26.28
					c-0.02-11.61,0.01-23.23-0.1-34.84c-0.08-8.1-2.02-15.75-6.42-22.63c-6.96-10.86-17.12-16.47-29.89-15.7
					c-13.29,0.8-22.39,8.11-28.45,20.1c-8.35,16.53,0.3,42.42,13.76,50.96c6.6,4.18,13.25,6.81,21.32,5.02
					c8.91-1.98,10.64-0.84,13.46,7.71C632.34,223.36,634.29,230.15,636.34,236.83z"/>
				<path d="M1022.06,141.15c-2.86,0-5.83,0.47-8.55-0.13c-2.8-0.62-5.91-1.71-7.93-3.61c-7.39-6.94-16.05-8.53-25.49-6.64
					c-5.19,1.04-7.55,4.58-7.7,9.69c-0.12,3.93,2.33,7.04,7.49,8.38c9.43,2.45,19,4.35,28.41,6.85c10.54,2.8,20.66,6.6,27.84,15.48
					c13.93,17.24,9.37,46.12-9.19,59.82c-18.72,13.82-49.3,15.81-69.36,0.97c-9.89-7.32-16.04-17.24-19.34-28.92
					c-1.35-4.77,1.38-9.52,6.37-9.95c6.66-0.57,13.46-0.33,20.11,0.37c2.19,0.23,4.81,2.57,6.03,4.64
					c7.4,12.58,25.87,12.68,35.09,8.03c3.43-1.73,5.82-4.45,5.75-8.67c-0.07-4.14-2.17-7.19-5.78-8.62
					c-4.9-1.93-10.04-3.34-15.14-4.71c-8.66-2.32-17.62-3.75-26-6.81c-12.01-4.38-21.56-12.2-24.4-25.31
					c-3.81-17.62,1.18-32.94,15.43-44.2c12.56-9.93,26.93-13.09,43.1-9.92c16.67,3.27,28.69,11.97,36.87,26.46
					c1,1.77,1.92,3.63,2.52,5.56c2.16,6.96-0.81,10.99-8.16,11.18c-2.65,0.07-5.31,0.01-7.97,0.01
					C1022.06,141.11,1022.06,141.13,1022.06,141.15z"/>
				<path d="M730.13,112.16c3.82-3.28,7.34-6.66,11.21-9.56c10.93-8.2,22.81-9.14,35.15-3.62c5.4,2.42,6.12,4.97,3.58,10.27
					c-2.55,5.33-5.28,10.57-7.87,15.88c-1.45,2.97-3.67,4.31-6.95,3.5c-6.13-1.5-12.19-2.29-17.39,2.4
					c-6.4,5.77-9.49,13.22-9.87,21.66c-0.32,6.91-0.06,13.85-0.06,20.78c-0.01,19.15,0,38.3-0.08,57.45
					c-0.01,2.77-0.46,5.55-0.81,9.42c-7.06,0-13.52,0-19.98,0c-10.85,0-11.02-0.18-11.03-10.86c-0.04-40.34-0.09-80.68-0.11-121.01
					c0-8.47,1.67-10.17,9.87-10.32c12.2-0.22,12.2-0.22,13.93,12.07C729.82,111,730.04,111.75,730.13,112.16z"/>
				<path d="M317.66,169.57c0-20.38-0.01-40.75,0-61.13c0-8.07,2.05-10.17,10.06-10.26c4.5-0.05,9-0.11,13.49,0.06
					c5.51,0.21,8.05,2.72,8.63,8.28c0.17,1.62,0.12,3.26,0.12,4.89c-0.05,39.33-0.1,78.65-0.16,117.98c0,1.63,0.09,3.28-0.13,4.88
					c-0.51,3.67-2.44,5.99-6.43,6c-6.34,0.02-12.67-0.03-19.01,0.03c-4.08,0.04-5.92-2.28-6.39-5.94c-0.23-1.81-0.13-3.66-0.14-5.49
					c-0.01-19.76,0-39.53,0-59.29C317.68,169.57,317.67,169.57,317.66,169.57z"/>
				<path d="M349.85,64.76c0,3.65,0.27,7.33-0.06,10.95c-0.49,5.39-2.94,7.58-8.3,7.69c-5.49,0.12-11,0.11-16.49-0.08
					c-4.51-0.16-7.05-2.15-7.26-6.57c-0.36-7.69-0.35-15.42,0.04-23.1c0.24-4.73,2.85-6.84,7.57-6.97c5.7-0.16,11.4-0.18,17.1-0.02
					c4.64,0.13,6.93,2.5,7.47,7.14c0.05,0.4,0.05,0.81,0.05,1.22c0,3.25,0,6.49,0,9.74C349.93,64.76,349.89,64.76,349.85,64.76z"/>
			</g>
		</g>
	</g>
	<g>
		<g>
			<path d="M120.65,185.01c-0.06-3.99,1.07-7.63,2.87-11.12c3.6-7.01,7.18-14.03,10.78-21.04c4.74-9.22,9.51-18.43,14.25-27.65
				c3.79-7.39,7.54-14.8,11.33-22.19c4.79-9.32,9.6-18.63,14.41-27.94c2.45-4.75,4.8-9.56,7.44-14.2c2.55-4.5,6.6-7.35,11.59-8.52
				c4.87-1.14,9.42,0.09,13.6,2.82c9.81,6.4,19.65,12.76,29.47,19.14c7.07,4.59,14.17,9.13,21.17,13.82
				c6.08,4.08,8.91,10.03,9.27,17.2c0.22,4.38-0.85,8.44-2.89,12.35c-4.81,9.19-9.48,18.45-14.21,27.67
				c-5.02,9.79-10.04,19.58-15.06,29.37c-4.1,8-8.2,16.01-12.3,24.01c-5.12,9.98-10.24,19.96-15.36,29.94
				c-2.26,4.4-5.58,7.68-10.22,9.53c-4.96,1.98-9.8,1.58-14.36-1.09c-3.56-2.08-6.98-4.41-10.45-6.66
				c-5.96-3.86-11.91-7.73-17.86-11.61c-3.15-2.05-6.27-4.14-9.43-6.18c-4.58-2.96-9.17-5.89-13.76-8.84
				c-5.38-3.45-8.63-8.33-9.78-14.59C120.89,187.85,120.81,186.42,120.65,185.01z M190.92,220.11c0.61-0.88,1.15-1.51,1.53-2.23
				c3.03-5.82,6.03-11.66,9.02-17.5c3.23-6.31,6.44-12.63,9.67-18.94c2-3.91,4.04-7.8,6.04-11.71c2.65-5.18,5.27-10.39,7.92-15.57
				c2.83-5.51,5.69-10.99,8.53-16.49c3.37-6.54,6.72-13.08,10.08-19.63c1.79-3.49,3.58-6.97,5.33-10.47
				c0.73-1.45,0.53-2.03-0.8-2.92c-1.81-1.21-3.6-2.44-5.42-3.62c-11.06-7.2-22.13-14.39-33.2-21.59c-3.69-2.4-7.37-4.81-11.07-7.2
				c-1.75-1.13-2.22-1-3.21,0.85c-0.82,1.54-1.56,3.13-2.36,4.68c-4.37,8.46-8.78,16.91-13.12,25.39
				c-4.17,8.15-8.26,16.34-12.43,24.49c-4.35,8.53-8.75,17.03-13.13,25.55c-3.6,7.01-7.19,14.03-10.8,21.04
				c-1.5,2.92-3.02,5.82-4.52,8.74c-1.1,2.15-0.94,2.82,0.97,4.08c1.28,0.85,2.59,1.65,3.88,2.49c4.88,3.18,9.75,6.38,14.63,9.56
				c9.24,6.02,18.48,12.03,27.73,18.04C187.65,218.1,189.15,219,190.92,220.11z"/>
			<path d="M123.72,221.94c0.37,3.89-1.48,6.67-4.51,8.86c-4.94,3.56-9.79,7.25-14.82,10.68c-5.86,4-12.97,3.82-19.14-0.26
				c-2.86-1.89-4.92-4.49-6.46-7.49c-3.25-6.3-6.45-12.63-9.69-18.93c-2.13-4.14-4.32-8.24-6.45-12.39
				c-3.36-6.54-6.68-13.11-10.03-19.65c-2.63-5.13-5.29-10.25-7.91-15.39c-6.7-13.09-13.4-26.19-20.09-39.28
				c-1.18-2.31-2.44-4.58-3.5-6.94c-3.78-8.46-2.91-16.49,2.56-23.97c1.78-2.43,4.33-4.02,6.81-5.67c4.58-3.05,9.14-6.13,13.72-9.2
				c6.21-4.16,12.45-8.27,18.63-12.47c2.72-1.84,5.5-2.49,8.51-0.93c3.25,1.68,4.86,4.47,5.1,8.05c0.26,4.02-1.24,7.22-4.64,9.49
				c-6.82,4.57-13.65,9.13-20.46,13.73c-4.7,3.17-9.38,6.37-14.05,9.57c-1.12,0.77-1.29,1.29-0.67,2.53
				c2.2,4.4,4.45,8.78,6.69,13.16c2.94,5.75,5.87,11.49,8.82,17.23c2.79,5.41,5.62,10.8,8.4,16.21c2.13,4.14,4.2,8.31,6.32,12.45
				c2.79,5.46,5.62,10.91,8.41,16.37c3.44,6.73,6.85,13.49,10.31,20.21c2.66,5.18,5.36,10.33,8.08,15.48
				c0.86,1.62,1.3,1.73,2.82,0.64c4.04-2.9,8.05-5.85,12.07-8.78c0.56-0.41,1.15-0.76,1.69-1.19c4.2-3.43,10.39-1.96,12.82,3.69
				c0.27,0.63,0.53,1.29,0.64,1.96C123.8,220.45,123.72,221.2,123.72,221.94z"/>
			<path d="M90.18,111.67c0-21.91-0.15-43.83,0.09-65.74c0.07-6.75,3.42-12.21,9.1-16.1c3.3-2.26,7.04-2.84,10.9-2.85
				c18.9-0.05,37.8-0.07,56.7-0.06c4.59,0,8.01,3.96,8.51,8c0.35,2.84-0.02,5.6-1.87,7.98c-1.54,1.98-3.49,3.23-6.03,3.37
				c-1.32,0.08-2.65,0.03-3.98,0.03c-13.06,0.02-26.12,0.02-39.18,0.05c-4.99,0.01-9.98,0.06-14.97,0.1
				c-1.77,0.01-2.04,0.23-2.05,2.02c-0.07,11.48-0.14,22.97-0.14,34.45c0,20.69,0.08,41.39,0.09,62.08
				c0.01,11.06-0.06,22.12-0.1,33.18c-0.02,3.58-2.33,6.96-5.63,8.32c-3.76,1.55-8.14-0.08-10.18-3.84
				c-0.95-1.73-1.52-3.56-1.48-5.6c0.11-4.97,0.13-9.95,0.14-14.92c0.02-9.26,0-18.52,0-27.78c0-7.57,0-15.13,0-22.7
				C90.12,111.67,90.15,111.67,90.18,111.67z"/>
		</g>
	</g>
</g>
</svg>
