<svg version="1.2" xmlns="http://www.w3.org/2000/svg" viewBox="0 0 26 18" width="26" height="18">
	<title>view-icon-svg</title>
	<style>
		.s0 { fill: #ffffff } 
	</style>
	<path id="Layer" fill-rule="evenodd" class="s0" d="m16.3 11.3c-0.8 1-2 1.6-3.3 1.6-2 0-4-1.6-4-3.9 0-2.3 1.8-4.2 4-4.2 2.3 0 4.1 1.9 4.1 4.2 0 0.3-0.1 0.9-0.4 1.4q-0.2 0.5-0.4 0.9zm-3.3-0.5c0.6 0 1-0.2 1.4-0.6 0.4-0.3 0.6-0.9 0.6-1.2 0-1.2-0.8-2.1-2-2.1-1.1 0-2 0.9-2 2.1 0 0.8 0.9 1.8 2 1.8z"/>
	<path id="Layer" fill-rule="evenodd" class="s0" d="m0.1 9.3q0 0 0 0 0 0 0 0zm0 0q-0.2-0.3 0-0.6 0 0 0 0c3.7-5.4 8.2-8.2 12.9-8.2 4.7 0 9.2 2.8 12.9 8.2q0.1 0.1 0.1 0.3 0 0.2-0.1 0.3c-3.7 5.4-8.2 8.2-12.9 8.2-4.7 0-9.2-2.9-12.9-8.2q0 0 0 0zm2.8-0.9c-0.3 0.3-0.3 0.9 0 1.2 3.2 3.9 6.7 5.8 10.1 5.8 3.4 0 7-1.9 10.1-5.8 0.3-0.3 0.3-0.9 0-1.2-3.1-3.9-6.7-5.8-10.1-5.8-3.4 0-6.9 1.9-10.1 5.8z"/>
</svg>