<svg xmlns="http://www.w3.org/2000/svg" width="17.333" height="21.333" viewBox="0 0 17.333 21.333">
  <g id="Polygon_7" data-name="Polygon 7" transform="translate(17.333) rotate(90)" fill="none">
    <path d="M9.815,1.384a1,1,0,0,1,1.7,0L20.4,15.809a1,1,0,0,1-.852,1.524H1.79a1,1,0,0,1-.852-1.524Z" stroke="none"/>
    <path d="M 10.66666603088379 3.816079139709473 L 3.579126358032227 15.33333206176758 L 17.75420379638672 15.33333206176758 L 10.66666603088379 3.816079139709473 M 10.66666507720947 0.9080448150634766 C 10.994873046875 0.9080448150634766 11.32308006286621 1.066677093505859 11.51832485198975 1.383941650390625 L 20.39542579650879 15.80923271179199 C 20.80543518066406 16.47550201416016 20.32608413696289 17.33333206176758 19.54376602172852 17.33333206176758 L 1.78956413269043 17.33333206176758 C 1.007246017456055 17.33333206176758 0.5278949737548828 16.47550201416016 0.9379043579101562 15.80923271179199 L 9.815005302429199 1.383941650390625 C 10.01025009155273 1.066677093505859 10.33845710754395 0.9080448150634766 10.66666507720947 0.9080448150634766 Z" stroke="none" fill="#fff"/>
  </g>
</svg>
