<svg id="Group_28186" data-name="Group 28186" xmlns="http://www.w3.org/2000/svg" xmlns:xlink="http://www.w3.org/1999/xlink" width="20" height="19.998" viewBox="0 0 20 19.998">
  <defs>
    <clipPath id="clip-path">
      <rect id="Rectangle_19837" data-name="Rectangle 19837" width="20" height="19.998"/>
    </clipPath>
  </defs>
  <g id="Group_25298" data-name="Group 25298" clip-path="url(#clip-path)">
    <path id="Path_43539" data-name="Path 43539" d="M20,10A10,10,0,1,1,10.068,0,10.012,10.012,0,0,1,20,10m-1.331,0a8.667,8.667,0,1,0-8.676,8.663A8.672,8.672,0,0,0,18.668,10" transform="translate(0.001 0)"/>
    <path id="Path_43540" data-name="Path 43540" d="M55.05,47.709a7.332,7.332,0,1,1-7.324,7.341,7.338,7.338,0,0,1,7.324-7.341m.016,1.33a6,6,0,1,0,5.99,6.036,6.007,6.007,0,0,0-5.99-6.036" transform="translate(-45.057 -45.04)"/>
    <path id="Path_43541" data-name="Path 43541" d="M145.311,123.13c-.533,0-1.028.006-1.523,0a.666.666,0,0,1-.715-.7.634.634,0,0,1,.058-.242c.449-.905.9-1.81,1.358-2.71a.65.65,0,0,1,.7-.338.639.639,0,0,1,.533.613.968.968,0,0,1-.1.418c-.255.533-.524,1.06-.8,1.612.073.006.124.015.174.015.461,0,.921,0,1.382,0a.657.657,0,0,1,.607.982c-.429.876-.868,1.747-1.309,2.617a.665.665,0,1,1-1.184-.6c.236-.482.478-.96.717-1.441.03-.061.057-.124.1-.223" transform="translate(-135.07 -112.462)"/>
  </g>
</svg>
