<svg xmlns="http://www.w3.org/2000/svg" xmlns:xlink="http://www.w3.org/1999/xlink" width="40" height="40" viewBox="0 0 40 40">
  <defs>
    <clipPath id="clip-path">
      <rect id="Rectangle_20778" data-name="Rectangle 20778" width="35.287" height="9.791" fill="#fff"/>
    </clipPath>
  </defs>
  <g id="Group_27954" data-name="Group 27954" transform="translate(-755 8361)">
    <rect id="_3373550" data-name="3373550" width="40" height="40" rx="7" transform="translate(755 -8361)" fill="#821bc9"/>
    <g id="Group_27955" data-name="Group 27955" transform="translate(757.614 -8346.107)" clip-path="url(#clip-path)">
      <path id="Path_44086" data-name="Path 44086" d="M4.112,0c.5.029.97.04,1.433.087A3.77,3.77,0,0,1,7.392.7a2.4,2.4,0,0,1,.947,1.187,3.651,3.651,0,0,1-.851,3.748A4.747,4.747,0,0,1,5.813,6.884a.375.375,0,0,0-.228.387,4.889,4.889,0,0,1-.528,2.313c-.113.2-.184.242-.4.176-.188-.057-.378-.106-.568-.154-.247-.063-.3-.129-.267-.389.041-.315.113-.627.137-.943a4.5,4.5,0,0,0-.573-2.56c-.078-.142-.18-.27-.264-.409a.19.19,0,0,1,.119-.317q.807-.242,1.618-.469a.23.23,0,0,1,.329.2c.064.3.154.6.22.906.027.123.077.176.192.12a1.187,1.187,0,0,0,.652-1.418,1.313,1.313,0,0,0-.94-.763,3.575,3.575,0,0,0-1.849.045A9.8,9.8,0,0,0,1.6,4.232c-.351.163-.611.025-.744-.38Q.442,2.591.044,1.324C-.069.963.035.783.395.658A12.085,12.085,0,0,1,2.671.16C3.159.091,3.652.05,4.112,0" transform="translate(0)" fill="#fff"/>
      <path id="Path_44087" data-name="Path 44087" d="M324.389,59.207a.881.881,0,0,0-.019.209c.064.284.121.571.208.848.127.407.111.476-.257.676-.154.083-.313.157-.472.231a.221.221,0,0,1-.314-.094,5.4,5.4,0,0,1-.406-.745,10.572,10.572,0,0,1-.518-1.6,10.687,10.687,0,0,1-.158-1.7c-.023-.555-.012-1.112.013-1.667a9.382,9.382,0,0,1,.133-1.108c.05-.3.173-.359.474-.292.429.1.862.176,1.291.27a3.851,3.851,0,0,1,.486.141c.163.059.2.2.121.386-.2.48-.391.962-.586,1.443l.068.063a.646.646,0,0,0,.162-.074c.529-.454,1.054-.912,1.582-1.367.167-.144.275-.141.432.043.2.237.385.489.575.736.078.1.148.211.231.309.221.262.2.37-.087.565-.5.338-1.009.676-1.511,1.02-.279.191-.288.365-.033.584.508.436,1.021.867,1.53,1.3.178.153.2.256.056.433-.26.311-.539.608-.824.9-.128.13-.3.1-.475-.048-.392-.343-.777-.695-1.168-1.038-.157-.137-.324-.263-.534-.431" transform="translate(-309.314 -51.752)" fill="#fff"/>
      <path id="Path_44088" data-name="Path 44088" d="M729.358,59.024a3.014,3.014,0,0,1-1.4,2.585,2.773,2.773,0,0,1-2.73.226,2.933,2.933,0,0,1-1.267-1.105,2.758,2.758,0,0,1-.41-1.2,3.174,3.174,0,0,1,.284-1.78,2.879,2.879,0,0,1,1.362-1.4,2.748,2.748,0,0,1,1.95-.233,2.833,2.833,0,0,1,1.673,1.165,3.114,3.114,0,0,1,.536,1.74m-1.9.029a.976.976,0,0,0-.957-1.037,1.07,1.07,0,0,0-1.095,1,1.029,1.029,0,1,0,2.052.038" transform="translate(-694.071 -53.755)" fill="#fff"/>
      <path id="Path_44089" data-name="Path 44089" d="M177.809,86.048a3.083,3.083,0,0,1-1.276,2.556,2.727,2.727,0,0,1-2,.526,2.835,2.835,0,0,1-2.505-2.645.377.377,0,0,1,.117-.276,4.631,4.631,0,0,0,1.2-1.368,7.972,7.972,0,0,0,.482-1.2c.112-.332.2-.425.552-.455.174-.015.347-.069.52-.069a2.726,2.726,0,0,1,2.18.978,3.175,3.175,0,0,1,.728,1.954m-3.92.087a1.028,1.028,0,0,0,1.011,1.074,1.058,1.058,0,0,0,1.031-1.083,1.019,1.019,0,0,0-1.025-1.058,1.1,1.1,0,0,0-1.017,1.068" transform="translate(-165.028 -79.732)" fill="#fff"/>
      <path id="Path_44090" data-name="Path 44090" d="M618.5,46.654a1.023,1.023,0,0,1,.142,0c.175.025.232-.06.26-.225.091-.54.193-1.079.3-1.615.046-.225.137-.261.348-.194q.637.2,1.276.4c.227.069.289.215.165.417a5.384,5.384,0,0,0-.743,3.6c.036.289.087.575.136.862.045.265-.139.445-.245.648-.178.341-.386.665-.576,1a.275.275,0,0,1-.417.135,6.464,6.464,0,0,1-2.4-2.113,1.818,1.818,0,0,1-.348-1.535,1.785,1.785,0,0,1,1.108-1.189,6.928,6.928,0,0,1,.977-.243l.011.052m.473,2.449-.128-1.549c-.014-.168-.151-.157-.214-.091a1.565,1.565,0,0,0-.387.525,1.129,1.129,0,0,0,.634,1.142c.036.014.093-.026.1-.027" transform="translate(-591.258 -42.775)" fill="#fff"/>
      <path id="Path_44091" data-name="Path 44091" d="M511.44,49.023a1.753,1.753,0,0,1,1.245-1.617,6.2,6.2,0,0,1,1.08-.146c.14-.013.2-.051.226-.195.092-.54.189-1.08.3-1.617.058-.286.122-.314.395-.227q.59.188,1.178.38c.322.1.353.19.18.481a5.852,5.852,0,0,0-.633,4.183.89.89,0,0,1-.076.681c-.2.328-.379.672-.572,1.006a2.022,2.022,0,0,1-.19.263.268.268,0,0,1-.393.056,8.265,8.265,0,0,1-1.834-1.431,3.723,3.723,0,0,1-.833-1.359,2.781,2.781,0,0,1-.072-.458m2.628.765a1.056,1.056,0,0,0,.011-.162c-.04-.321-.086-.641-.122-.963-.018-.161-.014-.324-.031-.485-.01-.088-.033-.182-.167-.129a.886.886,0,0,0-.471.791,1.439,1.439,0,0,0,.78.948" transform="translate(-490.616 -43.339)" fill="#fff"/>
      <path id="Path_44092" data-name="Path 44092" d="M456.045,101.49c.031-.324.076-.85.134-1.375.028-.249.1-.311.346-.273.481.075.96.165,1.438.259.189.037.235.153.145.328a4.458,4.458,0,0,0-.42,2.879c.06.333.121.666.192,1,.03.139-.006.227-.139.269-.213.067-.426.136-.642.193s-.349-.1-.425-.265a7.6,7.6,0,0,1-.378-.962,7.349,7.349,0,0,1-.252-2.051" transform="translate(-437.479 -95.768)" fill="#fff"/>
      <path id="Path_44093" data-name="Path 44093" d="M466.816,28.744a1.22,1.22,0,0,1,1.205,1.266,1.288,1.288,0,0,1-1.288,1.31,1.224,1.224,0,0,1-1.161-1.224,1.3,1.3,0,0,1,1.244-1.353" transform="translate(-446.619 -27.574)" fill="#fff"/>
    </g>
  </g>
</svg>
