<svg xmlns="http://www.w3.org/2000/svg" xmlns:xlink="http://www.w3.org/1999/xlink" width="40" height="40" viewBox="0 0 40 40">
  <defs>
    <clipPath id="clip-path">
      <rect id="Rectangle_20820" data-name="Rectangle 20820" width="40" height="40" rx="20" transform="translate(-15739 -20798)" fill="#fffcee" stroke="#c4d6b0" stroke-miterlimit="10" stroke-width="1"/>
    </clipPath>
    <clipPath id="clip-path-2">
      <path id="Path_44156" data-name="Path 44156" d="M-79.969,0h53.6V40.206h-53.6Z" transform="translate(79.969)" fill="rgba(0,0,0,0.7)"/>
    </clipPath>
  </defs>
  <g id="Mask_Group_3525" data-name="Mask Group 3525" transform="translate(15739 20798)" clip-path="url(#clip-path)">
    <g id="sa" transform="translate(-15744.456 -20798)" clip-path="url(#clip-path-2)">
      <path id="Path_44140" data-name="Path 44140" d="M-120,0h60.309V40.206H-120Z" transform="translate(116.647)" fill="#165d31" fill-rule="evenodd"/>
      <path id="Path_44141" data-name="Path 44141" d="M60.971,119.952c-.063.942-.157,2.591.652,2.764.966.094.432-1.633.785-1.947.063-.157.181-.157.188.039v1.468a.71.71,0,0,0,.55.707c.251-.016.424,0,.518.236l.126,2.536s.581.173.613-1.421a14.27,14.27,0,0,1-.063-1.9c0-.181.236-.188.393-.1.251.173.361.393.754.314.6-.173.958-.463.966-.919a3.691,3.691,0,0,0-.275-1.3c.031-.079-.11-.291-.079-.369.1.173.267.157.3,0a1.3,1.3,0,0,0-.51-.785c-.212-.188-.526-.157-.628.236a2.086,2.086,0,0,0,.479,1.413,1.378,1.378,0,0,1,.126.7.383.383,0,0,1-.495-.094s-.471-.353-.471-.44a1.7,1.7,0,0,0-.047-1.123,1.458,1.458,0,0,0-.314-.613c-.118-.126-.275-.126-.353,0a2.123,2.123,0,0,0,.039,1.492c.11.322.275.526.2.526-.063.181-.2.133-.3-.079a5.23,5.23,0,0,1-.165-1.366c-.039-.361-.086-1.131-.33-1.335-.141-.188-.353-.094-.432.079a6.471,6.471,0,0,0,.024,1.052,12.442,12.442,0,0,1,.291,1.688c.024.793-.455.346-.432-.055a3.534,3.534,0,0,0-.024-1.523c-.079-.2-.165-.251-.361-.22-.149,0-.534.416-.644,1.123a6.12,6.12,0,0,0-.133.683c-.055.361-.291.628-.463-.047-.141-.495-.236-1.7-.471-1.413Z" transform="translate(-49.129 -108.557)" fill="#fff" fill-rule="evenodd"/>
      <path id="Path_44142" data-name="Path 44142" d="M65.325,177.682l-2.513,1.209a2.51,2.51,0,0,1,1.987-1.61c.51.008.385.2.518.4Z" transform="translate(-50.853 -162.432)" fill="#fff" fill-rule="evenodd"/>
      <path id="Path_44143" data-name="Path 44143" d="M78.169,124.648c-1.319,3.416,3.1,3.895,3.6.141.047-.157.236-.306.267-.055-.1,3.4-3.424,3.628-3.989,2.56a3.29,3.29,0,0,1-.2-1.146c-.079-.667-.432-.408-.487.251a4.2,4.2,0,0,0-.039.825c.173,2.686,4.452,1.531,5.151-.683.369-1.225-.063-2.128.133-2.128.424.455,1.021.063,1.154-.094a.189.189,0,0,1,.291-.031A.694.694,0,0,0,85.087,124a9.7,9.7,0,0,0,.141-1.272c-.275.079-.471.133-.495.251l-.055.361c-.024.118-.251.118-.267-.031-.1-.471-.526-.526-.785.2-.165.141-.479.173-.51-.039.039-.487-.157-.55-.55-.322L82.19,120.3c.157,0,.314.118.463-.071a4.941,4.941,0,0,0-.707-1.626c-.086-.11-.165-.039-.291-.008a.465.465,0,0,0-.33.581c.236,1.476.393,2.6.636,4.083.039.165-.1.393-.291.369-.314-.212-.393-.644-.942-.628a1.04,1.04,0,0,0-.887.84,1.914,1.914,0,0,0,0,.966.8.8,0,0,0,.9.228c.236-.1.432-.338.518-.283.055.071.008.856-1.123,1.453-.683.314-1.233.377-1.523-.181-.181-.353.016-1.68-.44-1.374" transform="translate(-64.144 -108.613)" fill="#fff" fill-rule="evenodd"/>
      <path id="Path_44144" data-name="Path 44144" d="M66.877,117.97a13.047,13.047,0,0,0,1.516-1.539l-.188-.157c-.071-.055-.063-.118,0-.173a.51.51,0,0,0,.055-.77.762.762,0,0,0-.683.008.567.567,0,0,0-.094.754c.165.079.33.251.22.346-.518.55-1.924,1.5-1.759,1.531a3.056,3.056,0,0,0,.927,0Zm-7.617,5.1a2.506,2.506,0,0,0-.251,2.214.54.54,0,0,0,.534.173c.3-.126.432-.73.361-.942-.1-.157-.181-.181-.283-.055-.2.424-.291.133-.314-.1a5.5,5.5,0,0,1,.063-1.194c.055-.33,0-.236-.11-.094m20.189-1.2c-.455-.989-1.092-1.963-1.288-2.332q-.918-1.451-1.947-2.827c-.487-.581.8.243-.157-.919l-.7-.589c-.157-.11-.534-.314-.6.016a2.025,2.025,0,0,0,.031.7,2.564,2.564,0,0,0,.393.589A44.366,44.366,0,0,1,79.41,123.3c.2-.1.157-1.264.039-1.429" transform="translate(-47.222 -105.406)" fill="#fff" fill-rule="evenodd"/>
      <path id="Path_44145" data-name="Path 44145" d="M280.691,127.575c-.094.1.22.534.628.534a2.37,2.37,0,0,0,1.822-1.461,2.591,2.591,0,0,0,.416-1.115,24.892,24.892,0,0,0-.455-5.685,1.139,1.139,0,0,1,.016-.393c.047-.055.2,0,.275-.133.118-.118-.314-1.1-.55-1.468-.078-.173-.118-.283-.259.016a2.12,2.12,0,0,0-.236,1.068c.322,2.238.424,4.193.628,6.431a.84.84,0,0,1-.157.66,6.3,6.3,0,0,1-2.128,1.547m9.148-.008c-.487.283-.487.6-.094.613a2.414,2.414,0,0,0,2.026-.966,3.22,3.22,0,0,0,.33-1.256,23.8,23.8,0,0,0-.369-5.607,4.008,4.008,0,0,1-.063-.573c.047-.11.267.008.346-.118.11-.118-.573-1-.817-1.374-.079-.173-.11-.283-.259.016a1.75,1.75,0,0,0-.141,1.068,50.4,50.4,0,0,1,.683,6.408,2.36,2.36,0,0,1-.133.573,4.831,4.831,0,0,1-.667.777c-.22.157-.691.314-.84.44" transform="translate(-250.466 -107.825)" fill="#fff" fill-rule="evenodd"/>
      <path id="Path_44146" data-name="Path 44146" d="M277.32,126.237c0-.573.008-1.06-.008-1.492a2.671,2.671,0,0,0-.235-1.06,3.992,3.992,0,0,1-.126-.927c-.063-.346-.047-.864-.141-1.264a4.116,4.116,0,0,1-.086-.722c.039-.11.189,0,.267-.126a4.66,4.66,0,0,0-.644-1.783c-.086-.165-.259-.11-.455.157-.2.181-.126.581-.047.966a32.82,32.82,0,0,1,.77,7.248c-.031.2.707-.613.707-1m-3.589-3.141a2.291,2.291,0,0,1-1.131-.942.628.628,0,0,1,.031-.51.423.423,0,0,1,.424-.079s.133.188.11.212c.157.079.236.039.251-.031.008-.118-.047-.188-.047-.314a.353.353,0,0,1,.628-.188,1.268,1.268,0,0,1,.165.628c0,.1-.157-.016-.259,0-.086.031-.11.141-.118.236-.016.259-.047.675-.055.982Zm-5.638,3.769a24.527,24.527,0,0,0-.039-2.6q-.063-1.757-.291-3.5c-.094-.66.267.071.22-.314a4.058,4.058,0,0,0-.911-1.688c-.133-.2-.133-.236-.346.047a1.956,1.956,0,0,0,.031,1.311,24.937,24.937,0,0,1,.573,3.824,30.894,30.894,0,0,1,.031,3.848c.236.008.6-.369.73-.927" transform="translate(-237.585 -108.671)" fill="#fff" fill-rule="evenodd"/>
      <path id="Path_44147" data-name="Path 44147" d="M350.868,127.931c-.542-.911-1.351-1.885-1.571-2.254q-1.092-1.525-2.293-2.968c-.667-.707.314-.118-.126-.667a5.16,5.16,0,0,0-.793-.777c-.157-.1-.251-.3-.314.039a6.518,6.518,0,0,0-.016.88,1.22,1.22,0,0,0,.267.55,45.5,45.5,0,0,1,4.837,6.612c.2-.1.133-1.256,0-1.413Z" transform="translate(-310.089 -110.969)" fill="#fff" fill-rule="evenodd"/>
      <path id="Path_44148" data-name="Path 44148" d="M113.833,181.583c-.039.071-.126.157-.094.243a.214.214,0,0,0,.2.1c.086,0,.212.024.236-.024a.284.284,0,0,0,.047-.259.228.228,0,0,0-.393-.063" transform="translate(-97.507 -166.294)" fill="#165d31" fill-rule="evenodd"/>
      <path id="Path_44149" data-name="Path 44149" d="M126.94,132.479c.722.031,1.194.039,1.83.11l.754-.079c.832-.079.864,1.186.864,1.186,0,.746-.291.785-.66.864-.212.031-.314-.126-.432-.283a1.1,1.1,0,0,1-.55.031c-.306-.016-.6-.016-.9-.039-.314-.024-.487.039-.809.008-.063.1-.157.243-.346.2-.157-.024-.353-.471-.3-.825.118-.251.079-.165.079-.275-2.953-.079-5.929-.212-8.819-.173-2.262.008-4.492.1-6.73.2a2.963,2.963,0,0,1-2.733-1.123c.063,0,3.047.165,3.919.11,1.61-.016,3.086-.149,4.727-.2,3.235.055,6.447.055,9.682.283a.451.451,0,0,1,.157-.832c.039-.031.063.243.133.236.385-.024.212.495.134.6m-13-17.841c-.487,1.4.283,2.937.817,2.788.393.157.628-.581.785-1.382.118-.228.2-.251.251-.133-.016,1.068.079,1.311.353,1.633a.9.9,0,0,0,1.162.024l.471-.479a.29.29,0,0,1,.4-.024c.149.133.126.361.44.518a.957.957,0,0,0,.958-.2c.173-.306.22-.408.3-.518.126-.165.338-.094.338-.039-.024.094-.149.181-.063.353.157.11.188.039.275.016.314-.157.55-.832.55-.832.008-.251-.133-.236-.228-.173l-.243.165c-.157.024-.448.126-.6-.1a7.741,7.741,0,0,1-.259-.927c0-.016-.2-.432-.016-.455.094.016.291.071.322-.094.094-.165-.2-.628-.416-.864a.453.453,0,0,0-.675-.016c-.173.157-.149.33-.181.495a.77.77,0,0,0,.157.683,2.035,2.035,0,0,1,.377,1.374.549.549,0,0,1-.495.243c-.133-.024-.346-.079-.455-.927a6.186,6.186,0,0,0-.251-1.94c-.1-.259-.173-.5-.408-.071a1.02,1.02,0,0,0-.141.958,2.827,2.827,0,0,1,.157,1.492,2.663,2.663,0,0,1-.291.393.452.452,0,0,1-.6.086.642.642,0,0,1-.361-.51,6.766,6.766,0,0,0-.055-1.641.291.291,0,0,0-.495-.094,3.746,3.746,0,0,0-.9,1.845c-.141.455-.291.322-.393.141-.251-.236-.275-2.1-.581-1.79" transform="translate(-92.427 -104.013)" fill="#fff" fill-rule="evenodd"/>
      <path id="Path_44150" data-name="Path 44150" d="M109.67,121.41c.228-.157.126-.267.455.063a5.654,5.654,0,0,1,.722,2.458c-.016.2.126.33.2.283.031-.471,1.186-1.131,2.246-1.225.157-.039.079-.346.1-.5a1.016,1.016,0,0,1,.88-1.162,1.029,1.029,0,0,1,1.021,1.115c-.086,1.178-1.311,1.374-1.995,1.468-.1.039-.149.086,0,.141l2.874.016.149.079c.016.079-.047.016-.157.2a2.317,2.317,0,0,0-.291.9,14.247,14.247,0,0,1-2.639.51c-.314.157-.471.369-.408.6.11.259.8.526.8.534.134.079.283.275-.039.675a3.178,3.178,0,0,1-2.866-1.5c-.11-.086-.236,0-.314.11a4.486,4.486,0,0,1-2.018,1.68,1.36,1.36,0,0,1-1.39-.448c-.181-.212-.173-.44-.236-.487-.306.133-2.9,1.233-2.568.715a18.284,18.284,0,0,1,2.686-1.83c.071-.228.2-.982.573-1.225.024,0-.055.44-.047.628,0,.157-.016.212.016.173a7.042,7.042,0,0,0,1.335-1.241c.11-.157.024-.565.024-.581-.22-.565-.526-.613-.636-.9-.1-.369-.055-.793.157-.919a.432.432,0,0,1,.62.039,1.944,1.944,0,0,1,.5.934c-.039.118-.314-.079-.393-.024a1.257,1.257,0,0,1,.291.613,1.817,1.817,0,0,1-.047,1.311,4.142,4.142,0,0,1-1.759,1.822.456.456,0,0,0,.188.424.9.9,0,0,0,.738,0,4.28,4.28,0,0,0,1.751-1.83,4,4,0,0,0-.188-1.743c-.228-.526-.495-1.272-.495-1.288-.008-.33.016-.44.157-.6m-7.523-3.031c.33.157.958.086.927-.448l-.016-.243c-.063-.157-.251-.118-.291.039-.016.055.024.141-.024.165-.031.031-.133.016-.133-.133a.23.23,0,0,0-.055-.126c-.016-.016-.031-.016-.071-.016s-.047.008-.071.047a.6.6,0,0,0-.024.126.072.072,0,0,1-.063.079.129.129,0,0,1-.079-.016c-.016-.024-.039-.031-.039-.079l-.024-.126a.133.133,0,0,0-.079-.047c-.181,0-.2.212-.181.291-.016.016-.024.385.22.487" transform="translate(-86.685 -107.738)" fill="#fff" fill-rule="evenodd"/>
      <path id="Path_44151" data-name="Path 44151" d="M217.885,123.4c.33.157,1.123.071.927-.44l-.016-.251c-.071-.157-.251-.118-.291.047-.016.047.024.133-.031.157-.024.031-.134.016-.126-.126a.255.255,0,0,0-.055-.133.169.169,0,0,0-.079-.016c-.039,0-.039.016-.063.055a.326.326,0,0,0-.024.126.092.092,0,0,1-.071.079c-.039,0-.031,0-.063-.024s-.047-.031-.047-.071l-.024-.126a.133.133,0,0,0-.079-.047c-.181,0-.2.2-.188.283-.008.016-.016.393.236.487Zm5.654-1.7c.33.157.95.086.927-.44l-.016-.251c-.071-.157-.251-.118-.291.039-.016.055.024.141-.031.173-.024.024-.133.008-.126-.141a.23.23,0,0,0-.055-.126c-.024-.016-.031-.016-.079-.016s-.039.016-.063.055l-.024.118c-.008.055-.031.079-.071.079a.085.085,0,0,1-.063-.016c-.024-.024-.047-.031-.047-.071a.366.366,0,0,0-.024-.133.125.125,0,0,0-.078-.039c-.181,0-.2.2-.189.283-.008.016-.016.385.236.487Zm2.929,4.264a2.02,2.02,0,0,0-.188,1.963,1.527,1.527,0,0,0,.707.809.506.506,0,0,0,.746-.079c.338-.353.346-1.256.5-1.429a.294.294,0,0,1,.526-.126,1.3,1.3,0,0,0,.487.416.821.821,0,0,0,1.068.079,1.269,1.269,0,0,0,.565-.7,21.711,21.711,0,0,0,.039-3.691l-.33-1.688c0-.016-.039-.8-.079-.982,0-.079-.024-.1.055-.094a.344.344,0,0,0,.157.1c.079.016.157-.133.1-.259l-.785-1.461c-.063-.063-.149-.126-.251.016a.573.573,0,0,0-.188.432c.024.346.079.7.1,1.044l.314,1.775c.1,1.256.126,2.293.228,3.557-.016.534-.181,1-.338,1.068,0,0-.236.134-.393-.016a4.726,4.726,0,0,1-.581-.777.348.348,0,0,0-.558,0,7.875,7.875,0,0,0-1,1.869c-.079.133-.314.236-.565-.008a2.628,2.628,0,0,1-.346-1.822m-2.78-7.358a1.1,1.1,0,0,1,.44,1.021c-.063.353-.22.746-.33.7-.126-.047.079-.361-.039-.691-.063-.22-.471-.613-.424-.722-.079-.243.173-.353.353-.314Z" transform="translate(-192.725 -108.661)" fill="#fff" fill-rule="evenodd"/>
      <path id="Path_44152" data-name="Path 44152" d="M166.521,127.091a10.005,10.005,0,0,0-.063-1.586c-.016-.424-.479-3.659-.573-3.973-.118-.613.448-.079.385-.44-.2-.44-.675-1.092-.825-1.476-.094-.157-.055-.314-.259-.039a3.322,3.322,0,0,0-.181,1.508,31.012,31.012,0,0,1,.9,7.052c.236,0,.495-.526.612-1.044m5.057-6.7c.275.133.432.887.4,1.1-.055.393-.2.817-.3.762-.118-.047.024-.581-.031-.746-.063-.236-.432-.66-.393-.785a.253.253,0,0,1,.322-.33M151.5,125.725c.259.1.416.652.393.809-.063.291-.2.6-.3.558-.1-.031.024-.424-.024-.55-.024-.291-.385-.448-.377-.573-.063-.236.157-.275.314-.243Z" transform="translate(-131.819 -109.423)" fill="#fff" fill-rule="evenodd"/>
      <path id="Path_44153" data-name="Path 44153" d="M212.754,203.016c.33.016.495.283.188.393s-.6.188-.613.628c.118.628-.157.408-.314.33a1.663,1.663,0,0,1-.8-1.178.312.312,0,0,1,.338-.314,9.564,9.564,0,0,0,1.2.141" transform="translate(-186.825 -185.882)" fill="#165d31" fill-rule="evenodd"/>
      <path id="Path_44154" data-name="Path 44154" d="M69.067,113.661c.377.11.4.675.377.84-.055.3-.188.62-.283.581-.11-.039,0-.448-.055-.573-.055-.173-.377-.5-.346-.6-.071-.2.157-.291.306-.251M76.6,116.3a.686.686,0,0,0-.228.911.445.445,0,0,0,.471.149c.291.031.463-.542.463-.542s.008-.157-.33.149c-.149.024-.157-.031-.2-.11a.707.707,0,0,1,.039-.448c.055-.141-.055-.2-.22-.11m2.2-2.858a1.056,1.056,0,0,0-.455.754c-.008.2-.047.2.079.314.1.141.188.133.377.031a.4.4,0,0,0,.181-.267c.047-.22-.236.11-.267-.141-.063-.236.118-.33.291-.55,0-.157,0-.259-.212-.141Zm1.759.314a4.671,4.671,0,0,0-.126.872c-.047.22.236.314.353.031a2.764,2.764,0,0,0,.2-.942c-.055-.338-.283-.33-.432.039m11.151,5.678c.031-.039,1.571-1.131,1.571-1.131.157-.055.118.565.047.558a6.109,6.109,0,0,1-1.626,1.123c-.079.055-.149-.416,0-.55Zm1.39-.016c.275.133.385.927.353,1.139,0,.424-.259.754-.369.707s.016-.526-.039-.691c-.063-.236-.291-.667-.251-.793a.266.266,0,0,1,.314-.361Zm-9.109,3.408a2.041,2.041,0,0,1,.44-.385.274.274,0,0,1,.291.055c.024.157-.094.291-.055.495.031.079.055.173.2.141a1.057,1.057,0,0,1,.707-.22c.2.008.2.33.079.33a5.456,5.456,0,0,0-.966.338.223.223,0,0,1-.283-.031.31.31,0,0,1-.031-.291c.016-.157-.047-.251-.188-.236-.094.063-.188.094-.236-.024-.024-.079-.031-.126.039-.173m10.727.424a.2.2,0,0,1-.008.3l-.291.251c-.047.079-.079.22.079.259.283.079.942-.353.942-.361a.2.2,0,0,0,.063-.236c-.063-.071-.2-.024-.3-.039-.047,0-.2-.016-.126-.157a.9.9,0,0,0,.126-.228c.039-.094,0-.157-.157-.212a1.233,1.233,0,0,0-.416,0c-.094.016-.126.063-.149.181.008.181.118.173.236.236Z" transform="translate(-56.291 -103.892)" fill="#fff" fill-rule="evenodd"/>
      <path id="Path_44155" data-name="Path 44155" d="M172.054,127.548c-.039.079-.181.079-.314,0s-.212-.2-.165-.275.181-.071.314,0,.2.2.165.275m-6.989-4.209c-.079.024-.188-.047-.236-.157s-.024-.2.055-.228.181.055.236.157.024.212-.063.236Zm13.829,18.76c.738.031,1.429,0,2.16.039.133.118.039.393-.047.377l-.613-.024c-.008-.236-.6-.2-.589.008a5.417,5.417,0,0,1-.942-.024c-.094-.118-.079-.33.031-.377" transform="translate(-144.302 -112.651)" fill="#165d31" fill-rule="evenodd"/>
    </g>
  </g>
</svg>
