<svg xmlns="http://www.w3.org/2000/svg" width="212" height="132" viewBox="0 0 212 132">
  <g id="Group_24846" data-name="Group 24846" transform="translate(-856 -1075)">
    <rect id="Rectangle_19696" data-name="Rectangle 19696" width="212" height="132" rx="24" transform="translate(856 1075)" fill="#b7ebff"/>
    <path id="Path_43278" data-name="Path 43278" d="M-18750.566-6603.733l16.838-4.048,5.5,1.458,3.238-7.61,7.447-4.209,3.076,4.209,1.781,8.9,8.9-2.1,15.381,2.1,13.115-2.752,12.627,2.752h10.2l8.256,1.3,16.191-1.3h11.818l1.471,2.974.285,2.607-1.021,2.324s-2.607,1.361-2.777,1.474-2.664,2.777-2.664,2.777l-1.078,7.823-2.328,6.2-2.586,2.874s-4.117,3.736-4.5,3.832-9.582,1.438-10.156,1.246-4.121-2.2-5.461-2.683a50.344,50.344,0,0,0-6.035-1.054,18.525,18.525,0,0,1-5.076,1.916c-1.916.191-6.994,1.341-6.994,1.341l-1.629,4.6a56.98,56.98,0,0,1-5.174,3.736c-.67.191-5.844.862-6.418.383s-2.684-4.694-3.354-5.173-3.256-.575-3.256-.575a31.986,31.986,0,0,1-2.109,2.586c-.383.288-6.131,4.12-6.131,4.12s-6.514-.1-6.8-.383a35.128,35.128,0,0,0-2.684-3.353c-1.34-1.341-1.531-2.97-3.256-3.353s-4.6-1.053-4.982-1.149-6.713-3.093-6.713-3.093-4.055-.261-4.186-.305-4.4-.305-5.8.305-6.8,1.134-7.152,1.134-5.842-.044-6.191-.306-4.752-2.877-5.275-3.27-3.4-1.962-3.445-2.791-.961-4.535-1.135-5.668-.914-4.491-1-4.709S-18750.566-6603.733-18750.566-6603.733Z" transform="translate(19648 7730)" fill="#fff"/>
    <path id="path3034" d="M126.88,29.071a6.5,6.5,0,0,0-6.4-6.036c-3.8,0-6.086,2.342-6.92,6.036H126.88ZM99.192,31.932c0-4.474-1.975-8.223-6.035-8.271-4.422-.054-6.087,3.954-6.087,8.271,0,3.9,1.458,8.429,6.087,8.429C97.994,40.31,99.192,35.47,99.192,31.932Zm34.868-1.77c0-6.245-5-12.436-13.737-12.436-7.459,0-12.4,4.079-13.885,10.51-1.3-7.119-6.141-10.51-11.565-10.51-3.694,0-6.763,1.562-8.014,4.788h-.1v-1.2c0-2.34-1.2-3.592-3.438-3.592a2.986,2.986,0,0,0-3.122,1.8,3.715,3.715,0,0,0-3.382-1.8c-2.083,0-3.12,1.457-3.642,3.382L68.543,38.333h-.1L63.548,20.59a3.809,3.809,0,0,0-3.9-2.863,3.663,3.663,0,0,0-3.269,1.955,3.813,3.813,0,0,0-3.189-1.955,4.061,4.061,0,0,0-2.91,1.457L41.845,28.55V11.276a3.475,3.475,0,0,0-3.8-3.8,3.474,3.474,0,0,0-3.8,3.8V35.009c-1.238-3.615-5.461-5.053-9.106-5.888l-3.172-.726c-2.344-.522-4.06-.937-4.06-2.707,0-1.614,1.716-2.341,4.37-2.341,4.787,0,4.892,3.487,7.856,3.487A3.159,3.159,0,0,0,33.315,23.5c0-3.486-5.83-5.778-11.6-5.778-5.256,0-11.4,2.292-11.4,8.482,0,5.1,3.434,6.922,7.857,8.015l4.476,1.09c2.706.677,4.369.989,4.369,2.913,0,1.561-1.716,2.762-4.425,2.762-5.614,0-5.927-4.685-9.207-4.685a2.916,2.916,0,0,0-3.07,3.175c0,3.745,5.723,6.816,12.592,6.816,4.9,0,9.977-2.106,11.342-6.594v2.795a3.475,3.475,0,0,0,3.8,3.8,3.476,3.476,0,0,0,3.8-3.8V36.717L44.5,34.376l7.178,10.145a3.9,3.9,0,0,0,3.434,1.772,3.689,3.689,0,0,0,3.59-3.7,4.123,4.123,0,0,0-.78-2.445L50.015,29.537l5.62-5.876c.231-.253.434-.463.606-.688.153.511.368,1.123.648,1.935L64.8,47.436c-.575,2.344-1.668,2.4-2.657,2.4h-.778c-2.03,0-3.485,1.039-3.485,3.07,0,1.82,1.4,3.487,4.783,3.487,4.791,0,6.871-2.707,8.694-7.909l8.536-24.2V52.592a3.8,3.8,0,1,0,7.592,0V42.441h.109c1.4,2.445,4,3.852,7.491,3.852,6.509,0,10.17-4.5,11.315-10.1,1.285,5.338,5.545,10.1,14.186,10.1,4.578,0,11.918-2.135,11.918-6.712a3.139,3.139,0,0,0-3.123-2.968c-3.07,0-3.07,3.747-8.794,3.747-4.421,0-7.025-2.915-7.025-6.922H130.73c2.55,0,3.33-.674,3.33-3.277Zm2.364-11.892v4.781h.983V19.7h.014l1.174,3.351h.812l1.173-3.388h.011v3.388h.989V18.27H140.1l-1.061,3.29h-.011L137.9,18.27h-1.481Zm-3.037.881v3.9h1.058v-3.9h1.433V18.27h-3.925v.881Zm6.349,8.281A20.843,20.843,0,0,1,119.32,52.419a20.725,20.725,0,0,1-11.686-3.587A16.236,16.236,0,0,1,94.32,52.884,10.827,10.827,0,0,1,74.146,55.66a11.988,11.988,0,0,1-22.687.18c-.14.005-.275.024-.413.024a17.2,17.2,0,0,1-13.912-7.093A21.373,21.373,0,0,1,3.434,31.3c0-.659.03-1.314.091-1.957A10.784,10.784,0,0,1,15.892,11.878,21.264,21.264,0,0,1,24.81,9.924a21.7,21.7,0,0,1,3.216.24c0-.125-.016-.246-.016-.374A9.791,9.791,0,0,1,47.593,9.7a15.076,15.076,0,0,1,18.529,2.467,18.214,18.214,0,0,1,30.894,1.414,8.526,8.526,0,0,1,10.334.971,20.785,20.785,0,0,1,23.845-.076,7.966,7.966,0,1,1,8.541,12.955" transform="translate(890.031 1108.945)" fill="#00aff0"/>
  </g>
</svg>
