<svg id="bag-2" xmlns="http://www.w3.org/2000/svg" width="16" height="16" viewBox="0 0 16 16">
  <path id="Vector" d="M0,3.774V3.128A3.182,3.182,0,0,1,2.707.014,3,3,0,0,1,6,3v.92" transform="translate(5 1.339)" fill="none" stroke="#FFF" stroke-linecap="round" stroke-linejoin="round" stroke-width="1.3"/>
  <path id="Vector-2" data-name="Vector" d="M3.834,9.333h4c2.68,0,3.16-1.073,3.3-2.38l.5-4C11.814,1.327,11.347,0,8.5,0H3.167C.321,0-.146,1.327.034,2.953l.5,4C.674,8.26,1.154,9.333,3.834,9.333Z" transform="translate(2.166 5.333)" fill="none" stroke="#FFF" stroke-linecap="round" stroke-linejoin="round" stroke-width="1.3"/>
  <path id="Vector-3" data-name="Vector" d="M.495.5H.5" transform="translate(9.836 7.5)" fill="none" stroke="#FFF" stroke-linecap="round" stroke-linejoin="round" stroke-width="1.3"/>
  <path id="Vector-4" data-name="Vector" d="M.495.5H.5" transform="translate(5.168 7.5)" fill="none" stroke="#FFF" stroke-linecap="round" stroke-linejoin="round" stroke-width="1.3"/>
  <path id="Vector-5" data-name="Vector" d="M0,0H16V16H0Z" fill="none" opacity="0"/>
</svg>
