<svg xmlns="http://www.w3.org/2000/svg" width="14" height="12.518" viewBox="0 0 14 12.518">
  <path id="Path_27829" data-name="Path 27829" d="M14.731,12.848h-.176c-1.342,0-2.683,0-4.026,0a.287.287,0,0,1-.263-.131c-.521-.686-1.052-1.364-1.578-2.046q-.82-1.065-1.636-2.131a.243.243,0,0,0-.037-.028c-.149.164-.3.326-.446.491q-.7.785-1.388,1.573-.965,1.1-1.928,2.194a.215.215,0,0,1-.139.073c-.691,0-1.381,0-2.071,0a.237.237,0,0,1-.052-.015c.172-.193.338-.375.5-.56q1.344-1.525,2.689-3.051Q5.035,8.253,5.9,7.291a.142.142,0,0,0,.009-.217q-.755-.969-1.5-1.943Q3.2,3.574,2,2.017,1.4,1.238.8.456C.782.427.764.394.732.345.789.34.824.335.86.335q2.1,0,4.207,0a.242.242,0,0,1,.168.081Q6.483,2.045,7.725,3.678c.155.2.314.405.481.62.084-.09.164-.172.239-.257Q9.225,3.158,10,2.274c.55-.625,1.1-1.251,1.648-1.875a.182.182,0,0,1,.117-.063c.7,0,1.406,0,2.127,0a.754.754,0,0,1-.05.079q-1.3,1.463-2.6,2.927c-.654.739-1.3,1.481-1.959,2.219-.06.069-.047.11,0,.172q1,1.3,2,2.6Q12.5,9.915,13.706,11.5l1.026,1.347Zm-2.6-1.289c-.057-.072-.1-.12-.136-.17L9.539,8.17Q8.444,6.734,7.35,5.3q-.662-.869-1.326-1.738C5.542,2.928,5.055,2.3,4.578,1.67a.224.224,0,0,0-.21-.108c-.241.006-.483,0-.725,0H3.279c.06.075.1.127.144.182L6.979,6.36Q8.123,7.842,9.267,9.32c.547.71,1.09,1.422,1.638,2.13a.274.274,0,0,0,.177.1c.34.01.679.005,1.049.005Z" transform="translate(-0.732 -0.333)" fill="#fff"/>
</svg>
