<svg xmlns="http://www.w3.org/2000/svg" width="40" height="40" viewBox="0 0 40 40">
  <g id="Group_27953" data-name="Group 27953" transform="translate(-755 8361)">
    <rect id="_3373550" data-name="3373550" width="40" height="40" rx="7" transform="translate(755 -8361)" fill="#107c10"/>
    <path id="Xbox_one_logo" d="M15.183,32.46a15.722,15.722,0,0,1-7-2.481C6.419,28.825,6.02,28.35,6.02,27.4c0-1.9,2.091-5.233,5.669-9.03,2.031-2.157,4.861-4.684,5.167-4.616.6.133,5.352,4.773,7.134,6.958,2.816,3.453,4.11,6.282,3.453,7.543-.5.958-3.6,2.832-5.881,3.551a17.29,17.29,0,0,1-6.378.65ZM3.631,25.426A16.341,16.341,0,0,1,1.06,17.741,12.287,12.287,0,0,1,1.329,13.9,15.725,15.725,0,0,1,5.159,6.12c.79-.82.861-.842,1.824-.516a13.36,13.36,0,0,1,4.354,3.01l1.132,1.023-.619.758a48.915,48.915,0,0,0-7.031,11.6,7.5,7.5,0,0,0-.6,4.063c.179.474.015.3-.59-.628Zm25.8.383a7.65,7.65,0,0,0-.469-3.324c-.932-2.844-4.048-8.133-6.909-11.73l-.9-1.132.975-.895a20.572,20.572,0,0,1,3.109-2.462,5.982,5.982,0,0,1,2.289-.884c.285,0,1.288,1.044,2.1,2.179a16.5,16.5,0,0,1,2.643,6.112,20.336,20.336,0,0,1,.049,5.936,18.975,18.975,0,0,1-1.183,3.73,20.239,20.239,0,0,1-1.615,2.766c-.2.252-.2.251-.088-.291ZM15.443,4.847a19.647,19.647,0,0,0-4.482-1.584,8.178,8.178,0,0,0-1.494-.084c-.929.047-.887,0,.6-.7a15.309,15.309,0,0,1,3.673-1.223,18.916,18.916,0,0,1,6.092-.008,16.991,16.991,0,0,1,4.761,1.772l.331.2-.758-.038a13.789,13.789,0,0,0-6.062,1.68,12.773,12.773,0,0,1-1.375.615c-.045-.009-.625-.291-1.289-.628Z" transform="translate(758 -8358)" fill="#fff"/>
  </g>
</svg>
